<?xml version="1.0" standalone="no"?>
<!DOCTYPE svg PUBLIC "-//W3C//DTD SVG 1.1//EN" "http://www.w3.org/Graphics/SVG/1.1/DTD/svg11.dtd" >
<svg>
<metadata>
Created by FontForge 20090914 at Sat Jun  6 16:46:51 2015
 By www-data
Copyright (c) 2006-2012, Raph Levien (firstname.lastname@gmail.com), Copyright (c) 2011-2012, Cyreal (cyreal.org)
</metadata>
<defs>
<font id="Inconsolata-Regular" horiz-adv-x="500" >
  <font-face 
    font-family="Inconsolata"
    font-weight="400"
    font-stretch="normal"
    units-per-em="1000"
    panose-1="2 11 6 9 3 0 3 0 0 0"
    ascent="800"
    descent="-200"
    x-height="457"
    cap-height="623"
    bbox="-0.000976562 -177 508.999 834"
    underline-thickness="50"
    underline-position="-150"
    unicode-range="U+0020-U+F40A"
  />
<missing-glyph 
 />
    <glyph glyph-name=".notdef" 
 />
    <glyph glyph-name="space" unicode=" " 
 />
    <glyph glyph-name="exclam" unicode="!" 
d="M281 89c12 -12 18 -26 18 -42c0 -15.333 -6 -28.833 -18 -40.5s-26 -17.5 -42 -17.5s-29.833 5.66699 -41.5 17s-17.5 25 -17.5 41s5.83301 30 17.5 42s25.5 18 41.5 18s30 -6 42 -18zM241 668c15.333 0 27.667 -6.50293 37 -19.5029s14 -34.5 14 -64.5
c0 -7.33301 -0.333008 -16.166 -1 -26.499s-1.66699 -22.166 -3 -35.499l-5 -52l-18 -276h-50l-15 276c-0.666992 10.667 -1.5 21.834 -2.5 33.501l-3 34l-3 31.5c-1 10 -1.5 18.333 -1.5 25c0 23.333 4.5 41.5 13.5 54.5s21.5 19.5 37.5 19.5z" />
    <glyph glyph-name="quotedbl" unicode="&#x22;" 
d="M315 548l-5.99902 63.001c0 18.667 4.33301 32.5 13 41.5s18.667 13.5 30 13.5s21.666 -5 30.999 -15s14 -26 14 -48c0 -20.667 -11.333 -62.334 -34 -125.001l-24 -66l-55 13l22 68c6 20 9 38.333 9 55zM143.001 548.001l-6.99902 63.001c0 18.667 4.33301 32.5 13 41.5
s18.667 13.5 30 13.5s21.666 -5 30.999 -15s14 -26 14 -48c0 -22.667 -11 -64.334 -33 -125.001l-24 -66l-56 13l22 68c3.33301 10 5.83301 19.5 7.5 28.5s2.5 17.833 2.5 26.5z" />
    <glyph glyph-name="numbersign" unicode="#" 
d="M173 624l61 2l-21 -171h110l20 167l62 1l-20 -166h91l-6 -47h-91l-21 -169h99l-5 -45h-99l-22 -182l-61 -4l22 183h-111l-21 -179l-59 -1l21 178h-97l4 45h99l20 171h-109l3 46h111zM207 408l-20 -170h110l21 170h-111z" />
    <glyph glyph-name="dollar" unicode="$" 
d="M235 651l63.9951 0.00195312c0.666992 -0.666992 1 -1.66699 1 -3s-1 -3.5 -3 -6.5s-3.33301 -6.83301 -4 -11.5v-38c62.667 -7.33301 112.334 -33 149.001 -77l-43 -54c-3.33301 1.33301 -5.16602 4.33301 -5.49902 9s-2.16602 8.66699 -5.49902 12
c-23.333 27.333 -55 44.333 -95 51v-193c28.667 -9.33301 53.5 -19 74.5 -29s38.333 -21.167 52 -33.5s23.834 -26.333 30.501 -42s10 -33.834 10 -54.501c0 -19.333 -3.83301 -38 -11.5 -56s-18.667 -34.5 -33 -49.5s-31.833 -27.833 -52.5 -38.5s-44 -17.667 -70 -21v-63
h-58v61c-72 5.33301 -130.333 32 -175 80l43 60c2.66699 -2 4 -5.33301 4 -10s1 -8.33398 3 -11.001c33.333 -36 75 -56.333 125 -61v220c-52 17.333 -91 38.166 -117 62.499s-39 54.833 -39 91.5c0 18 3.83301 35.167 11.5 51.5s18.334 30.833 32.001 43.5
s30 23.334 49 32.001s40.167 14.667 63.5 18v60zM292.995 273.002v-198.999c32 6 57 18.833 75 38.5s27 41.167 27 64.5c0 24 -8 43.167 -24 57.5s-42 27.166 -78 38.499zM234.995 361.003v172.998c-30 -3.33301 -52.5 -12.666 -67.5 -27.999s-22.5 -32.666 -22.5 -51.999
c0 -38 30 -69 90 -93z" />
    <glyph glyph-name="percent" unicode="%" 
d="M391 623h67l-348 -623h-64zM28 504c0 18 3 34.998 9 50.998s14 29.833 24 41.5s21.833 20.834 35.5 27.501s28.167 10 43.5 10s29.833 -3.33301 43.5 -10s25.5 -16 35.5 -28s18 -26 24 -42s9 -33 9 -51c0 -38 -10.667 -69.167 -32 -93.5s-48 -36.5 -80 -36.5
c-15.333 0 -29.833 3.33301 -43.5 10s-25.5 15.834 -35.5 27.501s-18 25.5 -24 41.5s-9 33.333 -9 52zM189 503.998c0 28.667 -5.33301 48.833 -16 60.5s-22.334 17.5 -35.001 17.5c-12 0 -23.167 -5.83301 -33.5 -17.5s-15.5 -31.834 -15.5 -60.501
c0 -28 5.33301 -48 16 -60s22.334 -18 35.001 -18s24 5.83301 34 17.5s15 31.834 15 60.501zM371 248.997c15.333 0 29.832 -3.33398 43.499 -10.001s25.5 -16 35.5 -28s17.833 -25.833 23.5 -41.5s8.5 -32.5 8.5 -50.5s-3 -35 -9 -51s-14 -29.667 -24 -41
s-21.667 -20.333 -35 -27s-27.666 -10 -42.999 -10s-29.833 3.33301 -43.5 10s-25.5 15.667 -35.5 27s-18 25 -24 41s-9 33 -9 51s3 35 9 51s14 29.833 24 41.5s21.833 20.834 35.5 27.501s28.167 10 43.5 10zM405.999 178.996c-11.333 12.667 -23.3311 19 -35.998 19
c-13.333 0 -25.333 -6 -36 -18s-16 -32 -16 -60c0 -28.667 5.66699 -49.167 17 -61.5s23.666 -18.5 36.999 -18.5s25.166 6.33301 35.499 19s15.5 32.334 15.5 59.001c0 27.333 -5.66699 47.666 -17 60.999z" />
    <glyph glyph-name="ampersand" unicode="&#x26;" 
d="M413 262l-0.998047 11.998c0 4 1.33301 7.33301 4 10l65 -45c-22.667 -40 -48 -78.667 -76 -116l70 -91l-59 -44l-55 88c-20.667 -26 -45.834 -46.833 -75.501 -62.5s-60.834 -23.5 -93.501 -23.5c-22.667 0 -43.5 4 -62.5 12s-35.5 18.833 -49.5 32.5
s-24.833 29.667 -32.5 48s-11.5 37.833 -11.5 58.5c0 42 11.5 80.833 34.5 116.5s53.5 64.167 91.5 85.5c-47.333 57.333 -71 109 -71 155c0 18.667 3.66699 36 11 52s17.166 29.833 29.499 41.5s26.833 20.834 43.5 27.501s34.334 10 53.001 10
c20 0 38.333 -3.66699 55 -11s31 -17.166 43 -29.499s21.167 -26.333 27.5 -42s9.5 -31.834 9.5 -48.501s-2.66699 -33.334 -8 -50.001s-12.833 -32.5 -22.5 -47.5s-21 -28.667 -34 -41s-27.5 -22.166 -43.5 -29.499l112 -157c9.33301 11.333 18.833 25.333 28.5 42
s15.5 32.334 17.5 47.001zM160.002 496.998c0 -32 20.334 -73.333 61.001 -124c24 11.333 42.667 28.5 56 51.5s20 45.5 20 67.5s-6.83301 40.5 -20.5 55.5s-29.5 22.5 -47.5 22.5c-18.667 0 -34.834 -6.66699 -48.501 -20s-20.5 -31 -20.5 -53zM197.003 295.998
c-26.667 -16.667 -47.5 -38.332 -62.5 -64.999s-22.5 -53 -22.5 -79c0 -14 2.33301 -26.833 7 -38.5s11 -22 19 -31s17.167 -16 27.5 -21s21.5 -7.5 33.5 -7.5c10.667 0 21.667 1.66699 33 5s21.833 7.5 31.5 12.5s18.5 10.667 26.5 17s14.333 12.166 19 17.499l15 17z" />
    <glyph glyph-name="quotesingle" unicode="'" 
d="M238 548l-6.99902 63.001c0 18.667 4.33301 32.5 13 41.5s18.667 13.5 30 13.5s21.666 -5 30.999 -15s14 -26 14 -48c-0.666992 -11.333 -3.5 -27.333 -8.5 -48s-13.167 -46.334 -24.5 -77.001l-25 -66l-55 13l22 68c3.33301 10 5.83301 19.5 7.5 28.5
s2.5 17.833 2.5 26.5z" />
    <glyph glyph-name="parenleft" unicode="(" 
d="M414 603l-10.998 1.00098c-2 0 -5 -1 -9 -3c-58.667 -34.667 -104.334 -81.834 -137.001 -141.501s-49 -127.5 -49 -203.5c0 -37.333 5 -74.166 15 -110.499s24.333 -71 43 -104s41.5 -63.333 68.5 -91s57.167 -51.167 90.5 -70.5l-32 -53
c-40 20.667 -75.667 46.167 -107 76.5s-57.833 64.166 -79.5 101.499s-38.334 77.5 -50.001 120.5s-17.5 87.167 -17.5 132.5s5.83301 88.833 17.5 130.5s28.5 80.334 50.5 116.001s48.5 67.167 79.5 94.5s66.167 49.666 105.5 66.999l30 -61c-4 -1.33301 -6.66699 -2 -8 -2
z" />
    <glyph glyph-name="parenright" unicode=")" 
d="M78 603l19.0029 62.002c40 -18.667 76.667 -42.5 110 -71.5s61.5 -61.667 84.5 -98s40.833 -75.333 53.5 -117s19 -84.5 19 -128.5c0 -44.667 -6.5 -88.167 -19.5 -130.5s-31.333 -82 -55 -119s-52.334 -70.5 -86.001 -100.5s-71.167 -54.667 -112.5 -74l-19 60
c34 18 64.5 39.833 91.5 65.5s50.167 54.334 69.5 86.001s34.166 65.167 44.499 100.5s15.5 71.666 15.5 108.999s-5.16699 73.666 -15.5 108.999s-24.833 68.333 -43.5 99s-41.334 58.667 -68.001 84s-56 46.666 -88 63.999z" />
    <glyph glyph-name="asterisk" unicode="*" 
d="M213 519h81c-0.666992 -4 -1.66699 -8.5 -3 -13.5s-2.33301 -9.5 -3 -13.5l-15 -150l159 72l26 -61l-171 -52l126 -151l-55 -43l-108 166l-112 -167l-54 44l130 150l-173 53l26 65l162 -76z" />
    <glyph glyph-name="plus" unicode="+" 
d="M222 523h63v-171h171v-61h-171v-187h-63v187h-177v61h177v171z" />
    <glyph glyph-name="comma" unicode="," 
d="M306 20c0 -52.667 -35.6689 -115.334 -107.002 -188.001l-34 30c18.667 17.333 34.167 36 46.5 56s18.5 36.333 18.5 49c0 6.66699 -2.66699 12.834 -8 18.501s-11.166 11.167 -17.499 16.5s-12.166 11.5 -17.499 18.5s-8 14.833 -8 23.5c0 16.667 5.5 30.667 16.5 42
s25.167 17 42.5 17s33 -7.66699 47 -23s21 -35.333 21 -60z" />
    <glyph glyph-name="hyphen" unicode="-" 
d="M71 348h360v-67h-360v67z" />
    <glyph glyph-name="period" unicode="." 
d="M280 87c12 -12 18.001 -25.668 18.001 -41.001s-5.83301 -28.666 -17.5 -39.999s-25.834 -17 -42.501 -17s-30.667 5.5 -42 16.5s-17 24.5 -17 40.5s6 29.667 18 41s25.667 17 41 17s29.333 -5.66699 42 -17z" />
    <glyph glyph-name="slash" unicode="/" 
d="M64 -13l313 678l60 -31l-314 -676z" />
    <glyph glyph-name="zero" unicode="0" 
d="M386 544c19.333 -26 34.833 -59.998 46.5 -101.998s17.5 -89 17.5 -141c0 -52.667 -5.83301 -98.5 -17.5 -137.5s-27 -71.5 -46 -97.5s-40.5 -45.333 -64.5 -58s-48.333 -19 -73 -19c-25.333 0 -50 7.66699 -74 23s-45.333 36.833 -64 64.5s-33.5 61 -44.5 100
s-16.5 82.167 -16.5 129.5s5.5 90.666 16.5 129.999s25.833 73.166 44.5 101.499s40 50.333 64 66s48.667 23.5 74 23.5c52 0 97.667 -27.667 137 -83zM349 485.002c-13.333 26.667 -28.666 46.833 -45.999 60.5s-35 20.5 -53 20.5c-16.667 0 -33.167 -6 -49.5 -18
s-30.833 -28.667 -43.5 -50s-22.834 -47.333 -30.501 -78s-11.5 -64.334 -11.5 -101.001c0 -41.333 4.66699 -80.666 14 -117.999zM372 418.001l-220.001 -280.002c16 -30 32.833 -51.667 50.5 -65s35.167 -20 52.5 -20c18 0 34.833 5.5 50.5 16.5
s29.334 26.833 41.001 47.5s21 45.834 28 75.501s10.5 63.167 10.5 100.5c0 23.333 -1 45.333 -3 66s-5.33301 40.334 -10 59.001z" />
    <glyph glyph-name="one" unicode="1" 
d="M299 624v-624h-69v537l-126 -37l-16 39l163 85h48z" />
    <glyph glyph-name="two" unicode="2" 
d="M78 526c18 32 42.4971 56.8311 73.4971 74.498s64.5 26.5 100.5 26.5c24.667 0 48 -4.5 70 -13.5s41.333 -21.5 58 -37.5s29.667 -34.667 39 -56s14 -44 14 -68c0 -19.333 -2.83301 -37.666 -8.5 -54.999s-13.167 -33.833 -22.5 -49.5s-20.166 -30.667 -32.499 -45
s-25.166 -27.5 -38.499 -39.5l-60 -56c-8.66699 -8 -18.334 -17.5 -29.001 -28.5s-21.167 -22.833 -31.5 -35.5s-20.5 -26 -30.5 -40s-18.667 -28 -26 -42h261c3.33301 0 6.83301 1.5 10.5 4.5s7.16699 4.5 10.5 4.5h3v-70h-366v44c24.667 48.667 51.334 90.667 80.001 126
s56.334 65 83.001 89l48 44c16.667 15.333 30.167 29.5 40.5 42.5s18.5 25.5 24.5 37.5s10 23.5 12 34.5s3 22.167 3 33.5c0 14.667 -3 28.834 -9 42.501s-14.5 26 -25.5 37s-23.333 19.667 -37 26s-27.834 9.5 -42.501 9.5c-17.333 0 -32.833 -2.5 -46.5 -7.5
s-25.667 -11 -36 -18s-18.5 -14.333 -24.5 -22s-9.33301 -14.5 -10 -20.5c-1.33301 -6 -2.66602 -10 -3.99902 -12z" />
    <glyph glyph-name="three" unicode="3" 
d="M411 467c0 -30 -8.49902 -57.334 -25.499 -82.001s-39.5 -42.334 -67.5 -53.001c32 -11.333 57.833 -31.666 77.5 -60.999s29.5 -62.666 29.5 -99.999c0 -24.667 -4.5 -48 -13.5 -70s-22 -41.333 -39 -58s-37.833 -29.834 -62.5 -39.501s-52.667 -14.5 -84 -14.5
c-61.333 0 -113.666 23.667 -156.999 71l53 63c2.66699 -2.66699 4.66699 -7.16699 6 -13.5s3.66602 -11.5 6.99902 -15.5l14 -13c5.33301 -5.33301 16.166 -11.333 32.499 -18s33.166 -10 50.499 -10c18 0 34.667 3.33301 50 10s28.666 15.834 39.999 27.501
s20.166 25.334 26.499 41.001s9.5 32.167 9.5 49.5c0 36 -13.5 64.5 -40.5 85.5s-62.5 31.5 -106.5 31.5c-5.33301 0 -10.5 -0.166992 -15.5 -0.5s-10.167 -0.833008 -15.5 -1.5v56c30.667 0 56.334 3.16699 77.001 9.5s37.5 14.833 50.5 25.5s22.333 23.167 28 37.5
s8.5 29.833 8.5 46.5c0 12 -2.66699 23.5 -8 34.5s-12.666 20.667 -21.999 29s-20.666 15.166 -33.999 20.499s-28 8 -44 8c-42.667 0 -78.334 -16 -107.001 -48l-39 43c40.667 44.667 90.334 67 149.001 67c24 0 46.5 -4.16699 67.5 -12.5s39.167 -19.833 54.5 -34.5
s27.5 -31.5 36.5 -50.5s13.5 -39.167 13.5 -60.5z" />
    <glyph glyph-name="four" unicode="4" 
d="M313 624h59v-390h80v-62h-80v-172h-73v173h-251v51zM300 513l-183 -279h183v279z" />
    <glyph glyph-name="five" unicode="5" 
d="M106 623l316.002 0.000976562v-63h-257l-10 -179c32.667 16 66.667 24 102 24c26.667 0 51.5 -4.83301 74.5 -14.5s43 -23.667 60 -42s30.167 -40.333 39.5 -66s14 -54.5 14 -86.5s-5 -60.833 -15 -86.5s-23.833 -47.5 -41.5 -65.5s-38.334 -31.667 -62.001 -41
s-49.5 -14 -77.5 -14c-38 0 -73.167 8.33301 -105.5 25s-58.833 40.334 -79.5 71.001l62 46c3.33301 -2 5.16602 -6 5.49902 -12s0.833008 -9.66699 1.5 -11c2.66699 -4.66699 7.33398 -10.334 14.001 -17.001s15.167 -13 25.5 -19s22.333 -11.167 36 -15.5
s28.5 -6.5 44.5 -6.5s31.333 3.5 46 10.5s27.5 16.833 38.5 29.5s19.833 28.167 26.5 46.5s10 39.166 10 62.499s-3.33301 44.166 -10 62.499s-15.834 33.833 -27.501 46.5s-25.167 22.334 -40.5 29.001s-32 10 -50 10c-21.333 0 -42.333 -5.16699 -63 -15.5
s-38.667 -24.833 -54 -43.5l-44 18z" />
    <glyph glyph-name="six" unicode="6" 
d="M287 630c52 0 97.666 -18.9961 136.999 -56.9961l-49 -53c-6 5.33301 -10 11.166 -12 17.499s-6.66699 10.833 -14 13.5c-10 6.66699 -20.167 11.167 -30.5 13.5s-20.166 3.5 -29.499 3.5c-13.333 0 -28.833 -3.16699 -46.5 -9.5s-34.167 -18.166 -49.5 -35.499
s-28.5 -41.833 -39.5 -73.5s-16.833 -72.5 -17.5 -122.5c14 23.333 32.833 41.666 56.5 54.999s48.834 20 75.501 20c23.333 0 45.333 -4.83301 66 -14.5s38.834 -23.5 54.501 -41.5s28 -39.5 37 -64.5s13.5 -52.833 13.5 -83.5s-4.66699 -58.834 -14 -84.501
s-22 -47.667 -38 -66s-34.833 -32.5 -56.5 -42.5s-44.834 -15 -69.501 -15c-31.333 0 -59 6.83301 -83 20.5s-44.167 33.167 -60.5 58.5s-28.833 56.166 -37.5 92.499s-13 77.166 -13 122.499c0 56 5.16699 105.5 15.5 148.5s25.166 79.167 44.499 108.5
s42.5 51.5 69.5 66.5s57.167 22.5 90.5 22.5zM139.999 257.004c-0.666992 -4 -0.99707 -8.00195 -0.99707 -12.002v-12c0 -26 3.16699 -50 9.5 -72s15.166 -41 26.499 -57s24.666 -28.667 39.999 -38s31.666 -14 48.999 -14c28.667 0 53.667 12.333 75 37s32 60.667 32 108
c0 25.333 -3.33301 47 -10 65s-15.167 32.833 -25.5 44.5s-22 20.334 -35 26.001s-25.833 8.5 -38.5 8.5c-24 0 -47 -8.16699 -69 -24.5s-39.667 -36.166 -53 -59.499z" />
    <glyph glyph-name="seven" unicode="7" 
d="M432 584c-42 -96 -81.168 -192.333 -117.501 -289s-69.833 -195 -100.5 -295h-79c32 95.333 65.333 189 100 281s71.334 184 110.001 276h-266v66h353v-39z" />
    <glyph glyph-name="eight" unicode="8" 
d="M420 483c0 -30 -8.99902 -58.4971 -26.999 -85.4971s-42 -48.5 -72 -64.5c36 -16.667 65 -40.5 87 -71.5s33 -64.5 33 -100.5c0 -24 -5 -46.5 -15 -67.5s-23.5 -39.167 -40.5 -54.5s-37.167 -27.333 -60.5 -36s-48.333 -13 -75 -13s-51.667 4.33301 -75 13
s-43.5 20.5 -60.5 35.5s-30.333 32.667 -40 53s-14.5 42.166 -14.5 65.499c0 36 11.333 69.667 34 101s53 55.666 91 72.999c-28.667 14.667 -51.667 35.167 -69 61.5s-26 54.5 -26 84.5c0 21.333 4.33301 41.333 13 60s20.667 35 36 49s33 25 53 33s41.667 12 65 12
s45 -3.83301 65 -11.5s37.167 -18.334 51.5 -32.001s25.666 -29.5 33.999 -47.5s12.5 -37 12.5 -57zM237.001 303.003c-30 -12.667 -55 -31.5039 -75 -56.5039s-30 -52.5 -30 -82.5c0 -15.333 3.16699 -29.666 9.5 -42.999s15 -25 26 -35s23.667 -18 38 -24
s29.833 -9 46.5 -9s32.167 2.83301 46.5 8.5s26.833 13.334 37.5 23.001s19 21 25 34s9 27.167 9 42.5c0 30.667 -12 58.834 -36 84.501s-56.333 44.834 -97 57.501zM174.001 428.999c8 -13.333 18.502 -24.833 31.502 -34.5s27.833 -18.834 44.5 -27.501l17 -9
c24.667 13.333 45 31.333 61 54s24 45.667 24 69c0 12 -2.5 23.333 -7.5 34s-12 20.334 -21 29.001s-19.5 15.5 -31.5 20.5s-25 7.5 -39 7.5s-26.833 -2.5 -38.5 -7.5s-21.834 -11.5 -30.501 -19.5s-15.334 -17.333 -20.001 -28s-7 -21.667 -7 -33
c0 -20 5.66699 -38.333 17 -55z" />
    <glyph glyph-name="nine" unicode="9" 
d="M217 -10c-53.333 0 -99.3311 19.0029 -137.998 57.0029l49 53c3.33301 -2 6.16602 -6 8.49902 -12s4.83301 -10 7.5 -12c19.333 -15.333 43 -23 71 -23c50 0 87.333 18.833 112 56.5s38.334 98.834 41.001 183.501c-14.667 -20.667 -33.334 -37 -56.001 -49
s-47 -18 -73 -18c-23.333 0 -45.333 4.83301 -66 14.5s-38.834 23.167 -54.501 40.5s-28 38.166 -37 62.499s-13.5 51.166 -13.5 80.499s4.66699 56.5 14 81.5s22.166 46.667 38.499 65s35.333 32.666 57 42.999s44.834 15.5 69.501 15.5
c60.667 0 107.5 -26.167 140.5 -78.5s49.5 -136.166 49.5 -251.499c0 -52.667 -5.83301 -98.334 -17.5 -137.001s-27.5 -70.5 -47.5 -95.5s-43.333 -43.833 -70 -56.5s-55 -19.334 -85 -20.001zM364.002 363.003c0.666992 5.33301 1.00098 10.5 1.00098 15.5v15.5
c0 26 -3.16699 49.667 -9.5 71s-14.833 39.5 -25.5 54.5s-23 26.667 -37 35s-28.333 12.5 -43 12.5c-34 0 -61.5 -12.667 -82.5 -38s-31.5 -60 -31.5 -104c0 -21.333 3 -40.5 9 -57.5s13.833 -31.5 23.5 -43.5s20.667 -21.167 33 -27.5s25.166 -9.5 38.499 -9.5
c26.667 0 50.5 6.83301 71.5 20.5s38.5 32.167 52.5 55.5z" />
    <glyph glyph-name="colon" unicode=":" 
d="M280 406c12 -12 18 -25.667 18 -41s-6 -28.666 -18 -39.999s-26 -17 -42 -17c-15.333 0 -29 5.66699 -41 17s-18 24.666 -18 39.999c0 16 6 29.667 18 41s25.667 17 41 17s29.333 -5.66699 42 -17zM280 87c12 -12 18.001 -25.668 18.001 -41.001
s-5.83301 -28.666 -17.5 -39.999s-25.834 -17 -42.501 -17s-30.667 5.5 -42 16.5s-17 24.5 -17 40.5s6 29.667 18 41s25.667 17 41 17s29.333 -5.66699 42 -17z" />
    <glyph glyph-name="semicolon" unicode=";" 
d="M306 20c0 -52.667 -35.6689 -115.334 -107.002 -188.001l-34 30c18.667 17.333 34.167 36 46.5 56s18.5 36.333 18.5 49c0 6.66699 -2.66699 12.834 -8 18.501s-11.166 11.167 -17.499 16.5s-12.166 11.5 -17.499 18.5s-8 14.833 -8 23.5c0 16.667 5.5 30.667 16.5 42
s25.167 17 42.5 17s33 -7.66699 47 -23s21 -35.333 21 -60zM279.998 406c12 -12 18 -25.667 18 -41s-6 -28.666 -18 -39.999s-26 -17 -42 -17c-15.333 0 -29 5.66699 -41 17s-18 24.666 -18 39.999c0 16 6 29.667 18 41s25.667 17 41 17s29.333 -5.66699 42 -17z" />
    <glyph glyph-name="less" unicode="&#x3c;" 
d="M458 496l-347 -177l350 -196v-76l-426 249v48l423 223v-71z" />
    <glyph glyph-name="equal" unicode="=" 
d="M45 438h411v-61h-411v61zM45 231h411v-61h-411v61z" />
    <glyph glyph-name="greater" unicode="&#x3e;" 
d="M42 496v71l424 -223v-48l-426 -249v76l349 196z" />
    <glyph glyph-name="question" unicode="?" 
d="M303 85c11.333 -12.667 17 -26.333 17 -41c0 -15.333 -5.83301 -28.666 -17.5 -39.999s-25.5 -17 -41.5 -17s-29.833 5.66699 -41.5 17s-17.5 24.666 -17.5 39.999s5.83301 28.833 17.5 40.5s25.5 17.5 41.5 17.5c15.333 0 29.333 -5.66699 42 -17zM64 561.001
c21.333 32.667 49.3291 58.166 83.9961 76.499s71 27.5 109 27.5c26.667 0 50.834 -4.66699 72.501 -14s40.167 -22 55.5 -38s27.333 -34.667 36 -56s13 -44 13 -68c0 -18.667 -2.33301 -35.167 -7 -49.5s-10.5 -27.166 -17.5 -38.499s-15.167 -21.333 -24.5 -30l-28 -25
l-22 -18c-19.333 -15.333 -31.333 -30.833 -36 -46.5s-7 -34.167 -7 -55.5v-41h-66v41c0 14 0.5 26.667 1.5 38s3.66699 22.5 8 33.5s11 22.667 20 35s21.5 26.5 37.5 42.5c23.333 23.333 39.5 44.333 48.5 63s13.5 37.334 13.5 56.001c0 14.667 -2.66699 28.5 -8 41.5
s-12.666 24.333 -21.999 34s-20.166 17.167 -32.499 22.5s-25.5 8 -39.5 8c-28 0 -54.167 -7.83301 -78.5 -23.5s-44.166 -36.834 -59.499 -63.501z" />
    <glyph glyph-name="at" unicode="@" 
d="M435 30c-43.333 -27.333 -90.0029 -41.001 -140.003 -41.001c-33.333 0 -65.666 6.5 -96.999 19.5s-59.5 32.667 -84.5 59s-45 59.833 -60 100.5s-22.5 89 -22.5 145c0 55.333 7.16699 103.166 21.5 143.499s33 73.5 56 99.5s48.667 45.333 77 58s56.833 19 85.5 19
c28 0 53.833 -4.83301 77.5 -14.5s44.167 -24.834 61.5 -45.501s30.833 -47.167 40.5 -79.5s14.5 -70.833 14.5 -115.5v-203h-60v38c-26 -30.667 -58.333 -46 -97 -46c-19.333 0 -37 3.5 -53 10.5s-30 16.333 -42 28s-21.333 24.834 -28 39.501s-10 30 -10 46
c0 48.667 16.833 86.334 50.5 113.001s87.5 40 161.5 40h15c0 18.667 -3.5 36.167 -10.5 52.5s-16.667 30.666 -29 42.999s-26.666 22 -42.999 29s-33.5 10.5 -51.5 10.5c-21.333 0 -42.666 -5.16699 -63.999 -15.5s-40.5 -26.166 -57.5 -47.499
s-30.833 -48.666 -41.5 -81.999s-16 -73.333 -16 -120c0 -45.333 6.16699 -84.833 18.5 -118.5s28.5 -61.5 48.5 -83.5s42.667 -38.5 68 -49.5s51 -16.5 77 -16.5c38 0 73.667 11 107 33zM404.997 393.999h-17c-52 0 -90.167 -8.33301 -114.5 -25s-36.5 -38 -36.5 -64
c0 -25.333 7.66699 -45.5 23 -60.5s32.333 -22.5 51 -22.5c38 0 63.167 12.5 75.5 37.5s18.5 63.5 18.5 115.5v19z" />
    <glyph glyph-name="A" unicode="A" 
d="M15 0l220 634h8l240 -634h-72l-69 182h-198l-60 -182h-69zM326 236l-88 238l-80 -238h168z" />
    <glyph glyph-name="B" unicode="B" 
d="M48 623l177.001 -0.000976562c36 0 67.167 -3.5 93.5 -10.5s47.5 -17.5 63.5 -31.5s28.333 -30.167 37 -48.5s13 -38.5 13 -60.5c0 -29.333 -8 -57 -24 -83s-38.667 -44.333 -68 -55c17.333 -6 33.166 -14.5 47.499 -25.5s26.833 -23.5 37.5 -37.5
s18.667 -29.167 24 -45.5s8 -33.166 8 -50.499c0 -52.667 -18.667 -95 -56 -127s-96.333 -48 -177 -48h-176v623zM117.001 563.999l0.00292969 -199h98c28 0 51 2.5 69 7.5s32.5 11.833 43.5 20.5s19.167 19.167 24.5 31.5s8.66602 25.5 9.99902 39.5
c-1.33301 14 -4.5 27 -9.5 39s-12.833 22.5 -23.5 31.5s-24.334 16.167 -41.001 21.5s-37.334 8 -62.001 8h-109zM117.004 305.999v-245h119c53.333 0 90.5 11.167 111.5 33.5s32.833 50.5 35.5 84.5c-1.33301 18.667 -5 35.667 -11 51s-15.167 28.833 -27.5 40.5
s-29 20.5 -50 26.5s-46.167 9 -75.5 9h-102z" />
    <glyph glyph-name="C" unicode="C" 
d="M398 482c0 8 -1.00195 14.001 -3.00195 18.001c-13.333 22 -30.666 39.5 -51.999 52.5s-44 19.5 -68 19.5c-22.667 0 -44 -5.83301 -64 -17.5s-37.667 -28.667 -53 -51s-27.333 -49.5 -36 -81.5s-13 -68.333 -13 -109c0 -39.333 4.33301 -75.166 13 -107.499
s20.834 -60 36.501 -83s34 -40.833 55 -53.5s43.5 -19 67.5 -19c24.667 0 48.5 6.83301 71.5 20.5s41.5 32.167 55.5 55.5l52 -34c-10 -16.667 -22 -31.334 -36 -44.001s-28.833 -23.334 -44.5 -32.001s-31.334 -15.167 -47.001 -19.5s-31.5 -6.5 -47.5 -6.5
c-36 0 -67.833 6.16699 -95.5 18.5s-53 31.5 -76 57.5s-40.833 59 -53.5 99s-19 87.667 -19 143c0 61.333 7.33301 112.5 22 153.5s34 73.833 58 98.5s49.5 42.167 76.5 52.5s53.167 15.5 78.5 15.5c20.667 0 40.834 -3 60.501 -9s38 -14.333 55 -25
s32.167 -23.5 45.5 -38.5s24 -31.833 32 -50.5l-67 -33c-2.66699 2 -4 5.33301 -4 10z" />
    <glyph glyph-name="D" unicode="D" 
d="M54 623l144.998 0.000976562c53.333 0 94.833 -7.33301 124.5 -22s54.834 -35.667 75.501 -63s36 -60.333 46 -99s15 -82.334 15 -131.001c0 -48 -6 -91 -18 -129s-28.5 -70.5 -49.5 -97.5s-48.167 -47.5 -81.5 -61.5s-74.666 -21 -123.999 -21h-133v624z
M119.998 564.001l0.000976562 -510h64c71.333 0 123.5 21.5 156.5 64.5s49.5 104.833 49.5 185.5c-0.666992 81.333 -15.834 145 -45.501 191s-79.5 69 -149.5 69h-75z" />
    <glyph glyph-name="E" unicode="E" 
d="M59 624h382v-62h-316v-205h261v-64h-261v-231h313v-62h-379v624z" />
    <glyph glyph-name="F" unicode="F" 
d="M78 624h359v-61h-289v-196h233v-61h-233v-306h-70v624z" />
    <glyph glyph-name="G" unicode="G" 
d="M458 525l-49 -50.002c-4 2.66699 -8.33301 9 -13 19c-10 22 -25.5 39.833 -46.5 53.5s-45.5 20.5 -73.5 20.5c-19.333 0 -39.166 -4 -59.499 -12s-38.833 -21.667 -55.5 -41s-30.167 -44.833 -40.5 -76.5s-15.5 -71.5 -15.5 -119.5
c0 -43.333 4.33301 -81.666 13 -114.999s20.667 -61.166 36 -83.499s33.5 -39.333 54.5 -51s43.833 -17.5 68.5 -17.5c43.333 0 82.666 12.667 117.999 38v148h-113v61h178v-244c-59.333 -43.333 -120.333 -65 -183 -65c-37.333 0 -70.833 7.5 -100.5 22.5
s-55 36.167 -76 63.5s-37 60.333 -48 99s-16.5 81.667 -16.5 129c0 65.333 8.16699 120 24.5 164s37.5 77.5 63.5 100.5s52.5 38.833 79.5 47.5s51.5 13 73.5 13c38 0 73.333 -9.5 106 -28.5s57.667 -44.167 75 -75.5z" />
    <glyph glyph-name="H" unicode="H" 
d="M54 623l78.001 -0.000976562c0.666992 -0.666992 1 -1.66699 1 -3c0 -2 -0.833008 -4.66699 -2.5 -8s-2.83398 -7.66602 -3.50098 -12.999v-243h244v267h76c0.666992 -0.666992 1 -1.66699 1 -3c0 -2.66699 -1 -5.5 -3 -8.5s-3.33301 -6.5 -4 -10.5v-602h-71v298h-243
v-297h-73v623z" />
    <glyph glyph-name="I" unicode="I" 
d="M88 623h309v-59h-123v-507h129v-58h-322v59h123v506h-116v59z" />
    <glyph glyph-name="J" unicode="J" 
d="M172 623h285.002v-59h-96v-355c0 -40.667 -3.83301 -74.667 -11.5 -102s-19.834 -50 -36.501 -68s-34.667 -30.833 -54 -38.5s-40.333 -11.5 -63 -11.5c-59.333 0 -108.333 23 -147 69l47 57c2 -2 3.16699 -5.16699 3.5 -9.5s1.5 -7.83301 3.5 -10.5l12 -12
c2.66699 -3.33301 7 -6.83301 13 -10.5s12.833 -7 20.5 -10s15.5 -5.66699 23.5 -8s16 -3.5 24 -3.5c33.333 0 57.666 11.667 72.999 35s23 64 23 122v356h-120v59z" />
    <glyph glyph-name="K" unicode="K" 
d="M42 624h84c0 -4 -1.5 -8.16699 -4.5 -12.5s-4.5 -8.83301 -4.5 -13.5v-262l260 292c14.667 -3.33301 32 -5 52 -5h26l-236 -269l252 -354l-90 -4l-215 316l-49 -54v-258h-75v624z" />
    <glyph glyph-name="L" unicode="L" 
d="M66 623h82c0 -4.66699 -1.5 -10 -4.5 -16s-4.5 -12 -4.5 -18v-528h300v-61h-373v623z" />
    <glyph glyph-name="M" unicode="M" 
d="M41 623h55l154 -305l157 306h53v-624h-66v470l-135 -251h-27l-126 248v-467h-65v623z" />
    <glyph glyph-name="N" unicode="N" 
d="M50 0v623.001h68l262 -462v463h74c0 -4 -1.16699 -8.33301 -3.5 -13s-3.5 -9.33398 -3.5 -14.001v-597h-55l-275 490v-490h-67z" />
    <glyph glyph-name="O" unicode="O" 
d="M254 -10c-34 0 -64.8271 7.83496 -92.4941 23.502s-51.334 37.667 -71.001 66s-34.834 62.333 -45.501 102s-16 83.5 -16 131.5s5.5 91.667 16.5 131s26.5 72.666 46.5 99.999s44 48.5 72 63.5s58.667 22.5 92 22.5c29.333 0 56.666 -6.33301 81.999 -19
s48.5 -31.834 69.5 -57.501s36.833 -58.5 47.5 -98.5s16 -87.667 16 -143c0 -60 -6.33301 -110.5 -19 -151.5s-29.334 -74.167 -50.001 -99.5s-43.834 -43.5 -69.501 -54.5s-51.834 -16.5 -78.501 -16.5zM150.006 115.002c31.333 -37.333 66 -56.0039 104 -56.0039
c18 0 35.667 3.83301 53 11.5s33.166 21.167 47.499 40.5s25.666 45.333 33.999 78s12.5 74.334 12.5 125.001c0 49.333 -4.66699 89.833 -14 121.5s-21.166 56.834 -35.499 75.501s-29.333 32.167 -45 40.5s-32.5 12.5 -50.5 12.5c-20.667 0.666992 -39.667 -3 -57 -11
s-33.666 -21 -48.999 -39s-27.833 -42.667 -37.5 -74s-14.5 -71.666 -14.5 -120.999c0 -46 4.83301 -86.667 14.5 -122s22.167 -62.666 37.5 -81.999z" />
    <glyph glyph-name="P" unicode="P" 
d="M59 623l199.999 -0.000976562c34.667 0 64.167 -4.5 88.5 -13.5s44.333 -21.667 60 -38s27.334 -35.166 35.001 -56.499s12.167 -44 13.5 -68c-1.33301 -24 -5.83301 -46.5 -13.5 -67.5s-19 -39.167 -34 -54.5s-34.333 -27.5 -58 -36.5s-52.5 -13.5 -86.5 -13.5h-133
v-275h-72v623zM130.999 556.999v-220.001h125c45.333 0 77.5 9.83301 96.5 29.5s29.5 45.834 31.5 78.501c-1.33301 15.333 -4.5 29.833 -9.5 43.5s-12.5 25.5 -22.5 35.5s-22.833 18 -38.5 24s-34.5 9 -56.5 9h-126z" />
    <glyph glyph-name="Q" unicode="Q" 
d="M149 514c-34.667 -39.333 -52.0059 -103.001 -52.0059 -191.001c0 -40 3.5 -76.333 10.5 -109s17.333 -60.667 31 -84s30.667 -41.666 51 -54.999s42.5 -20 66.5 -20c16.667 0 33.834 4.16699 51.501 12.5s33.834 22 48.501 41s26.334 43.667 35.001 74s13 67.5 13 111.5
c0 56 -4.66699 101.667 -14 137s-22.166 63 -38.499 83s-33.166 33.833 -50.499 41.5s-34 11.5 -50 11.5c-20 0 -38.667 -5 -56 -15s-32.666 -22.667 -45.999 -38zM470.994 310.999c0 -92 -15.501 -164.67 -46.501 -218.003s-76.833 -86.666 -137.5 -99.999
c1.33301 -22 7 -40 17 -54s29 -21 57 -21c3.33301 0 8.66602 0.333008 15.999 1s15.333 1.16699 24 1.5s16.834 0.833008 24.501 1.5s13.167 1 16.5 1l-2 -68h-39c-32.667 0 -60.167 1.66699 -82.5 5s-40.333 11 -54 23s-23.5 26.833 -29.5 44.5s-9 39.5 -9 65.5
c-25.333 3.33301 -49.666 12.166 -72.999 26.499s-44.333 34.5 -63 60.5s-33.5 57.833 -44.5 95.5s-16.5 81.834 -16.5 132.501c0 62.667 7.16699 114.667 21.5 156s32.5 74 54.5 98s46 41.333 72 52s50.667 16 74 16c28.667 0 56.167 -6 82.5 -18s50.333 -31.167 72 -57.5
s38 -59.166 49 -98.499s16.5 -87.666 16.5 -144.999z" />
    <glyph glyph-name="R" unicode="R" 
d="M56 623l184.001 -0.000976562c73.333 0 126.166 -16.333 158.499 -49s48.5 -75.667 48.5 -129c0 -18 -3 -35.833 -9 -53.5s-14.5 -34.167 -25.5 -49.5s-24.333 -28.666 -40 -39.999s-33.167 -19.333 -52.5 -24l144 -278h-78l-138 275h-121v-275h-71v623zM127.001 556.999
v-220.001h121c44.667 0 77 9.83301 97 29.5s30 45.834 30 78.501c0 16 -2.66699 30.667 -8 44s-12.833 25 -22.5 35s-22.5 18 -38.5 24s-35.333 9 -58 9h-121z" />
    <glyph glyph-name="S" unicode="S" 
d="M435 549l-44.001 -59.9932c-3.33301 1.33301 -5.16602 4.16602 -5.49902 8.49902s-1.16602 7.5 -2.49902 9.5c-12.667 18.667 -29.834 33.667 -51.501 45s-48.5 17 -80.5 17c-30.667 0 -56.167 -9 -76.5 -27s-30.5 -39.333 -30.5 -64c0 -14.667 2.5 -27.334 7.5 -38.001
s12.667 -21 23 -31s25.5 -20.167 45.5 -30.5s46 -21.833 78 -34.5c30.667 -12.667 56 -25.167 76 -37.5s36 -25.5 48 -39.5s20.5 -28.833 25.5 -44.5s7.5 -33.167 7.5 -52.5c0 -21.333 -4 -42.833 -12 -64.5s-20.5 -41 -37.5 -58s-38.5 -30.833 -64.5 -41.5
s-57.333 -16 -94 -16c-80.667 0 -145.667 26.667 -195 80l41 72c3.33301 -2 5 -5.33301 5 -10s1 -8.33398 3 -11.001c15.333 -19.333 36 -35.5 62 -48.5s57.333 -19.5 94 -19.5c18.667 0 35.834 3.16699 51.501 9.5s29.167 14.666 40.5 24.999s20.333 22.666 27 36.999
s10 29.5 10 45.5c0 12.667 -2.16699 24.167 -6.5 34.5s-11.5 20 -21.5 29s-24.167 18 -42.5 27s-42.5 19.5 -72.5 31.5c-32.667 12.667 -59.834 25.5 -81.501 38.5s-39.167 26.167 -52.5 39.5s-22.833 27.666 -28.5 42.999s-8.5 32 -8.5 50c0 22.667 4.83301 44 14.5 64
s23 37.5 40 52.5s37.167 26.667 60.5 35s48.333 12.5 75 12.5c34 0 66 -6.83301 96 -20.5s55.667 -32.834 77 -57.501z" />
    <glyph glyph-name="T" unicode="T" 
d="M31 624h432v-63h-184v-561h-71v561h-177v63z" />
    <glyph glyph-name="U" unicode="U" 
d="M50 623l79.0049 0.000976562c0.666992 0 1 -0.666992 1 -2c0 -2.66699 -1.5 -6.5 -4.5 -11.5s-5.16699 -11.167 -6.5 -18.5v-377c0 -34.667 3.33301 -61.5 10 -80.5s16 -34.667 28 -47s26.167 -21.5 42.5 -27.5s33.833 -9.66699 52.5 -11
c18.667 1.33301 36.167 4.66602 52.5 9.99902s30.666 14.5 42.999 27.5s22 29.167 29 48.5s10.5 47 10.5 83v406h67v-405c0 -40.667 -4.5 -75 -13.5 -103s-22.833 -51.333 -41.5 -70s-40.334 -32.667 -65.001 -42s-52.334 -14 -83.001 -14c-30 0 -57.333 4.66699 -82 14
s-45.834 23 -63.501 41s-31.334 40 -41.001 66s-14.5 61 -14.5 105v408z" />
    <glyph glyph-name="V" unicode="V" 
d="M25 624h73l160 -479l151 478h69l-209 -627h-32z" />
    <glyph glyph-name="W" unicode="W" 
d="M17 623h65l67 -421l100 375h22l101 -377l57 423h59l-99 -627h-27l-107 411l-109 -411h-29z" />
    <glyph glyph-name="X" unicode="X" 
d="M379 624h70l-158 -305l177 -319h-79l-138 247l-134 -247h-76l170 318l-167 306h75l131 -237z" />
    <glyph glyph-name="Y" unicode="Y" 
d="M28 623h80l153 -302l138 302h74l-177 -377v-246h-76v246z" />
    <glyph glyph-name="Z" unicode="Z" 
d="M62 623h384.998v-49l-309 -512h294c4.66699 0 9.83398 1 15.501 3s10.834 3 15.501 3v-68h-413v49l314 511h-302v63z" />
    <glyph glyph-name="bracketleft" unicode="[" 
d="M131 670h286v-60h-222v-642h223v-57h-287v759z" />
    <glyph glyph-name="backslash" unicode="\" 
d="M437 -13l-59 -29l-314 676l59 31z" />
    <glyph glyph-name="bracketright" unicode="]" 
d="M369 670v-759h-286v57h223v642h-222v60h285z" />
    <glyph glyph-name="asciicircum" unicode="^" 
d="M93 367l153 256h22l135 -255l-53 -25l-97 175l-110 -175z" />
    <glyph glyph-name="underscore" unicode="_" 
d="M35 -19h431v-61h-431v61z" />
    <glyph glyph-name="grave" unicode="`" 
d="M164 579l-24.999 67.002l52 25l26 -66c8 -20.667 17.5 -36.834 28.5 -48.501s20.833 -21.667 29.5 -30s16.167 -17 22.5 -26s9.5 -18.833 9.5 -29.5c-0.666992 -13.333 -5.33398 -22.833 -14.001 -28.5s-16.667 -8.5 -24 -8.5s-14 1.16699 -20 3.5
s-13.5 7.66602 -22.5 15.999s-18.5 22.333 -28.5 42s-21.333 47.5 -34 83.5z" />
    <glyph glyph-name="a" unicode="a" 
d="M91 403c40.667 42.667 95 64 163 64c56 0 100.167 -14.167 132.5 -42.5s48.5 -75.5 48.5 -141.5v-283h-68v50c-48.667 -40.667 -103.334 -61 -164.001 -61c-24 0 -45.5 3.66699 -64.5 11s-35.167 17 -48.5 29s-23.5 25.667 -30.5 41s-10.5 30.666 -10.5 45.999
c0 46 19.833 82.333 59.5 109s96.834 41.334 171.501 44.001h86v17c0 45.333 -9.5 77 -28.5 95s-48.5 27 -88.5 27c-49.333 0 -90.333 -17 -123 -51zM369 214l-17.001 -0.000976562c-9.33301 0 -18.166 0.166992 -26.499 0.5s-16.5 0.5 -24.5 0.5
c-36.667 0 -66.667 -2.5 -90 -7.5s-41.666 -11.833 -54.999 -20.5s-22.5 -18.5 -27.5 -29.5s-7.5 -22.833 -7.5 -35.5c0 -21.333 9.33301 -39.666 28 -54.999s41.667 -23 69 -23c20 0 38 3.16699 54 9.5s30 14 42 23s21.667 18.333 29 28s12.666 18.167 15.999 25.5
c6.66699 13.333 10 31.333 10 54v30z" />
    <glyph glyph-name="b" unicode="b" 
d="M60 665l83.999 -0.00292969v-2c0 -3.33301 -1.83301 -6.5 -5.5 -9.5s-5.5 -6.5 -5.5 -10.5v-256c14.667 24.667 34.5 44.334 59.5 59.001s50.5 22 76.5 22c25.333 0 49.333 -4.83301 72 -14.5s42.667 -24.334 60 -44.001s31 -44.167 41 -73.5s15 -63.666 15 -102.999
c0 -41.333 -5.5 -77.166 -16.5 -107.499s-25.5 -55.666 -43.5 -75.999s-38.333 -35.5 -61 -45.5s-46 -15 -70 -15c-28 0 -53.667 6.33301 -77 19s-42.666 30 -57.999 52l-25 -60h-46v665zM184.999 69.9971c12.667 -6.66699 24.002 -11.167 34.002 -13.5s19.333 -3.5 28 -3.5
c13.333 0 28 2.5 44 7.5s30.833 13.833 44.5 26.5s25 29.667 34 51s13.5 48.333 13.5 81c0 60.667 -12.333 107 -37 139s-60.334 48 -107.001 48c-16.667 0 -34.334 -6 -53.001 -18s-32.334 -28 -41.001 -48c-8 -20 -12 -52.667 -12 -98c0 -28 0.666992 -51.667 2 -71
s4 -35.5 8 -48.5s9.33301 -23.5 16 -31.5s15.334 -15 26.001 -21z" />
    <glyph glyph-name="c" unicode="c" 
d="M457 381l-50.9971 -59c-3.33301 2 -4.83301 4.16699 -4.5 6.5s0 5.5 -1 9.5s-3.5 9 -7.5 15s-12 14 -24 24c-22.667 18.667 -53.667 28 -93 28c-19.333 0 -37.833 -4 -55.5 -12s-33.167 -19.5 -46.5 -34.5s-24 -33 -32 -54s-12 -44.5 -12 -70.5s4 -50 12 -72
s19 -41 33 -57s30.667 -28.5 50 -37.5s40.666 -13.5 63.999 -13.5c46 0 85.667 18.667 119 56l42 -49c-45.333 -48 -101 -72 -167 -72c-32.667 0 -62.834 6 -90.501 18s-51.667 28.667 -72 50s-36.166 46.5 -47.499 75.5s-17 60.833 -17 95.5c0 34 5.66699 65.667 17 95
s27.166 54.5 47.499 75.5s44.666 37.5 72.999 49.5s59.166 18 92.499 18c36 0 68.833 -7.5 98.5 -22.5s53.834 -35.833 72.501 -62.5z" />
    <glyph glyph-name="d" unicode="d" 
d="M371 390v275.001h77c0 -4 -1.66699 -8.5 -5 -13.5s-5 -9.83301 -5 -14.5l1 -595c0 -16 1.66699 -30 5 -42h-72c-2.66699 8 -4 19.333 -4 34v39c-14.667 -25.333 -34.667 -45.5 -60 -60.5s-51 -22.5 -77 -22.5c-25.333 0 -49.166 5 -71.499 15s-42 25 -59 45
s-30.5 45.167 -40.5 75.5s-15 66.166 -15 107.499c0 42 5.66699 77.833 17 107.5s26.166 54 44.499 73s38.833 33 61.5 42s45.667 13.5 69 13.5c32 0 59.5 -7.16699 82.5 -21.5s40.167 -33.5 51.5 -57.5zM158 376.001c-28.667 -26 -43.001 -70 -43.001 -132
c0 -57.333 11 -103.5 33 -138.5s54.333 -52.5 97 -52.5c10 0 20.667 1.83301 32 5.5s22 9.16699 32 16.5s19 16 27 26s14 21.333 18 34c7.33301 24 11 56 11 96c0 25.333 -1 46.5 -3 63.5s-5.16699 31.5 -9.5 43.5s-9.83301 21.833 -16.5 29.5s-15 14.5 -25 20.5
c-12 7.33301 -23.167 12.833 -33.5 16.5s-20.166 5.5 -29.499 5.5c-19.333 0 -35.833 -2.66699 -49.5 -8s-27.167 -14 -40.5 -26z" />
    <glyph glyph-name="e" unicode="e" 
d="M259 468c24 0 47.334 -4.33301 70.001 -13s42.5 -21.834 59.5 -39.501s30.667 -40.167 41 -67.5s15.5 -59.666 15.5 -96.999c0 -5.33301 -0.166992 -10.833 -0.5 -16.5s-0.833008 -11.167 -1.5 -16.5h-325c1.33301 -32 6.83301 -58.833 16.5 -80.5
s21.834 -39.167 36.501 -52.5s31 -22.833 49 -28.5s36 -8.5 54 -8.5c47.333 0 86.666 17 117.999 51l40 -39c-38.667 -46.667 -92 -70 -160 -70c-33.333 0 -63.833 5.16699 -91.5 15.5s-51.167 25.5 -70.5 45.5s-34.333 44.833 -45 74.5s-16 63.5 -16 101.5
c0 38.667 5.5 73 16.5 103s26 55.167 45 75.5s41.167 35.833 66.5 46.5s52.666 16 81.999 16zM121.001 274l250.999 0.000976562c0 2.66699 0.166992 5.16699 0.5 7.5s0.5 5.16602 0.5 8.49902c0 16.667 -3.16699 32.5 -9.5 47.5s-14.833 28 -25.5 39
s-23.167 19.833 -37.5 26.5s-29.833 10 -46.5 10c-31.333 0 -59.666 -11.167 -84.999 -33.5s-41.333 -57.5 -48 -105.5z" />
    <glyph glyph-name="f" unicode="f" 
d="M343 671c58 0 104.669 -21 140.002 -63l-33 -66c-5.33301 0 -8 2.66699 -8 8s-0.666992 9.33301 -2 12c-10.667 15.333 -24.834 27.833 -42.501 37.5s-36.834 14.5 -57.501 14.5c-17.333 0 -32.333 -2.5 -45 -7.5s-24 -13.167 -34 -24.5s-17.5 -26.666 -22.5 -45.999
s-7.5 -43 -7.5 -71v-35h150v-57h-150v-373h-69v373h-99v57h99v45c0 35.333 4.5 65.5 13.5 90.5s22 45.167 39 60.5s36.333 26.666 58 33.999s45.167 11 70.5 11z" />
    <glyph glyph-name="g" unicode="g" 
d="M155 385c-10 -10 -17.334 -20.9971 -22.001 -32.9971s-7 -24.667 -7 -38s2.66699 -26.166 8 -38.499s12.5 -23 21.5 -32s19.667 -16.167 32 -21.5s25.166 -8 38.499 -8c14 0 27 2.66699 39 8s22.667 12.666 32 21.999s16.666 20 21.999 32s8 24.667 8 38
s-2.66699 26.166 -8 38.499s-12.666 23.166 -21.999 32.499s-20.166 16.666 -32.499 21.999s-25.166 8 -38.499 8c-27.333 0 -51 -10 -71 -30zM338.999 428.003c32 27.333 69.998 40.9951 113.998 40.9951h13l9 -59c-4.66699 0.666992 -9.16699 1.16699 -13.5 1.5
s-8.83301 0.5 -13.5 0.5c-29.333 0 -55.666 -7.33301 -78.999 -22c15.333 -23.333 23 -49 23 -77c0 -21.333 -4.33301 -41.5 -13 -60.5s-20.5 -35.667 -35.5 -50s-32.5 -25.666 -52.5 -33.999s-41.333 -12.5 -64 -12.5c-18.667 0 -38 3.66699 -58 11
c-21.333 -20.667 -32 -38 -32 -52c0 -11.333 6.5 -20.166 19.5 -26.499s30.833 -9.5 53.5 -9.5c12.667 0 25.5 0.5 38.5 1.5s25.167 1.5 36.5 1.5c30 0 55.833 -2.83301 77.5 -8.5s39.167 -13.667 52.5 -24s23.333 -22.5 30 -36.5s10 -29 10 -45
c0 -18 -4.33301 -35.5 -13 -52.5s-21.667 -32 -39 -45s-39.166 -23.333 -65.499 -31s-57.166 -11.5 -92.499 -11.5c-36.667 0 -68.167 2.83301 -94.5 8.5s-47.5 13.5 -63.5 23.5s-28.167 21.5 -36.5 34.5s-12.5 26.833 -12.5 41.5c0 36 25 69.667 75 101
c-24.667 12.667 -37 33.667 -37 63c0 28.667 17.333 57.334 52 86.001c-21.333 14 -38 32 -50 54s-18 45.333 -18 70c0 22.667 4.66699 43.834 14 63.501s21.833 36.834 37.5 51.501s33.667 26.167 54 34.5s41.166 12.5 62.499 12.5c44.667 0 81.667 -14.667 111 -44z
M160.997 23.998c-38 -21.333 -57.0029 -44.667 -57.0029 -70c0 -13.333 3.83301 -24.5 11.5 -33.5s18 -16.333 31 -22s28.333 -9.83398 46 -12.501s36.167 -4 55.5 -4c40.667 0 74.334 7.33301 101.001 22s40 34.334 40 59.001c-1.33301 18 -8.83301 32 -22.5 42
s-35.167 15 -64.5 15c-3.33301 0 -6.66602 -0.166992 -9.99902 -0.5s-6.66602 -0.5 -9.99902 -0.5c-25.333 0 -48 0.5 -68 1.5s-37.667 2.16699 -53 3.5z" />
    <glyph glyph-name="h" unicode="h" 
d="M70 0l-0.00390625 665h83c0 -0.666992 0.166992 -1 0.5 -1s0.5 -0.333008 0.5 -1c0 -2 -1.5 -4.83301 -4.5 -8.5s-5.16699 -8.16699 -6.5 -13.5v-265c18 28 40.5 50.333 67.5 67s54.5 25 82.5 25c20.667 0 39.5 -3.5 56.5 -10.5s31.833 -18.167 44.5 -33.5
s22.334 -35 29.001 -59s10 -53.333 10 -88v-277h-71v275c0 48 -8.16699 81.667 -24.5 101s-36.166 29 -59.499 29c-15.333 0 -30.666 -3.33301 -45.999 -10s-30.166 -16 -44.499 -28s-25.333 -26.667 -33 -44s-11.5 -37.333 -11.5 -60v-263h-73z" />
    <glyph glyph-name="i" unicode="i" 
d="M106 457h183v-399h107v-58h-296v58h117v341h-111v58zM218 641c10 10 22 15 36 15s26.167 -5.16699 36.5 -15.5s15.5 -22.5 15.5 -36.5s-5.16699 -26 -15.5 -36s-22.5 -15 -36.5 -15s-26 5 -36 15s-15 22 -15 36c0 14.667 5 27 15 37z" />
    <glyph glyph-name="j" unicode="j" 
d="M126 457l243 -0.00195312v-435c0 -34.667 -4.66699 -64.167 -14 -88.5s-22.166 -44.166 -38.499 -59.499s-35.5 -26.833 -57.5 -34.5s-45.667 -12.167 -71 -13.5c-58.667 0 -105.334 21.333 -140.001 64l47 62c3.33301 -3.33301 5.16602 -6.66602 5.49902 -9.99902
s1.5 -7 3.5 -11s6 -8.5 12 -13.5s16 -11.167 30 -18.5c14.667 -7.33301 30.334 -11 47.001 -11c30 0 54.667 10.167 74 30.5s29 53.5 29 99.5v380h-170v59zM296 640.998c10 10 22.333 15 37 15c14 0 26.167 -5 36.5 -15s15.5 -22.333 15.5 -37c0 -14 -5.16699 -26 -15.5 -36
s-22.5 -15 -36.5 -15s-26.167 5 -36.5 15s-15.5 22 -15.5 36c0 14.667 5 27 15 37z" />
    <glyph glyph-name="k" unicode="k" 
d="M66 665h82c0 -4 -1.5 -8.33301 -4.5 -13s-4.5 -9 -4.5 -13v-392l229 212c15.333 -3.33301 33 -5 53 -5h26l-192 -181l224 -273l-93 -4l-187 233l-60 -56v-173h-73v665z" />
    <glyph glyph-name="l" unicode="l" 
d="M85 665h202v-607h134v-58h-342v58h135v549h-129v58z" />
    <glyph glyph-name="m" unicode="m" 
d="M38 0l-0.000976562 457.001h66v-45c10.667 16.667 24.334 30.167 41.001 40.5s34.334 15.5 53.001 15.5c19.333 0 36.5 -6.33301 51.5 -19s24.5 -28.667 28.5 -48c8.66699 20 22.334 36.167 41.001 48.5s39 18.5 61 18.5c31.333 0 54.333 -11.167 69 -33.5
s21.334 -50.166 20.001 -83.499v-351h-66v324c0 20.667 -1 37 -3 49s-5.33301 21.167 -10 27.5s-9.33398 10.333 -14.001 12s-10.667 2.5 -18 2.5c-8.66699 0 -17.334 -3.5 -26.001 -10.5s-16.334 -15.833 -23.001 -26.5s-12 -22.834 -16 -36.501s-6 -26.834 -6 -39.501
v-302h-67v318c0 38 -3.5 63.333 -10.5 76s-19.167 19 -36.5 19c-16 0 -31.5 -9.5 -46.5 -28.5s-22.5 -45.5 -22.5 -79.5v-305h-66z" />
    <glyph glyph-name="n" unicode="n" 
d="M68 0l-0.000976562 456.999h74v-81c17.333 28 39.5 50.333 66.5 67s54.5 25 82.5 25c20 0 38.667 -3.5 56 -10.5s32.333 -18.167 45 -33.5s22.5 -35 29.5 -59s10.5 -53.333 10.5 -88v-277h-71v275c0 48 -8.16699 81.667 -24.5 101s-36.166 29 -59.499 29
c-15.333 0 -31 -3.33301 -47 -10s-30.5 -16.167 -43.5 -28.5s-23.667 -27.166 -32 -44.499s-12.5 -37 -12.5 -59v-263h-74z" />
    <glyph glyph-name="o" unicode="o" 
d="M254 467c28 0 54.499 -5.49902 79.499 -16.499s46.833 -26.833 65.5 -47.5s33.5 -45.834 44.5 -75.501s16.5 -62.834 16.5 -99.501c0 -37.333 -5.33301 -70.666 -16 -99.999s-25.334 -54.5 -44.001 -75.5s-40.667 -37 -66 -48s-52.333 -16.5 -81 -16.5
c-29.333 0 -56.833 6 -82.5 18s-48.167 28.5 -67.5 49.5s-34.666 46.167 -45.999 75.5s-17 61 -17 95s5.83301 66 17.5 96s27.334 55.5 47.001 76.5s42.5 37.667 68.5 50s53 18.5 81 18.5zM387.999 226.001c0 28.667 -3.83301 54.168 -11.5 76.501
s-17.834 41.166 -30.501 56.499s-27.167 27 -43.5 35s-33.5 12 -51.5 12s-35.167 -4 -51.5 -12s-30.666 -19.667 -42.999 -35s-22.166 -33.833 -29.499 -55.5s-11 -46.167 -11 -73.5c0 -26.667 3.66699 -51 11 -73s17.166 -41 29.499 -57s26.833 -28.333 43.5 -37
s34.334 -13 53.001 -13s36.167 3.83301 52.5 11.5s30.666 19 42.999 34s22 33.5 29 55.5s10.5 47 10.5 75z" />
    <glyph glyph-name="p" unicode="p" 
d="M60 457l73 -0.00292969v-70c15.333 24.667 35.833 44.167 61.5 58.5s51.5 21.5 77.5 21.5c25.333 0 49.5 -4.83301 72.5 -14.5s43.333 -24.167 61 -43.5s31.667 -43.666 42 -72.999s15.5 -64 15.5 -104s-5.5 -75.333 -16.5 -106s-25.5 -56.167 -43.5 -76.5
s-38.5 -35.666 -61.5 -45.999s-46.5 -15.5 -70.5 -15.5c-28 0 -54 6.33301 -78 19s-43.667 30.334 -59 53.001v-227h-74v624zM133 189.997c1.33301 -49.333 12.667 -84.666 34 -105.999s47.666 -32 78.999 -32c16.667 0 33.334 2.66699 50.001 8s32 14.5 46 27.5
s25.167 30.167 33.5 51.5s12.5 48 12.5 80c0 58.667 -12.167 104.167 -36.5 136.5s-58.5 49.166 -102.5 50.499c-13.333 0 -27 -2.33301 -41 -7s-26.5 -12.667 -37.5 -24s-20 -26.5 -27 -45.5s-10.5 -42.5 -10.5 -70.5v-69z" />
    <glyph glyph-name="q" unicode="q" 
d="M374 390l0.00195312 67h68v-624h-72v240c-14 -25.333 -33.667 -45.5 -59 -60.5s-52.333 -22.5 -81 -22.5c-26 0 -50.5 5.83301 -73.5 17.5s-43 28.167 -60 49.5s-30.333 47 -40 77s-14.5 63.333 -14.5 100s5.33301 69.5 16 98.5s25.167 53.667 43.5 74
s39.666 35.833 63.999 46.5s50.166 16 77.499 16c56 0 97.333 -22.333 124 -67c4.66699 -6.66699 7 -10.667 7 -12zM243.002 410c-17.333 0 -33.667 -3.49902 -49 -10.499s-28.833 -17.5 -40.5 -31.5s-21 -31.833 -28 -53.5s-10.5 -46.834 -10.5 -75.501
c0 -29.333 3.5 -55.5 10.5 -78.5s16.5 -42.5 28.5 -58.5s25.833 -28.167 41.5 -36.5s32.5 -12.5 50.5 -12.5c38 0 67.833 14.333 89.5 43s32.5 75 32.5 139c0 65.333 -11.333 110.833 -34 136.5s-53 38.5 -91 38.5z" />
    <glyph glyph-name="r" unicode="r" 
d="M99 457l74.999 -0.00195312l-2 -88c14 32 36.167 56.5 66.5 73.5s62.833 25.5 97.5 25.5c49.333 0 90 -16.667 122 -50l-33 -69c-7.33301 10 -14 18.333 -20 25s-12.5 12.334 -19.5 17.001s-14.667 8.33398 -23 11.001s-18.5 4 -30.5 4c-22 0 -42.667 -5.16699 -62 -15.5
s-36.166 -24 -50.499 -41s-25.833 -36.5 -34.5 -58.5s-13 -45 -13 -69v-223h-73v458z" />
    <glyph glyph-name="s" unicode="s" 
d="M432 396l-42.0029 -63.001c-3.33301 0.666992 -5 3.33398 -5 8.00098s-0.666992 8 -2 10c-12 15.333 -29 29.5 -51 42.5s-47 19.5 -75 19.5c-12.667 0 -24.834 -1.5 -36.501 -4.5s-22 -7.16699 -31 -12.5s-16.167 -12.166 -21.5 -20.499s-8 -17.833 -8 -28.5
c0 -8 2 -15.167 6 -21.5s10.333 -12.5 19 -18.5s20.834 -12 36.501 -18s36.167 -12.667 61.5 -20c57.333 -15.333 97.833 -33.5 121.5 -54.5s35.5 -46.833 35.5 -77.5c0 -20 -4.33301 -39 -13 -57s-21.334 -33.667 -38.001 -47s-36.667 -23.833 -60 -31.5
s-49.666 -11.5 -78.999 -11.5c-76.667 0 -141 24 -193 72l41 72c2 -2 3.33301 -5.16699 4 -9.5s3 -9.5 7 -15.5s11.333 -12.833 22 -20.5s27 -16.167 49 -25.5c10 -4.66699 21.333 -8 34 -10s25.334 -3 38.001 -3c13.333 0 26.833 1.66699 40.5 5s26 8.16602 37 14.499
s19.833 14 26.5 23s10 19.167 10 30.5c0 17.333 -8 32 -24 44s-45.333 24.333 -88 37c-29.333 8.66699 -48.666 14.667 -57.999 18c-24 9.33301 -41.333 17.5 -52 24.5s-20.334 15.333 -29.001 25s-15.667 20.667 -21 33s-8 25.833 -8 40.5c0 16 4.33301 31.333 13 46
s20.834 27.667 36.501 39s34.334 20.5 56.001 27.5s45.167 10.5 70.5 10.5c70 0 126.667 -24 170 -72z" />
    <glyph glyph-name="t" unicode="t" 
d="M188 579l79 13.002c0 -6 -0.833008 -11.333 -2.5 -16s-2.83398 -8.33398 -3.50098 -11.001l-12 -108h150v-59h-150c-6 -59.333 -9 -115 -9 -167c0 -32 0.666992 -59 2 -81s4.83301 -39.333 10.5 -52s13.834 -22.5 24.501 -29.5s25 -10.5 43 -10.5
c30.667 0 64.667 13.667 102 41l22 -57c-46 -34 -93.333 -51 -142 -51c-48 0 -83 14.5 -105 43.5s-32 76.167 -30 141.5c0 24 0.666992 54.667 2 92s4 80.666 8 129.999h-107v59h110z" />
    <glyph glyph-name="u" unicode="u" 
d="M63 457l71.999 0.000976562v-255c0 -29.333 2.66699 -53.833 8 -73.5s12.833 -35.5 22.5 -47.5s20.667 -20.667 33 -26s25.833 -8 40.5 -8c16 1.33301 31.333 5.33301 46 12s27.834 16.167 39.501 28.5s20.834 28.166 27.501 47.499s10 42.666 10 69.999v252h73v-416
c0 -15.333 1.66699 -29 5 -41h-76c-0.666992 4.66699 -1.33398 9.83398 -2.00098 15.501s-0.666992 12.167 0 19.5l1 35c-14.667 -25.333 -34.5 -45.166 -59.5 -59.499s-52.5 -21.5 -82.5 -21.5c-23.333 0 -44.333 4.16699 -63 12.5s-35.5 21.166 -50.5 38.499
s-26.333 39.333 -34 66s-11.5 58.667 -11.5 96z" />
    <glyph glyph-name="v" unicode="v" 
d="M50 432l-10 25.002h86c0 -4.66699 -0.5 -8.83398 -1.5 -12.501s-1.5 -6.83398 -1.5 -9.50098c0 -1.33301 0.333008 -2.33301 1 -3l132 -334l74 170c16 36.667 29 70.667 39 102s17.667 60.333 23 87h65c-13.333 -56 -36.333 -122.667 -69 -200l-111 -260h-56z" />
    <glyph glyph-name="w" unicode="w" 
d="M16 457h73v-4c0 -4 -0.666992 -8.5 -2 -13.5s-2 -9.83301 -2 -14.5c0 -2.66699 0.333008 -4.66699 1 -6l67 -329l78 324h44l97 -323l21.5 145c5.66699 38 10 69.5 13 94.5s5 45.667 6 62s1.5 32.833 1.5 49.5v15h67c-10 -77.333 -21.333 -154 -34 -230
s-26.667 -152 -42 -228h-68l-84 296l-80 -296h-65z" />
    <glyph glyph-name="x" unicode="x" 
d="M362 457h74l-148 -222l168 -235h-82l-126 178l-119 -178h-82l161 232l-158 225h79l119 -169z" />
    <glyph glyph-name="y" unicode="y" 
d="M59 425l-12.999 32h89c0 -5.33301 -0.666992 -9.83301 -2 -13.5s-2 -7.16699 -2 -10.5c0 -2.66699 0.666992 -4.66699 2 -6l134 -336l87 245c8.66699 23.333 15.667 45.166 21 65.499s9.66602 38.833 12.999 55.5h75l-19.5 -59c-7 -22 -15.5 -46.333 -25.5 -73l-124 -327
l-19 -50c-16 -44.667 -36.5 -76.167 -61.5 -94.5s-53.833 -27.5 -86.5 -27.5c-43.333 0 -78.333 13 -105 39l38 64c2 -2 3.66699 -5.16699 5 -9.5s2.33301 -7.16602 3 -8.49902l4 -4.5c2.66699 -3 6.16699 -6 10.5 -9s9.83301 -5.83301 16.5 -8.5s14 -4 22 -4
c19.333 0 36.5 6 51.5 18s29.833 33.667 44.5 65l14 34z" />
    <glyph glyph-name="z" unicode="z" 
d="M71 457h354.998v-49l-278 -346h271c4.66699 0 9.83398 1 15.501 3s10.834 3 15.501 3v-68h-400v49l283 345h-262v63z" />
    <glyph glyph-name="braceleft" unicode="{" 
d="M159 16l4 100.002c0 44 -7.83301 73.667 -23.5 89s-37.834 23 -66.501 23h-20v56h19c30.667 0 53.834 8.33301 69.501 25s23.5 44 23.5 82l-2 72c0 116 60.667 174 182 174h63v-57h-82c-62 0 -93 -35.333 -93 -106l2 -70c0 -74 -29 -123.333 -87 -148
c56.667 -18.667 85 -70.334 85 -155.001l-3 -84c0 -45.333 9.83301 -76.666 29.5 -93.999s51.834 -26 96.501 -26h51v-56h-36c-32 0 -60.833 1.16699 -86.5 3.5s-48.834 11.166 -69.501 26.499c-37.333 29.333 -56 77.666 -56 144.999z" />
    <glyph glyph-name="bar" unicode="|" 
d="M217 652h67v-803h-67v803z" />
    <glyph glyph-name="braceright" unicode="}" 
d="M338 463l-3 -71.999c0 -38 8 -65.333 24 -82s39 -25 69 -25h20v-56h-21c-28.667 0 -50.667 -7.66699 -66 -23s-23 -45 -23 -89l3 -100c0 -59.333 -13.333 -103.333 -40 -132s-68.667 -43 -126 -43h-82v56h55c14.667 0 26.5 0.333008 35.5 1s16.333 1.83398 22 3.50098
s10.334 3.5 14.001 5.5s7.16699 4.33301 10.5 7c27.333 19.333 41 53.666 41 102.999l-3 84c0 84 28 135.667 84 155c-58 24.667 -87 74 -87 148l3 70c0 38 -8.33301 65.167 -25 81.5s-42 24.5 -76 24.5h-75v57h31c22.667 0 46.667 -0.833008 72 -2.5
s48.666 -8.83398 69.999 -21.501s38.833 -30.667 52.5 -54s20.5 -55.333 20.5 -96z" />
    <glyph glyph-name="asciitilde" unicode="~" 
d="M91 342l-50 32.999c16 26 36.167 47.333 60.5 64s47.833 25 70.5 25c23.333 0 43.166 -3.83301 59.499 -11.5s29.5 -16.167 39.5 -25.5c27.333 -25.333 50 -38 68 -38c18.667 0 34.334 5.33301 47.001 16s27.334 27 44.001 49l46 -38c-8 -12 -17.333 -23.667 -28 -35
s-21.667 -21.166 -33 -29.499s-23 -15 -35 -20s-24 -7.5 -36 -7.5c-22.667 0 -42 4.16699 -58 12.5s-28.667 17.5 -38 27.5c-24.667 26.667 -49.334 40 -74.001 40c-30 0 -57.667 -20.667 -83 -62z" />
    <glyph glyph-name="Zcaron" 
d="M62 623h384.998v-49l-309 -512h294c4.66699 0 9.83398 1 15.501 3s10.834 3 15.501 3v-68h-413v49l314 511h-302v63zM395.998 755l-131 -100h-22l-123 98l33 38l103 -71l112 68z" />
    <glyph glyph-name="Zcaron" unicode="&#x17d;" 
d="M62 623h384.998v-49l-309 -512h294c4.66699 0 9.83398 1 15.501 3s10.834 3 15.501 3v-68h-413v49l314 511h-302v63zM395.998 755l-131 -100h-22l-123 98l33 38l103 -71l112 68z" />
    <glyph glyph-name="zcaron" 
d="M71 457h354.998v-49l-278 -346h271c4.66699 0 9.83398 1 15.501 3s10.834 3 15.501 3v-68h-400v49l283 345h-262v63zM376.998 658l-111 -140h-22l-110 141l46 35l78 -103l81 102z" />
    <glyph glyph-name="zcaron" unicode="&#x17e;" 
d="M71 457h354.998v-49l-278 -346h271c4.66699 0 9.83398 1 15.501 3s10.834 3 15.501 3v-68h-400v49l283 345h-262v63zM376.998 658l-111 -140h-22l-110 141l46 35l78 -103l81 102z" />
    <glyph glyph-name="nonbreakingspace" unicode="&#xa0;" 
 />
    <glyph glyph-name="exclamdown" unicode="&#xa1;" 
d="M197 567c-11.333 10.667 -16.999 24.333 -16.999 41c0 16 6 30 18 42s25.667 18 41 18s29.166 -6 41.499 -18s18.5 -26 18.5 -42c0 -15.333 -6 -28.833 -18 -40.5s-26 -17.5 -42 -17.5c-16.667 0 -30.667 5.66699 -42 17zM238.001 -11.001
c-15.333 0 -27.668 6.66797 -37.001 20.001s-14 34.333 -14 63c0 7.33301 0.333008 16.166 1 26.499s1.66699 22.166 3 35.499l5 52l18 277h50l15 -277c0.666992 -10 1.5 -20.667 2.5 -32l3 -34.5c1 -11.667 2 -22.667 3 -33s1.5 -18.833 1.5 -25.5
c0 -23.333 -4.66699 -41.166 -14 -53.499s-21.666 -18.5 -36.999 -18.5z" />
    <glyph glyph-name="cent" unicode="&#xa2;" 
d="M285 624l67.0039 -6.99902c0 -4 -1.33301 -8.5 -4 -13.5s-4.33398 -9.83301 -5.00098 -14.5l-10 -82c51.333 -10 90.666 -35.667 117.999 -77l-44 -57c-2.66699 2 -4 6.16699 -4 12.5s-1.33301 10.833 -4 13.5c-19.333 23.333 -44 39.333 -74 48l-46 -350
c50 0 93.667 18.667 131 56l36 -49c-43.333 -47.333 -99.333 -71 -168 -71h-8l-15 -112l-57 7l14 113c-50 14 -89.833 41.667 -119.5 83s-44.5 93.333 -44.5 156c0 31.333 5.5 60.666 16.5 87.999s26.167 51.5 45.5 72.5s42.666 37.833 69.999 50.5s57.666 19.667 90.999 21
zM220.004 108.001l42.999 346.003c-21.333 -1.33301 -40.666 -6.33301 -57.999 -15s-32.5 -20.334 -45.5 -35.001s-23 -31.834 -30 -51.501s-10.5 -41.167 -10.5 -64.5c0 -46.667 9.16699 -85.334 27.5 -116.001s42.833 -52 73.5 -64z" />
    <glyph glyph-name="sterling" unicode="&#xa3;" 
d="M418 572l-44.002 -55c-5.33301 5.33301 -8.83301 10.666 -10.5 15.999s-6.5 10 -14.5 14c-16 12.667 -35.667 19 -59 19c-14 0 -27.5 -2.33301 -40.5 -7s-24.833 -12 -35.5 -22s-19.167 -22.833 -25.5 -38.5s-9.5 -34.167 -9.5 -55.5
c0 -16.667 2.66699 -38.334 8 -65.001h100v-57h-86c8.66699 -37.333 13 -69.666 13 -96.999c0 -50.667 -12 -95.334 -36 -134.001c4.66699 0.666992 10 1.16699 16 1.5s13 0.5 21 0.5c6.66699 0 16.667 -2.16699 30 -6.5l43 -14c15.333 -5 30.666 -9.66699 45.999 -14
s28.333 -6.5 39 -6.5c24.667 0 48.334 9.33301 71.001 28l26 -52c-35.333 -28 -70 -42 -104 -42c-9.33301 0 -21.666 2.33301 -36.999 7l-49.5 15.5c-17.667 5.66699 -35.167 10.834 -52.5 15.501s-33 7 -47 7c-29.333 0 -67.666 -12.667 -114.999 -38l-26 57l36 17.5
c8.66699 4.33301 15.334 8.33301 20.001 12s8.16699 7 10.5 10s4.83301 6.83301 7.5 11.5c23.333 36.667 35 77.334 35 122.001c0 24.667 -5 57.667 -15 99h-66v57h52c-4.66699 22.667 -7 44 -7 64c0 27.333 4.66699 52.166 14 74.499s22 41.333 38 57
s34.667 27.834 56 36.501s44 13 68 13c49.333 0 92.666 -17 129.999 -51z" />
    <glyph glyph-name="currency" unicode="&#xa4;" 
d="M68 492l36 35.002l56 -56c27.333 19.333 57.666 29 90.999 29c31.333 0 61 -9.33301 89 -28l56 55l36 -35l-56 -55c20 -28 30 -58.667 30 -92s-9.66699 -63.666 -29 -90.999l55 -55l-36 -35l-55 55c-13.333 -10 -27.666 -17.333 -42.999 -22s-31 -7 -47 -7
c-33.333 0 -64 10 -92 30l-55 -56l-36 35l56 57c-9.33301 13.333 -16.333 27.666 -21 42.999s-7 30.666 -7 45.999c0 16 2.33301 31.667 7 47s12 29.666 22 42.999zM321 416.002c-20 20 -43.666 29.999 -70.999 29.999c-13.333 0 -26 -2.66699 -38 -8
s-22.667 -12.666 -32 -21.999s-16.666 -20 -21.999 -32s-8 -25 -8 -39c0 -13.333 2.66699 -26.166 8 -38.499s12.5 -23 21.5 -32s19.667 -16.167 32 -21.5s25.166 -8 38.499 -8c14 0 27 2.66699 39 8s22.667 12.666 32 21.999s16.666 20 21.999 32s8 24.667 8 38
c0 27.333 -10 51 -30 71z" />
    <glyph glyph-name="yen" unicode="&#xa5;" 
d="M36 624h78l145 -261l133 260h74l-174 -328v-21h134v-57h-134v-63h134v-56h-134v-98h-68v98h-140v56h140v63h-140v57h140v21z" />
    <glyph glyph-name="brokenbar" unicode="&#xa6;" 
d="M217 652h67v-357h-67v357zM284 -151h-67v347h67v-347z" />
    <glyph glyph-name="section" unicode="&#xa7;" 
d="M413 583l-57.002 -50.001c-3.33301 3.33301 -5.33301 7 -6 11c-1.33301 8.66699 -4.5 17.167 -9.5 25.5s-11.833 15.666 -20.5 21.999s-18.5 11.5 -29.5 15.5s-22.5 6 -34.5 6s-23.5 -2 -34.5 -6s-20.5 -9.5 -28.5 -16.5s-14.333 -15.167 -19 -24.5s-7 -19.333 -7 -30
c0 -16 3 -28.667 9 -38s15.5 -18.5 28.5 -27.5s29.5 -16.833 49.5 -23.5s44 -16 72 -28c61.333 -29.333 92 -67.333 92 -114c0 -20 -6.83301 -38.833 -20.5 -56.5s-31.5 -30.834 -53.5 -39.501c42.667 -28.667 64 -65.667 64 -111c0 -22 -4.33301 -42.333 -13 -61
s-20.5 -34.667 -35.5 -48s-33 -23.833 -54 -31.5s-43.5 -11.5 -67.5 -11.5c-34 0 -66.167 7.16699 -96.5 21.5s-55.833 35.5 -76.5 63.5l52 61c4 -1.33301 6.33301 -3 7 -5s1.5 -4.83301 2.5 -8.5s3.33301 -8.5 7 -14.5s10.5 -13.667 20.5 -23
c20.667 -19.333 47.334 -29 80.001 -29s58 7.66699 76 23s27 34 27 56c0 11.333 -1.83301 21.5 -5.5 30.5s-9.83398 17.333 -18.501 25s-20.667 14.834 -36 21.501s-34.333 13.334 -57 20.001c-51.333 16.667 -87.666 34.667 -108.999 54s-32 44 -32 74
c0 22 7.5 42.167 22.5 60.5s34.833 31.833 59.5 40.5c-44.667 26.667 -67 64.334 -67 113.001c0 19.333 4.16699 37.5 12.5 54.5s19.833 32 34.5 45s32 23.333 52 31s41.333 11.5 64 11.5c32.667 0 62.834 -7.83301 90.501 -23.5s49.5 -37.5 65.5 -65.5zM196.998 398.999
c-13.333 -4.66699 -24.167 -12.667 -32.5 -24s-12.5 -24.333 -12.5 -39c0 -22 8.16699 -40.167 24.5 -54.5s42.833 -26.833 79.5 -37.5l30 -8.5c8.66699 -2.33301 15.667 -4.83301 21 -7.5c24 12.667 36 34 36 64c0 22 -8.16699 39.667 -24.5 53s-42.5 26.333 -78.5 39z" />
    <glyph glyph-name="dieresis" unicode="&#xa8;" 
d="M198 650c10 -10 15 -21.999 15 -35.999c0 -13.333 -5 -25 -15 -35s-21.667 -15 -35 -15c-14 0 -26 5 -36 15s-15 21.667 -15 35s5 25.166 15 35.499s22 15.5 36 15.5c13.333 0 25 -5 35 -15zM376 650.001c10 -10 15 -22 15 -36c0 -13.333 -5 -25 -15 -35
s-21.667 -15 -35 -15c-14 0 -25.833 4.83301 -35.5 14.5s-14.5 21.5 -14.5 35.5s4.83301 26 14.5 36s21.5 15 35.5 15c13.333 0 25 -5 35 -15z" />
    <glyph glyph-name="copyright" unicode="&#xa9;" 
d="M387 331l-51.9932 -18.9971c-2.66699 4.66699 -3.83398 8.66699 -3.50098 12s0 6.83301 -1 10.5s-3.33301 7.66699 -7 12s-10.834 10.166 -21.501 17.499c-11.333 6.66699 -24.666 10 -39.999 10c-9.33301 0 -19.333 -1.66699 -30 -5s-20.5 -8.83301 -29.5 -16.5
s-16.5 -17.334 -22.5 -29.001s-9 -25.834 -9 -42.501c0 -14.667 2.5 -28.5 7.5 -41.5s11.667 -24.333 20 -34s18.166 -17.334 29.499 -23.001s23.666 -8.5 36.999 -8.5c16 0 30.667 4 44 12s23.666 19 30.999 33l44 -29c-14 -21.333 -32 -38 -54 -50s-45 -18 -69 -18
c-20.667 0 -39.834 4.16699 -57.501 12.5s-33 19.5 -46 33.5s-23.333 30.333 -31 49s-11.5 38.334 -11.5 59.001s4 40.167 12 58.5s18.667 34 32 47s28.166 23.333 44.499 31s33.166 11.5 50.499 11.5c36 0 65.5 -8.5 88.5 -25.5s37.833 -39.5 44.5 -67.5zM426.007 93.0029
c-47.333 -49.333 -104.332 -73.999 -170.999 -73.999c-33.333 0 -64.666 6.66699 -93.999 20s-54.833 31.666 -76.5 54.999s-38.834 50.333 -51.501 81s-19 63.667 -19 99s6.33301 68.5 19 99.5s30 58.167 52 81.5s47.667 41.666 77 54.999s60.666 20 93.999 20
c32.667 0 63.667 -6.66699 93 -20s55 -31.666 77 -54.999s39.5 -50.5 52.5 -81.5s19.5 -64.167 19.5 -99.5c0 -70.667 -24 -131 -72 -181zM257.008 488.004c-27.333 0 -53 -5.49805 -77 -16.498s-45 -26.167 -63 -45.5s-32.167 -42 -42.5 -68s-15.5 -54 -15.5 -84
c0 -29.333 5.16699 -57 15.5 -83s24.5 -48.5 42.5 -67.5s39 -34 63 -45s49.667 -16.5 77 -16.5c26.667 0 52 5.66699 76 17s45 26.666 63 45.999s32.333 41.833 43 67.5s16 53.167 16 82.5s-5.16699 56.833 -15.5 82.5s-24.5 48.167 -42.5 67.5s-39 34.666 -63 45.999
s-49.667 17 -77 17z" />
    <glyph glyph-name="ordfeminine" unicode="&#xaa;" 
d="M325 488c0 54 -24.6689 80.999 -74.002 80.999c-41.333 0 -72.666 -14.667 -93.999 -44l-34 41c33.333 37.333 78 56 134 56c42 -1.33301 74.5 -12.333 97.5 -33s34.5 -52 34.5 -94v-10v-218h-63v33c-30.667 -28.667 -64.667 -43 -102 -43
c-36.667 0 -66.167 10.333 -88.5 31s-33.5 45.334 -33.5 74.001c0 28 10.5 52 31.5 72s49.5 32.667 85.5 38c21.333 2 39.333 3.16699 54 3.5s27.334 0.5 38.001 0.5h14v12zM327.998 423.999l-16 0.00195312c-28 0 -51.333 -0.666992 -70 -2s-33.667 -4.5 -45 -9.5
s-19.333 -11.333 -24 -19s-7 -17.834 -7 -30.501s5.5 -24.5 16.5 -35.5s27.167 -16.5 48.5 -16.5c8.66699 0 18.667 1.66699 30 5s22 8.66602 32 15.999s18.333 17 25 29s10 27 10 45v18zM75.998 206.001h349v-54h-349v54z" />
    <glyph glyph-name="guillemotleft" unicode="&#xab;" 
d="M249 253l151 147l39 -41l-121 -118l128 -140l-40 -40l-157 169v23zM67 253l152 147l39 -41l-121 -118l128 -140l-40 -40l-158 169v23z" />
    <glyph glyph-name="logicalnot" unicode="&#xac;" 
d="M91 347h323v-190h-64v127h-259v63z" />
    <glyph glyph-name="softhyphen" unicode="&#xad;" 
d="M71 348h360v-67h-360v67z" />
    <glyph glyph-name="registered" unicode="&#xae;" 
d="M426 93c-47.333 -49.333 -104.332 -73.999 -170.999 -73.999c-33.333 0 -64.666 6.66699 -93.999 20s-54.833 31.666 -76.5 54.999s-38.834 50.333 -51.501 81s-19 63.667 -19 99s6.33301 68.5 19 99.5s30 58.167 52 81.5s47.667 41.666 77 54.999s60.666 20 93.999 20
c32.667 0 63.667 -6.66699 93 -20s55 -31.666 77 -54.999s39.5 -50.5 52.5 -81.5s19.5 -64.167 19.5 -99.5c0 -70.667 -24 -131 -72 -181zM257.001 488.001c-27.333 0 -53 -5.49805 -77 -16.498s-45 -26.167 -63 -45.5s-32.167 -42 -42.5 -68s-15.5 -54 -15.5 -84
c0 -29.333 5.16699 -57 15.5 -83s24.5 -48.5 42.5 -67.5s39 -34 63 -45s49.667 -16.5 77 -16.5c26.667 0 52 5.66699 76 17s45 26.666 63 45.999s32.333 41.833 43 67.5s16 53.167 16 82.5s-5.16699 56.833 -15.5 82.5s-24.5 48.167 -42.5 67.5s-39 34.666 -63 45.999
s-49.667 17 -77 17zM155.001 133.003l0.00195312 292.001h94c43.333 0 74.166 -8 92.499 -24s27.5 -36.333 27.5 -61c0 -16.667 -4.83301 -32.334 -14.5 -47.001s-23.834 -24.667 -42.501 -30l64 -125l-47 -7l-62 125h-66v-123h-46zM253.003 296.004
c47.333 0 71 14.667 71 44s-24.667 44 -74 44h-49v-88h52z" />
    <glyph glyph-name="macron" unicode="&#xaf;" 
d="M123 621h254v-56h-254v56z" />
    <glyph glyph-name="degree" unicode="&#xb0;" 
d="M351 599c26.667 -26 40 -57.668 40 -95.001c0 -18 -3.5 -35.167 -10.5 -51.5s-16.667 -30.5 -29 -42.5s-26.666 -21.667 -42.999 -29s-33.833 -11 -52.5 -11s-36.167 3.5 -52.5 10.5s-30.666 16.5 -42.999 28.5s-22 26.167 -29 42.5s-10.5 33.833 -10.5 52.5
s3.66699 36.334 11 53.001s17.166 31 29.499 43s26.666 21.5 42.999 28.5s33.5 10.5 51.5 10.5c37.333 0 69 -13.333 95 -40zM309 561.999c-14 16 -31.332 24.002 -51.999 24.002c-10 0 -19.667 -2.16699 -29 -6.5s-17.333 -10.333 -24 -18s-12 -16.334 -16 -26.001
s-6 -19.834 -6 -30.501c0 -21.333 7.16699 -40 21.5 -56s31.833 -24 52.5 -24c21.333 0 39.166 8 53.499 24s21.5 34.667 21.5 56s-7.33301 40.333 -22 57z" />
    <glyph glyph-name="plusminus" unicode="&#xb1;" 
d="M46 80h411v-63h-411v63zM222 575h63v-171h171v-61h-171v-188h-63v188h-177v61h177v171z" />
    <glyph glyph-name="uni00B2" unicode="&#xb2;" 
d="M111 554c15.333 26 35.999 46.332 61.999 60.999s56.333 22 91 22c16.667 0 32.667 -2.83301 48 -8.5s29 -13.5 41 -23.5s21.5 -22 28.5 -36s10.5 -29.333 10.5 -46c0 -13.333 -1.66699 -25 -5 -35s-9 -20 -17 -30s-19.333 -20.833 -34 -32.5l-56 -42.5
c-17.333 -13.333 -33.166 -26.166 -47.499 -38.499s-27.166 -24.833 -38.499 -37.5h182c3.33301 0 6.83301 1.5 10.5 4.5s7.16699 4.5 10.5 4.5h3v-63h-279v44c18 24 36.833 45.667 56.5 65s44.5 40.333 74.5 63l28 22c17.333 13.333 30.166 26.833 38.499 40.5
s12.5 26.167 12.5 37.5c0 16.667 -6.66699 31 -20 43s-30.333 18 -51 18c-39.333 0 -70 -14 -92 -42c-2 -2.66699 -3.83301 -6.16699 -5.5 -10.5s-3.16699 -7.83301 -4.5 -10.5z" />
    <glyph glyph-name="uni00B3" unicode="&#xb3;" 
d="M258 638c18 0 35.002 -2.83594 51.002 -8.50293s30 -13.5 42 -23.5s21.333 -21.5 28 -34.5s10 -26.833 10 -41.5c0 -18 -5.33301 -34.167 -16 -48.5s-24.334 -24.166 -41.001 -29.499c21.333 -3.33301 39 -13.166 53 -29.499s21 -35.166 21 -56.499
c0 -16 -4.16699 -30.833 -12.5 -44.5s-19.333 -25.834 -33 -36.501s-29.667 -19 -48 -25s-37.5 -9 -57.5 -9c-57.333 0 -105 21.667 -143 65l47 52c2.66699 -3.33301 4.83398 -8.16602 6.50098 -14.499s4.16699 -10.833 7.5 -13.5c22 -22 47.333 -33 76 -33
s51.667 6.33301 69 19s26 28 26 46c0 17.333 -7.83301 30.833 -23.5 40.5s-37.167 14.5 -64.5 14.5c-5.33301 0 -10.333 -0.166992 -15 -0.5s-9.66699 -0.833008 -15 -1.5v51c3.33301 -0.666992 6.66602 -1 9.99902 -1h10c30 0 51.333 5 64 15s19 22.333 19 37s-7 28 -21 40
s-31.667 18 -53 18c-38 0 -69.333 -15.333 -94 -46l-36 37c35.333 41.333 79.666 62 132.999 62z" />
    <glyph glyph-name="acute" unicode="&#xb4;" 
d="M292 699l63 -42l-101 -135l-50 30z" />
    <glyph glyph-name="micro" unicode="&#xb5;" 
d="M372 116c0 -46 13.3291 -68.998 39.9961 -68.998c9.33301 0 18.833 4 28.5 12s16.5 16.333 20.5 25l6 12l27 -51c-24.667 -36.667 -54 -55 -88 -55c-21.333 0 -39.666 7.5 -54.999 22.5s-24.333 33.167 -27 54.5c-11.333 -26 -28.5 -45.333 -51.5 -58
s-46.833 -19 -71.5 -19s-47.5 5.83301 -68.5 17.5s-36.167 29.167 -45.5 52.5v-113.5c0 -37.667 -0.333008 -75.5 -1 -113.5h-62c0 9.33301 0.5 23.333 1.5 42s2.33301 39.667 4 63s3.33398 48 5.00098 74s3.16699 51 4.5 75s2.5 46.167 3.5 66.5s1.5 36.5 1.5 48.5v255h66
v-271c0 -28 2.66699 -50.833 8 -68.5s12.5 -31.834 21.5 -42.501s19.333 -18.334 31 -23.001s23.834 -7.66699 36.501 -9c12.667 1.33301 25 4.83301 37 10.5s22.833 14 32.5 25s17.334 25.167 23.001 42.5s8.5 38 8.5 62v9v265h64v-341z" />
    <glyph glyph-name="paragraph" unicode="&#xb6;" 
d="M436 665v-733.003h-58v676h-76v-676h-59v390c-25.333 1.33301 -48.833 7 -70.5 17s-40.5 22.833 -56.5 38.5s-28.667 33.667 -38 54s-14 41.833 -14 64.5s4.16699 44.334 12.5 65.001s22.333 38.834 42 54.501s45.167 27.834 76.5 36.501s70 13 116 13h125z" />
    <glyph glyph-name="periodcentered" unicode="&#xb7;" 
d="M280 371c12 -11.333 18.001 -24.668 18.001 -40.001s-5.83301 -28.666 -17.5 -39.999s-25.834 -17 -42.501 -17s-30.667 5.5 -42 16.5s-17 24.5 -17 40.5s6 29.5 18 40.5s25.667 16.5 41 16.5s29.333 -5.66699 42 -17z" />
    <glyph glyph-name="cedilla" unicode="&#xb8;" 
d="M327 -109c0 16 -15.667 23.999 -47 23.999h-30l11 85h44l-6 -47l17 -1c45.333 -3.33301 68 -21.666 68 -54.999c0 -18.667 -9.5 -35.667 -28.5 -51s-48.167 -23 -87.5 -23s-76.333 12.333 -111 37l25 42c28.667 -24 61.667 -36 99 -36c17.333 0 29.333 2.5 36 7.5
s10 10.833 10 17.5z" />
    <glyph glyph-name="uni00B9" unicode="&#xb9;" 
d="M299 633v-380h-64v300l-97 -25l-16 31l133 74h44z" />
    <glyph glyph-name="ordmasculine" unicode="&#xba;" 
d="M96 434c0 28 4.16797 53.4961 12.501 76.4961s19.5 42.667 33.5 59s30.333 29.166 49 38.499s38 14 58 14c20.667 0 40 -4 58 -12s33.667 -19.667 47 -35s23.833 -34.166 31.5 -56.499s11.5 -48.166 11.5 -77.499c0 -28.667 -4.16699 -54.5 -12.5 -77.5
s-19.5 -42.5 -33.5 -58.5s-30.167 -28.167 -48.5 -36.5s-37.5 -12.5 -57.5 -12.5c-20.667 0 -40 4.33301 -58 13s-33.833 20.834 -47.5 36.501s-24.334 34.334 -32.001 56.001s-11.5 45.834 -11.5 72.501zM247.001 565.996c-24.667 0 -45.999 -11.334 -63.999 -34.001
s-27 -54 -27 -94s9 -70.667 27 -92s39 -32 63 -32c24.667 0 46 10.5 64 31.5s27 51.5 27 91.5c0 40.667 -8.83301 72.334 -26.5 95.001s-38.834 34 -63.501 34zM76.002 205.995h349v-54h-349v54z" />
    <glyph glyph-name="guillemotright" unicode="&#xbb;" 
d="M265 253v-23l-158 -169l-40 40l128 140l-121 118l39 41zM446 253v-23l-158 -169l-39 40l127 140l-121 118l39 41z" />
    <glyph glyph-name="onequarter" unicode="&#xbc;" 
d="M76 -16l313 681l48 -27l-314 -680zM396 242h31v-197h50v-37h-50v-78h-46v78h-145v29zM382 164l-94 -119h94v119zM146 677v-303h-51v240l-77 -20l-13 25l107 58h34z" />
    <glyph glyph-name="onehalf" unicode="&#xbd;" 
d="M76 -16l313 681l48 -27l-314 -680zM263 168c12.667 21.333 29.5029 37.832 50.5029 49.499s46.167 17.5 75.5 17.5c14 0 26.833 -2.5 38.5 -7.5s22 -11.833 31 -20.5s16 -18.5 21 -29.5s7.5 -22.5 7.5 -34.5c0 -10.667 -1.16699 -20 -3.5 -28s-6.66602 -16 -12.999 -24
s-15.333 -16.667 -27 -26s-26.834 -20.666 -45.501 -33.999c-29.333 -21.333 -52.333 -41.333 -69 -60h146c2.66699 0 5.66699 1.16699 9 3.5s6.66602 3.5 9.99902 3.5v-51h-224v35c12 16 26.667 32.833 44 50.5s37.666 35.167 60.999 52.5l23 17
c27.333 23.333 41 42.666 41 57.999c0 16.667 -5.5 29.834 -16.5 39.501s-25.5 14.5 -43.5 14.5c-30.667 0 -54.334 -11.333 -71.001 -34c-2 -2 -3.5 -4.83301 -4.5 -8.5s-2.16699 -6.5 -3.5 -8.5zM146.003 676.999v-303h-51v240l-77 -20l-13 25l107 58h34z" />
    <glyph glyph-name="threequarters" unicode="&#xbe;" 
d="M81 -16l313 681l48 -27l-314 -680zM128 684c14.667 0 28.334 -2.33105 41.001 -6.99805s23.667 -10.834 33 -18.501s16.666 -16.667 21.999 -27s8 -21.5 8 -33.5c0 -14.667 -4.16699 -27.667 -12.5 -39s-19.166 -19.333 -32.499 -24
c17.333 -2.66699 31.5 -10.5 42.5 -23.5s16.5 -27.833 16.5 -44.5c0 -13.333 -3.33301 -25.5 -10 -36.5s-15.5 -20.833 -26.5 -29.5s-23.833 -15.334 -38.5 -20.001s-30 -7 -46 -7c-45.333 0 -83.333 17.333 -114 52l38 42c2 -2.66699 3.66699 -6.5 5 -11.5
s3.33301 -8.83301 6 -11.5c9.33301 -9.33301 19.333 -16 30 -20s21.667 -6 33 -6c19.333 0 36.5 4.83301 51.5 14.5s22.5 20.834 22.5 33.501c0 16 -5.5 28 -16.5 36s-29.167 12 -54.5 12h-12c-4 0 -8 -0.333008 -12 -1v40c3.33301 -1.33301 7 -1.83301 11 -1.5
s7.66699 0.5 11 0.5c21.333 0 36.833 4.16699 46.5 12.5s14.5 17.833 14.5 28.5c0 11.333 -5.33301 22.166 -16 32.499s-25.334 15.5 -44.001 15.5c-30 0 -54.667 -12.667 -74 -38l-29 30c28 33.333 63.333 50 106 50zM396 242.002h31v-197h50v-37h-50v-78h-46v78h-145v29z
M382 164.002l-94 -119h94v119z" />
    <glyph glyph-name="questiondown" unicode="&#xbf;" 
d="M198 567c-11.333 10.667 -16.998 24.3311 -16.998 40.998c0 16 6 29.5 18 40.5s25.667 16.5 41 16.5s29.166 -5.66699 41.499 -17s18.5 -24.666 18.5 -39.999s-5.83301 -28.666 -17.5 -39.999s-25.834 -17 -42.501 -17s-30.667 5.33301 -42 16zM438.002 90.9971
c-21.333 -32.667 -49.3311 -58.166 -83.998 -76.499s-71 -27.5 -109 -27.5c-28 0 -53 4.66699 -75 14s-40.667 22 -56 38s-27 34.667 -35 56s-12 44 -12 68c0 34.667 7.83301 63.167 23.5 85.5s33.5 41.833 53.5 58.5l22 18c18.667 15.333 30.667 30.666 36 45.999
s8 33.666 8 54.999v42h65v-42c0 -15.333 -0.5 -28.5 -1.5 -39.5s-3.66699 -21.833 -8 -32.5s-11 -22 -20 -34s-21.167 -26 -36.5 -42c-24 -25.333 -40.5 -46.833 -49.5 -64.5s-13.5 -36.167 -13.5 -55.5c0 -14.667 2.83301 -28.5 8.5 -41.5s13.167 -24.167 22.5 -33.5
s20.166 -16.833 32.499 -22.5s25.166 -8.5 38.499 -8.5c28 0 54.167 7.83301 78.5 23.5s44.5 36.834 60.5 63.501z" />
    <glyph glyph-name="Agrave" unicode="&#xc0;" 
d="M15 0l220 634h8l240 -634h-72l-69 182h-198l-60 -182h-69zM326 236l-88 238l-80 -238h168zM183 791l153 -89l-23 -42l-170 61z" />
    <glyph glyph-name="Aacute" unicode="&#xc1;" 
d="M15 0l220 634h8l240 -634h-72l-69 182h-198l-60 -182h-69zM326 236l-88 238l-80 -238h168zM309 791l40 -70l-169 -61l-23 42z" />
    <glyph glyph-name="Acircumflex" unicode="&#xc2;" 
d="M15 0l220 634h8l240 -634h-72l-69 182h-198l-60 -182h-69zM326 236l-88 238l-80 -238h168zM103 692l131 99h22l123 -98l-33 -38l-103 71l-112 -68z" />
    <glyph glyph-name="Atilde" unicode="&#xc3;" 
d="M15 0l220 634h8l240 -634h-72l-69 182h-198l-60 -182h-69zM326 236l-88 238l-80 -238h168zM131 683l-45 32.001c36.667 58 74.334 87 113.001 87c12 0 24.5 -3.83301 37.5 -11.5s25.333 -16.334 37 -26.001l31 -26c9 -7.66699 15.833 -11.5 20.5 -11.5
c15.333 0 26.833 5.16699 34.5 15.5l27.5 37.5l38 -40c-20 -24 -37.333 -41.833 -52 -53.5s-29.667 -17.5 -45 -17.5s-29 4 -41 12s-23.167 16.667 -33.5 26l-28.5 26c-8.66699 8 -17 12 -25 12c-14.667 0 -26.334 -4.5 -35.001 -13.5s-20 -25.167 -34 -48.5z" />
    <glyph glyph-name="Adieresis" unicode="&#xc4;" 
d="M15 0l220 634h8l240 -634h-72l-69 182h-198l-60 -182h-69zM326 236l-88 238l-80 -238h168zM187 774c10 -10 15 -21.999 15 -35.999c0 -13.333 -5 -25 -15 -35s-22 -15 -36 -15c-13.333 0 -25 5 -35 15s-15 21.667 -15 35s5 25.166 15 35.499s21.667 15.5 35 15.5
c14 0 26 -5 36 -15zM365 774.001c10 -10 15 -22 15 -36c0 -13.333 -5 -25 -15 -35s-22 -15 -36 -15c-13.333 0 -24.833 4.83301 -34.5 14.5s-14.5 21.5 -14.5 35.5s4.83301 26 14.5 36s21.167 15 34.5 15c14 0 26 -5 36 -15z" />
    <glyph glyph-name="Aring" unicode="&#xc5;" 
d="M241 753c-11.333 0 -21.166 -4.33301 -29.499 -13s-12.5 -19.667 -12.5 -33c0 -12.667 4.16699 -23.334 12.5 -32.001s18.166 -13 29.499 -13s21 4.33301 29 13s12 19.334 12 32.001c0 13.333 -4 24.333 -12 33s-17.667 13 -29 13zM326 236l-88 238l-80 -238h168z
M248 619l235.001 -619.001h-72l-69 182h-198l-60 -183h-69l215 620c-23.333 2.66699 -42.833 12.334 -58.5 29.001s-23.5 36.667 -23.5 60c0 12 2.33301 23.167 7 33.5s11.167 19.5 19.5 27.5s18.166 14.333 29.499 19s23.333 7 36 7s24.5 -2.33301 35.5 -7
s20.667 -11 29 -19s14.833 -17.167 19.5 -27.5s7 -21.5 7 -33.5c0 -23.333 -7.83301 -43.5 -23.5 -60.5s-35.5 -26.5 -59.5 -28.5z" />
    <glyph glyph-name="AE" unicode="&#xc6;" 
d="M200 624h284v-62h-171v-205h145v-64h-145v-231h169v-62h-230v169h-130l-54 -169h-64zM252 562h-11l-105 -335h116v335z" />
    <glyph glyph-name="Ccedilla" unicode="&#xc7;" 
d="M327 -109c0 16 -15.6719 24 -47.0049 24h-30l10 75c-28 2.66699 -55.167 10.667 -81.5 24s-49.833 32.666 -70.5 57.999s-37 57.166 -49 95.499s-18 83.5 -18 135.5c0 64 7.66699 117 23 159s34.5 75.167 57.5 99.5s48.333 41.5 76 51.5s53.834 15 78.501 15
c20.667 0 40.834 -3 60.501 -9s38 -14.333 55 -25s32.167 -23.5 45.5 -38.5s24 -31.833 32 -50.5l-67 -33c-2.66699 2 -4 5.33301 -4 10c0 8 -1 14 -3 18c-13.333 22 -30.666 39.5 -51.999 52.5s-44 19.5 -68 19.5c-22.667 0 -44 -5.83301 -64 -17.5
s-37.5 -28.667 -52.5 -51s-27 -49.5 -36 -81.5s-13.5 -68.333 -13.5 -109c0 -39.333 4.33301 -75.166 13 -107.499s20.834 -60 36.501 -83s34 -40.833 55 -53.5s43.5 -19 67.5 -19c24.667 0 48.5 6.83301 71.5 20.5s41.5 32.167 55.5 55.5l52 -34
c-17.333 -28 -39.666 -50.833 -66.999 -68.5s-57 -28.5 -89 -32.5l-5 -38l17 -1c45.333 -3.33301 68 -21.666 68 -54.999c0 -18.667 -9.5 -35.667 -28.5 -51s-48.167 -23 -87.5 -23s-76.333 12.333 -111 37l25 42c28.667 -24 61.667 -36 99 -36c17.333 0 29.333 2.5 36 7.5
s10 10.833 10 17.5z" />
    <glyph glyph-name="Egrave" unicode="&#xc8;" 
d="M59 624h382v-62h-316v-205h261v-64h-261v-231h313v-62h-379v624zM183 791l153 -89l-23 -42l-170 61z" />
    <glyph glyph-name="Eacute" unicode="&#xc9;" 
d="M59 624h382v-62h-316v-205h261v-64h-261v-231h313v-62h-379v624zM325 791l40 -70l-169 -61l-23 42z" />
    <glyph glyph-name="Ecircumflex" unicode="&#xca;" 
d="M59 624h382v-62h-316v-205h261v-64h-261v-231h313v-62h-379v624zM111 692l131 99h22l123 -98l-33 -38l-103 71l-112 -68z" />
    <glyph glyph-name="Edieresis" unicode="&#xcb;" 
d="M59 624h382v-62h-316v-205h261v-64h-261v-231h313v-62h-379v624zM193 774c10 -10 15 -21.999 15 -35.999c0 -13.333 -5 -25 -15 -35s-22 -15 -36 -15c-13.333 0 -25 5 -35 15s-15 21.667 -15 35s5 25.166 15 35.499s21.667 15.5 35 15.5c14 0 26 -5 36 -15zM371 774.001
c10 -10 15 -22 15 -36c0 -13.333 -5 -25 -15 -35s-22 -15 -36 -15c-13.333 0 -24.833 4.83301 -34.5 14.5s-14.5 21.5 -14.5 35.5s4.83301 26 14.5 36s21.167 15 34.5 15c14 0 26 -5 36 -15z" />
    <glyph glyph-name="Igrave" unicode="&#xcc;" 
d="M88 623h309v-59h-123v-507h129v-58h-322v59h123v506h-116v59zM183 791l153 -89l-23 -42l-170 61z" />
    <glyph glyph-name="Iacute" unicode="&#xcd;" 
d="M88 623h309v-59h-123v-507h129v-58h-322v59h123v506h-116v59zM325 791l40 -70l-169 -61l-23 42z" />
    <glyph glyph-name="Icircumflex" unicode="&#xce;" 
d="M88 623h309v-59h-123v-507h129v-58h-322v59h123v506h-116v59zM102 692l131 99h22l123 -98l-33 -38l-103 71l-112 -68z" />
    <glyph glyph-name="Idieresis" unicode="&#xcf;" 
d="M88 623h309v-59h-123v-507h129v-58h-322v59h123v506h-116v59zM190 774c10 -10 15 -21.999 15 -35.999c0 -13.333 -5 -25 -15 -35s-22 -15 -36 -15c-13.333 0 -25 5 -35 15s-15 21.667 -15 35s5 25.166 15 35.499s21.667 15.5 35 15.5c14 0 26 -5 36 -15zM368 774.001
c10 -10 15 -22 15 -36c0 -13.333 -5 -25 -15 -35s-22 -15 -36 -15c-13.333 0 -24.833 4.83301 -34.5 14.5s-14.5 21.5 -14.5 35.5s4.83301 26 14.5 36s21.167 15 34.5 15c14 0 26 -5 36 -15z" />
    <glyph glyph-name="Eth" unicode="&#xd0;" 
d="M79 623l138.998 0.000976562c45.333 0 83.5 -7.66699 114.5 -23s56.333 -36.833 76 -64.5s34.167 -61 43.5 -100s14 -82.167 14 -129.5c0 -30 -3.33301 -59.833 -10 -89.5s-16.167 -57.334 -28.5 -83.001s-27.666 -48.667 -45.999 -69s-39.166 -35.833 -62.499 -46.5
c-26 -12.667 -63.667 -19 -113 -19h-127v302h-49v58h49v264zM142.998 301.001v-244.001h60c64 0 112.667 21.833 146 65.5s50 104.834 50 183.501c0 80 -14.833 143 -44.5 189s-76.5 69 -140.5 69h-71v-205h105v-58h-105z" />
    <glyph glyph-name="Ntilde" unicode="&#xd1;" 
d="M50 0v623.001h68l262 -462v463h74c0 -4 -1.16699 -8.33301 -3.5 -13s-3.5 -9.33398 -3.5 -14.001v-597h-55l-275 490v-490h-67zM136 683.001l-45 32.001c36.667 58 74.334 87 113.001 87c12 0 24.5 -3.83301 37.5 -11.5s25.333 -16.334 37 -26.001l31 -26
c9 -7.66699 15.833 -11.5 20.5 -11.5c15.333 0 26.833 5.16699 34.5 15.5l27.5 37.5l38 -40c-20 -24 -37.333 -41.833 -52 -53.5s-29.667 -17.5 -45 -17.5s-29 4 -41 12s-23.167 16.667 -33.5 26l-28.5 26c-8.66699 8 -17 12 -25 12c-14.667 0 -26.334 -4.5 -35.001 -13.5
s-20 -25.167 -34 -48.5z" />
    <glyph glyph-name="Ograve" unicode="&#xd2;" 
d="M254 -10c-34 0 -64.8271 7.83496 -92.4941 23.502s-51.334 37.667 -71.001 66s-34.834 62.333 -45.501 102s-16 83.5 -16 131.5s5.5 91.667 16.5 131s26.5 72.666 46.5 99.999s44 48.5 72 63.5s58.667 22.5 92 22.5c29.333 0 56.666 -6.33301 81.999 -19
s48.5 -31.834 69.5 -57.501s36.833 -58.5 47.5 -98.5s16 -87.667 16 -143c0 -60 -6.33301 -110.5 -19 -151.5s-29.334 -74.167 -50.001 -99.5s-43.834 -43.5 -69.501 -54.5s-51.834 -16.5 -78.501 -16.5zM150.006 115.002c31.333 -37.333 66 -56.0039 104 -56.0039
c18 0 35.667 3.83301 53 11.5s33.166 21.167 47.499 40.5s25.666 45.333 33.999 78s12.5 74.334 12.5 125.001c0 49.333 -4.66699 89.833 -14 121.5s-21.166 56.834 -35.499 75.501s-29.333 32.167 -45 40.5s-32.5 12.5 -50.5 12.5c-20.667 0.666992 -39.667 -3 -57 -11
s-33.666 -21 -48.999 -39s-27.833 -42.667 -37.5 -74s-14.5 -71.666 -14.5 -120.999c0 -46 4.83301 -86.667 14.5 -122s22.167 -62.666 37.5 -81.999zM183.006 790.998l153 -89l-23 -42l-170 61z" />
    <glyph glyph-name="Oacute" unicode="&#xd3;" 
d="M254 -10c-34 0 -64.8271 7.83496 -92.4941 23.502s-51.334 37.667 -71.001 66s-34.834 62.333 -45.501 102s-16 83.5 -16 131.5s5.5 91.667 16.5 131s26.5 72.666 46.5 99.999s44 48.5 72 63.5s58.667 22.5 92 22.5c29.333 0 56.666 -6.33301 81.999 -19
s48.5 -31.834 69.5 -57.501s36.833 -58.5 47.5 -98.5s16 -87.667 16 -143c0 -60 -6.33301 -110.5 -19 -151.5s-29.334 -74.167 -50.001 -99.5s-43.834 -43.5 -69.501 -54.5s-51.834 -16.5 -78.501 -16.5zM150.006 115.002c31.333 -37.333 66 -56.0039 104 -56.0039
c18 0 35.667 3.83301 53 11.5s33.166 21.167 47.499 40.5s25.666 45.333 33.999 78s12.5 74.334 12.5 125.001c0 49.333 -4.66699 89.833 -14 121.5s-21.166 56.834 -35.499 75.501s-29.333 32.167 -45 40.5s-32.5 12.5 -50.5 12.5c-20.667 0.666992 -39.667 -3 -57 -11
s-33.666 -21 -48.999 -39s-27.833 -42.667 -37.5 -74s-14.5 -71.666 -14.5 -120.999c0 -46 4.83301 -86.667 14.5 -122s22.167 -62.666 37.5 -81.999zM325.006 790.998l40 -70l-169 -61l-23 42z" />
    <glyph glyph-name="Ocircumflex" unicode="&#xd4;" 
d="M254 -10c-34 0 -64.8271 7.83496 -92.4941 23.502s-51.334 37.667 -71.001 66s-34.834 62.333 -45.501 102s-16 83.5 -16 131.5s5.5 91.667 16.5 131s26.5 72.666 46.5 99.999s44 48.5 72 63.5s58.667 22.5 92 22.5c29.333 0 56.666 -6.33301 81.999 -19
s48.5 -31.834 69.5 -57.501s36.833 -58.5 47.5 -98.5s16 -87.667 16 -143c0 -60 -6.33301 -110.5 -19 -151.5s-29.334 -74.167 -50.001 -99.5s-43.834 -43.5 -69.501 -54.5s-51.834 -16.5 -78.501 -16.5zM150.006 115.002c31.333 -37.333 66 -56.0039 104 -56.0039
c18 0 35.667 3.83301 53 11.5s33.166 21.167 47.499 40.5s25.666 45.333 33.999 78s12.5 74.334 12.5 125.001c0 49.333 -4.66699 89.833 -14 121.5s-21.166 56.834 -35.499 75.501s-29.333 32.167 -45 40.5s-32.5 12.5 -50.5 12.5c-20.667 0.666992 -39.667 -3 -57 -11
s-33.666 -21 -48.999 -39s-27.833 -42.667 -37.5 -74s-14.5 -71.666 -14.5 -120.999c0 -46 4.83301 -86.667 14.5 -122s22.167 -62.666 37.5 -81.999zM114.006 691.998l131 99h22l123 -98l-33 -38l-103 71l-112 -68z" />
    <glyph glyph-name="Otilde" unicode="&#xd5;" 
d="M254 -10c-34 0 -64.8271 7.83496 -92.4941 23.502s-51.334 37.667 -71.001 66s-34.834 62.333 -45.501 102s-16 83.5 -16 131.5s5.5 91.667 16.5 131s26.5 72.666 46.5 99.999s44 48.5 72 63.5s58.667 22.5 92 22.5c29.333 0 56.666 -6.33301 81.999 -19
s48.5 -31.834 69.5 -57.501s36.833 -58.5 47.5 -98.5s16 -87.667 16 -143c0 -60 -6.33301 -110.5 -19 -151.5s-29.334 -74.167 -50.001 -99.5s-43.834 -43.5 -69.501 -54.5s-51.834 -16.5 -78.501 -16.5zM150.006 115.002c31.333 -37.333 66 -56.0039 104 -56.0039
c18 0 35.667 3.83301 53 11.5s33.166 21.167 47.499 40.5s25.666 45.333 33.999 78s12.5 74.334 12.5 125.001c0 49.333 -4.66699 89.833 -14 121.5s-21.166 56.834 -35.499 75.501s-29.333 32.167 -45 40.5s-32.5 12.5 -50.5 12.5c-20.667 0.666992 -39.667 -3 -57 -11
s-33.666 -21 -48.999 -39s-27.833 -42.667 -37.5 -74s-14.5 -71.666 -14.5 -120.999c0 -46 4.83301 -86.667 14.5 -122s22.167 -62.666 37.5 -81.999zM136.006 682.998l-45 32.001c36.667 58 74.334 87 113.001 87c12 0 24.5 -3.83301 37.5 -11.5s25.333 -16.334 37 -26.001
l31 -26c9 -7.66699 15.833 -11.5 20.5 -11.5c15.333 0 26.833 5.16699 34.5 15.5l27.5 37.5l38 -40c-20 -24 -37.333 -41.833 -52 -53.5s-29.667 -17.5 -45 -17.5s-29 4 -41 12s-23.167 16.667 -33.5 26l-28.5 26c-8.66699 8 -17 12 -25 12
c-14.667 0 -26.334 -4.5 -35.001 -13.5s-20 -25.167 -34 -48.5z" />
    <glyph glyph-name="Odieresis" unicode="&#xd6;" 
d="M254 -10c-34 0 -64.8271 7.83496 -92.4941 23.502s-51.334 37.667 -71.001 66s-34.834 62.333 -45.501 102s-16 83.5 -16 131.5s5.5 91.667 16.5 131s26.5 72.666 46.5 99.999s44 48.5 72 63.5s58.667 22.5 92 22.5c29.333 0 56.666 -6.33301 81.999 -19
s48.5 -31.834 69.5 -57.501s36.833 -58.5 47.5 -98.5s16 -87.667 16 -143c0 -60 -6.33301 -110.5 -19 -151.5s-29.334 -74.167 -50.001 -99.5s-43.834 -43.5 -69.501 -54.5s-51.834 -16.5 -78.501 -16.5zM150.006 115.002c31.333 -37.333 66 -56.0039 104 -56.0039
c18 0 35.667 3.83301 53 11.5s33.166 21.167 47.499 40.5s25.666 45.333 33.999 78s12.5 74.334 12.5 125.001c0 49.333 -4.66699 89.833 -14 121.5s-21.166 56.834 -35.499 75.501s-29.333 32.167 -45 40.5s-32.5 12.5 -50.5 12.5c-20.667 0.666992 -39.667 -3 -57 -11
s-33.666 -21 -48.999 -39s-27.833 -42.667 -37.5 -74s-14.5 -71.666 -14.5 -120.999c0 -46 4.83301 -86.667 14.5 -122s22.167 -62.666 37.5 -81.999zM193.006 773.998c10 -10 15 -21.999 15 -35.999c0 -13.333 -5 -25 -15 -35s-22 -15 -36 -15c-13.333 0 -25 5 -35 15
s-15 21.667 -15 35s5 25.166 15 35.499s21.667 15.5 35 15.5c14 0 26 -5 36 -15zM371.006 773.999c10 -10 15 -22 15 -36c0 -13.333 -5 -25 -15 -35s-22 -15 -36 -15c-13.333 0 -24.833 4.83301 -34.5 14.5s-14.5 21.5 -14.5 35.5s4.83301 26 14.5 36s21.167 15 34.5 15
c14 0 26 -5 36 -15z" />
    <glyph glyph-name="multiply" unicode="&#xd7;" 
d="M382 503l48 -44l-130 -134l127 -134l-46 -46l-127 133l-125 -129l-44 44l126 131l-126 133l47 46l124 -131z" />
    <glyph glyph-name="Oslash" unicode="&#xd8;" 
d="M150 513c-15.333 -17.333 -27.834 -42.501 -37.501 -75.501s-14.5 -71.5 -14.5 -115.5c0 -73.333 11.333 -132.333 34 -177l204 383c-25.333 24 -53.333 36 -84 36c-17.333 0 -34.666 -4.16699 -51.999 -12.5s-34 -21.166 -50 -38.499zM412.999 544.999
c38.667 -52.667 58 -131.001 58 -235.001c0 -61.333 -6.33301 -112.333 -19 -153s-29.334 -73.5 -50.001 -98.5s-44 -42.667 -70 -53s-52 -15.5 -78 -15.5c-19.333 0 -38.833 3.16699 -58.5 9.5s-38.834 16.5 -57.501 30.5l-50 -93l-52 27l59 110
c-44 56.667 -66 136.334 -66 239.001c0 47.333 5.33301 90.5 16 129.5s25.834 72.333 45.501 100s43.334 49.167 71.001 64.5s58.5 23 92.5 23c20 0 39.833 -3.33301 59.5 -10s38.167 -16.667 55.5 -30l46 87l54 -29zM373.999 471.998l-203.001 -380.001
c24.667 -22 50.334 -33 77.001 -33c50 0 88 20.833 114 62.5s39 105.834 39 192.501c0 66 -9 118.667 -27 158z" />
    <glyph glyph-name="Ugrave" unicode="&#xd9;" 
d="M50 623l79.0049 0.000976562c0.666992 0 1 -0.666992 1 -2c0 -2.66699 -1.5 -6.5 -4.5 -11.5s-5.16699 -11.167 -6.5 -18.5v-377c0 -34.667 3.33301 -61.5 10 -80.5s16 -34.667 28 -47s26.167 -21.5 42.5 -27.5s33.833 -9.66699 52.5 -11
c18.667 1.33301 36.167 4.66602 52.5 9.99902s30.666 14.5 42.999 27.5s22 29.167 29 48.5s10.5 47 10.5 83v406h67v-405c0 -40.667 -4.5 -75 -13.5 -103s-22.833 -51.333 -41.5 -70s-40.334 -32.667 -65.001 -42s-52.334 -14 -83.001 -14c-30 0 -57.333 4.66699 -82 14
s-45.834 23 -63.501 41s-31.334 40 -41.001 66s-14.5 61 -14.5 105v408zM182.005 791.001l153 -89l-23 -42l-170 61z" />
    <glyph glyph-name="Uacute" unicode="&#xda;" 
d="M50 623l79.0049 0.000976562c0.666992 0 1 -0.666992 1 -2c0 -2.66699 -1.5 -6.5 -4.5 -11.5s-5.16699 -11.167 -6.5 -18.5v-377c0 -34.667 3.33301 -61.5 10 -80.5s16 -34.667 28 -47s26.167 -21.5 42.5 -27.5s33.833 -9.66699 52.5 -11
c18.667 1.33301 36.167 4.66602 52.5 9.99902s30.666 14.5 42.999 27.5s22 29.167 29 48.5s10.5 47 10.5 83v406h67v-405c0 -40.667 -4.5 -75 -13.5 -103s-22.833 -51.333 -41.5 -70s-40.334 -32.667 -65.001 -42s-52.334 -14 -83.001 -14c-30 0 -57.333 4.66699 -82 14
s-45.834 23 -63.501 41s-31.334 40 -41.001 66s-14.5 61 -14.5 105v408zM325.005 791.001l40 -70l-169 -61l-23 42z" />
    <glyph glyph-name="Ucircumflex" unicode="&#xdb;" 
d="M50 623l79.0049 0.000976562c0.666992 0 1 -0.666992 1 -2c0 -2.66699 -1.5 -6.5 -4.5 -11.5s-5.16699 -11.167 -6.5 -18.5v-377c0 -34.667 3.33301 -61.5 10 -80.5s16 -34.667 28 -47s26.167 -21.5 42.5 -27.5s33.833 -9.66699 52.5 -11
c18.667 1.33301 36.167 4.66602 52.5 9.99902s30.666 14.5 42.999 27.5s22 29.167 29 48.5s10.5 47 10.5 83v406h67v-405c0 -40.667 -4.5 -75 -13.5 -103s-22.833 -51.333 -41.5 -70s-40.334 -32.667 -65.001 -42s-52.334 -14 -83.001 -14c-30 0 -57.333 4.66699 -82 14
s-45.834 23 -63.501 41s-31.334 40 -41.001 66s-14.5 61 -14.5 105v408zM114.005 692.001l131 99h22l123 -98l-33 -38l-103 71l-112 -68z" />
    <glyph glyph-name="Udieresis" unicode="&#xdc;" 
d="M50 623l79.0049 0.000976562c0.666992 0 1 -0.666992 1 -2c0 -2.66699 -1.5 -6.5 -4.5 -11.5s-5.16699 -11.167 -6.5 -18.5v-377c0 -34.667 3.33301 -61.5 10 -80.5s16 -34.667 28 -47s26.167 -21.5 42.5 -27.5s33.833 -9.66699 52.5 -11
c18.667 1.33301 36.167 4.66602 52.5 9.99902s30.666 14.5 42.999 27.5s22 29.167 29 48.5s10.5 47 10.5 83v406h67v-405c0 -40.667 -4.5 -75 -13.5 -103s-22.833 -51.333 -41.5 -70s-40.334 -32.667 -65.001 -42s-52.334 -14 -83.001 -14c-30 0 -57.333 4.66699 -82 14
s-45.834 23 -63.501 41s-31.334 40 -41.001 66s-14.5 61 -14.5 105v408zM201.005 774.001c10 -10 15 -21.999 15 -35.999c0 -13.333 -5 -25 -15 -35s-22 -15 -36 -15c-13.333 0 -25 5 -35 15s-15 21.667 -15 35s5 25.166 15 35.499s21.667 15.5 35 15.5c14 0 26 -5 36 -15z
M379.005 774.002c10 -10 15 -22 15 -36c0 -13.333 -5 -25 -15 -35s-22 -15 -36 -15c-13.333 0 -24.833 4.83301 -34.5 14.5s-14.5 21.5 -14.5 35.5s4.83301 26 14.5 36s21.167 15 34.5 15c14 0 26 -5 36 -15z" />
    <glyph glyph-name="Yacute" unicode="&#xdd;" 
d="M28 623h80l153 -302l138 302h74l-177 -377v-246h-76v246zM325 791l40 -70l-169 -61l-23 42z" />
    <glyph glyph-name="Thorn" unicode="&#xde;" 
d="M59 623h77.999c1.33301 -1.33301 2 -2.33301 2 -3c0 -2 -1.33301 -5.16699 -4 -9.5s-4.66699 -9.5 -6 -15.5v-89h130c34.667 0 64.167 -4.66699 88.5 -14s44.333 -22 60 -38s27.334 -34.667 35.001 -56s12.167 -44 13.5 -68c-1.33301 -24 -5.83301 -46.5 -13.5 -67.5
s-19 -39.167 -34 -54.5s-34.333 -27.5 -58 -36.5s-52.5 -13.5 -86.5 -13.5h-135v-158h-70v623zM128.999 440v-221h135c21.333 0 39.333 2.83301 54 8.5s26.834 13.334 36.501 23.001s16.667 21.167 21 34.5s7.16602 27.666 8.49902 42.999
c-1.33301 15.333 -4.5 29.833 -9.5 43.5s-12.5 25.5 -22.5 35.5s-22.833 18 -38.5 24s-34.5 9 -56.5 9h-128z" />
    <glyph glyph-name="germandbls" unicode="&#xdf;" 
d="M55 0l-0.00195312 422.999c0 82.667 16.667 144.334 50 185.001s78 61 134 61c24.667 0 48 -4.83301 70 -14.5s41.167 -22.5 57.5 -38.5s29.333 -34.667 39 -56s14.5 -43.666 14.5 -66.999c0 -28.667 -7 -55 -21 -79s-33.333 -42.333 -58 -55
c18.667 -6 35.667 -14.667 51 -26s28.333 -24.833 39 -40.5s18.834 -33 24.501 -52s8.5 -38.833 8.5 -59.5c0 -27.333 -4.66699 -52.5 -14 -75.5s-22.333 -43.167 -39 -60.5s-36 -30.833 -58 -40.5s-46 -14.5 -72 -14.5c-38.667 0 -73.334 10.333 -104.001 31l35 56
c20 -16 44.333 -24 73 -24c14 0 27.833 3.5 41.5 10.5s25.834 16 36.501 27s19.167 23.667 25.5 38s9.5 29.166 9.5 44.499c-1.33301 22.667 -5.16602 43.334 -11.499 62.001s-15.5 34.5 -27.5 47.5s-27.5 23 -46.5 30s-41.833 10.5 -68.5 10.5h-30v57h36
c12 0 24.167 2.33301 36.5 7s23.333 12 33 22s17.5 22.5 23.5 37.5s9 33.167 9 54.5c0 14 -2.83301 27.667 -8.5 41s-13.667 25.166 -24 35.499s-22.5 18.5 -36.5 24.5s-29.333 9 -46 9c-18 0 -34 -4.5 -48 -13.5s-26 -21.667 -36 -38s-17.5 -35.833 -22.5 -58.5
s-7.5 -48 -7.5 -76v-425h-68z" />
    <glyph glyph-name="agrave" unicode="&#xe0;" 
d="M91 403c40.667 42.667 95 64 163 64c56 0 100.167 -14.167 132.5 -42.5s48.5 -75.5 48.5 -141.5v-283h-68v50c-48.667 -40.667 -103.334 -61 -164.001 -61c-24 0 -45.5 3.66699 -64.5 11s-35.167 17 -48.5 29s-23.5 25.667 -30.5 41s-10.5 30.666 -10.5 45.999
c0 46 19.833 82.333 59.5 109s96.834 41.334 171.501 44.001h86v17c0 45.333 -9.5 77 -28.5 95s-48.5 27 -88.5 27c-49.333 0 -90.333 -17 -123 -51zM369 214l-17.001 -0.000976562c-9.33301 0 -18.166 0.166992 -26.499 0.5s-16.5 0.5 -24.5 0.5
c-36.667 0 -66.667 -2.5 -90 -7.5s-41.666 -11.833 -54.999 -20.5s-22.5 -18.5 -27.5 -29.5s-7.5 -22.833 -7.5 -35.5c0 -21.333 9.33301 -39.666 28 -54.999s41.667 -23 69 -23c20 0 38 3.16699 54 9.5s30 14 42 23s21.667 18.333 29 28s12.666 18.167 15.999 25.5
c6.66699 13.333 10 31.333 10 54v30zM242.999 698.999l88 -147l-50 -30l-101 135z" />
    <glyph glyph-name="aacute" unicode="&#xe1;" 
d="M91 403c40.667 42.667 95 64 163 64c56 0 100.167 -14.167 132.5 -42.5s48.5 -75.5 48.5 -141.5v-283h-68v50c-48.667 -40.667 -103.334 -61 -164.001 -61c-24 0 -45.5 3.66699 -64.5 11s-35.167 17 -48.5 29s-23.5 25.667 -30.5 41s-10.5 30.666 -10.5 45.999
c0 46 19.833 82.333 59.5 109s96.834 41.334 171.501 44.001h86v17c0 45.333 -9.5 77 -28.5 95s-48.5 27 -88.5 27c-49.333 0 -90.333 -17 -123 -51zM369 214l-17.001 -0.000976562c-9.33301 0 -18.166 0.166992 -26.499 0.5s-16.5 0.5 -24.5 0.5
c-36.667 0 -66.667 -2.5 -90 -7.5s-41.666 -11.833 -54.999 -20.5s-22.5 -18.5 -27.5 -29.5s-7.5 -22.833 -7.5 -35.5c0 -21.333 9.33301 -39.666 28 -54.999s41.667 -23 69 -23c20 0 38 3.16699 54 9.5s30 14 42 23s21.667 18.333 29 28s12.666 18.167 15.999 25.5
c6.66699 13.333 10 31.333 10 54v30zM291.999 698.999l63 -42l-101 -135l-50 30z" />
    <glyph glyph-name="acircumflex" unicode="&#xe2;" 
d="M91 403c40.667 42.667 95 64 163 64c56 0 100.167 -14.167 132.5 -42.5s48.5 -75.5 48.5 -141.5v-283h-68v50c-48.667 -40.667 -103.334 -61 -164.001 -61c-24 0 -45.5 3.66699 -64.5 11s-35.167 17 -48.5 29s-23.5 25.667 -30.5 41s-10.5 30.666 -10.5 45.999
c0 46 19.833 82.333 59.5 109s96.834 41.334 171.501 44.001h86v17c0 45.333 -9.5 77 -28.5 95s-48.5 27 -88.5 27c-49.333 0 -90.333 -17 -123 -51zM369 214l-17.001 -0.000976562c-9.33301 0 -18.166 0.166992 -26.499 0.5s-16.5 0.5 -24.5 0.5
c-36.667 0 -66.667 -2.5 -90 -7.5s-41.666 -11.833 -54.999 -20.5s-22.5 -18.5 -27.5 -29.5s-7.5 -22.833 -7.5 -35.5c0 -21.333 9.33301 -39.666 28 -54.999s41.667 -23 69 -23c20 0 38 3.16699 54 9.5s30 14 42 23s21.667 18.333 29 28s12.666 18.167 15.999 25.5
c6.66699 13.333 10 31.333 10 54v30zM140.999 544.999l111 140h22l110 -141l-46 -35l-78 103l-81 -102z" />
    <glyph glyph-name="atilde" unicode="&#xe3;" 
d="M91 403c40.667 42.667 95 64 163 64c56 0 100.167 -14.167 132.5 -42.5s48.5 -75.5 48.5 -141.5v-283h-68v50c-48.667 -40.667 -103.334 -61 -164.001 -61c-24 0 -45.5 3.66699 -64.5 11s-35.167 17 -48.5 29s-23.5 25.667 -30.5 41s-10.5 30.666 -10.5 45.999
c0 46 19.833 82.333 59.5 109s96.834 41.334 171.501 44.001h86v17c0 45.333 -9.5 77 -28.5 95s-48.5 27 -88.5 27c-49.333 0 -90.333 -17 -123 -51zM369 214l-17.001 -0.000976562c-9.33301 0 -18.166 0.166992 -26.499 0.5s-16.5 0.5 -24.5 0.5
c-36.667 0 -66.667 -2.5 -90 -7.5s-41.666 -11.833 -54.999 -20.5s-22.5 -18.5 -27.5 -29.5s-7.5 -22.833 -7.5 -35.5c0 -21.333 9.33301 -39.666 28 -54.999s41.667 -23 69 -23c20 0 38 3.16699 54 9.5s30 14 42 23s21.667 18.333 29 28s12.666 18.167 15.999 25.5
c6.66699 13.333 10 31.333 10 54v30zM143.999 556.999l-44.0029 32.002c36 58 73.667 87 113 87c12 0 24.833 -3.83301 38.5 -11.5s25.834 -16.334 36.501 -26.001l29.5 -26c9 -7.66699 15.833 -11.5 20.5 -11.5c8 0 14.833 1.33301 20.5 4s10.667 6.5 15 11.5
s8.5 10.667 12.5 17s9 13.166 15 20.499l37 -40c-20 -24 -37.167 -41.833 -51.5 -53.5s-29.166 -17.5 -44.499 -17.5s-29.166 4 -41.499 12s-23.166 16.667 -32.499 26s-18.666 18 -27.999 26s-18 12 -26 12c-14.667 0 -26.334 -4.5 -35.001 -13.5
s-20.334 -25.167 -35.001 -48.5z" />
    <glyph glyph-name="adieresis" unicode="&#xe4;" 
d="M91 403c40.667 42.667 95 64 163 64c56 0 100.167 -14.167 132.5 -42.5s48.5 -75.5 48.5 -141.5v-283h-68v50c-48.667 -40.667 -103.334 -61 -164.001 -61c-24 0 -45.5 3.66699 -64.5 11s-35.167 17 -48.5 29s-23.5 25.667 -30.5 41s-10.5 30.666 -10.5 45.999
c0 46 19.833 82.333 59.5 109s96.834 41.334 171.501 44.001h86v17c0 45.333 -9.5 77 -28.5 95s-48.5 27 -88.5 27c-49.333 0 -90.333 -17 -123 -51zM369 214l-17.001 -0.000976562c-9.33301 0 -18.166 0.166992 -26.499 0.5s-16.5 0.5 -24.5 0.5
c-36.667 0 -66.667 -2.5 -90 -7.5s-41.666 -11.833 -54.999 -20.5s-22.5 -18.5 -27.5 -29.5s-7.5 -22.833 -7.5 -35.5c0 -21.333 9.33301 -39.666 28 -54.999s41.667 -23 69 -23c20 0 38 3.16699 54 9.5s30 14 42 23s21.667 18.333 29 28s12.666 18.167 15.999 25.5
c6.66699 13.333 10 31.333 10 54v30zM209.999 649.999c10 -10 15 -21.999 15 -35.999c0 -13.333 -5 -25 -15 -35s-21.667 -15 -35 -15c-14 0 -26 5 -36 15s-15 21.667 -15 35s5 25.166 15 35.499s22 15.5 36 15.5c13.333 0 25 -5 35 -15zM387.999 650c10 -10 15 -22 15 -36
c0 -13.333 -5 -25 -15 -35s-21.667 -15 -35 -15c-14 0 -25.833 4.83301 -35.5 14.5s-14.5 21.5 -14.5 35.5s4.83301 26 14.5 36s21.5 15 35.5 15c13.333 0 25 -5 35 -15z" />
    <glyph glyph-name="aring" unicode="&#xe5;" 
d="M91 403c40.667 42.667 95 64 163 64c56 0 100.167 -14.167 132.5 -42.5s48.5 -75.5 48.5 -141.5v-283h-68v50c-48.667 -40.667 -103.334 -61 -164.001 -61c-24 0 -45.5 3.66699 -64.5 11s-35.167 17 -48.5 29s-23.5 25.667 -30.5 41s-10.5 30.666 -10.5 45.999
c0 46 19.833 82.333 59.5 109s96.834 41.334 171.501 44.001h86v17c0 45.333 -9.5 77 -28.5 95s-48.5 27 -88.5 27c-49.333 0 -90.333 -17 -123 -51zM369 214l-17.001 -0.000976562c-9.33301 0 -18.166 0.166992 -26.499 0.5s-16.5 0.5 -24.5 0.5
c-36.667 0 -66.667 -2.5 -90 -7.5s-41.666 -11.833 -54.999 -20.5s-22.5 -18.5 -27.5 -29.5s-7.5 -22.833 -7.5 -35.5c0 -21.333 9.33301 -39.666 28 -54.999s41.667 -23 69 -23c20 0 38 3.16699 54 9.5s30 14 42 23s21.667 18.333 29 28s12.666 18.167 15.999 25.5
c6.66699 13.333 10 31.333 10 54v30zM320.999 666.999c18 -18 26.998 -38.667 26.998 -62c0 -12 -2.5 -23.333 -7.5 -34s-11.667 -20 -20 -28s-18.166 -14.333 -29.499 -19s-23 -7 -35 -7s-23.5 2.33301 -34.5 7s-20.667 11 -29 19s-15 17.333 -20 28s-7.5 22 -7.5 34
s2.5 23.333 7.5 34s11.667 20 20 28s18 14.333 29 19s22.5 7 34.5 7c24.667 0 46.334 -8.66699 65.001 -26zM256.997 651.999c-11.333 0 -21 -4.5 -29 -13.5s-12 -19.833 -12 -32.5s4 -23.5 12 -32.5s17.667 -13.5 29 -13.5s21.166 4.5 29.499 13.5s12.5 19.833 12.5 32.5
s-4.16699 23.5 -12.5 32.5s-18.166 13.5 -29.499 13.5z" />
    <glyph glyph-name="ae" unicode="&#xe6;" 
d="M31 412c28.667 36.667 67.3291 55 115.996 55c24 0 45.833 -5.5 65.5 -16.5s34.834 -26.167 45.501 -45.5c11.333 19.333 26.5 34.5 45.5 45.5s38.5 16.5 58.5 16.5c45.333 0 78 -17.667 98 -53s30 -84 30 -146v-38l-208 -7v-48c0 -38.667 9.33301 -69.667 28 -93
s44 -35 76 -35c30.667 0 55 12.333 73 37l35 -42c-29.333 -35.333 -67.333 -53 -114 -53c-25.333 0 -49.166 6.16699 -71.499 18.5s-40.166 29.166 -53.499 50.499c-11.333 -21.333 -27 -38.166 -47 -50.499s-42 -18.5 -66 -18.5c-19.333 0 -37.166 4 -53.499 12
s-30.333 18.333 -42 31s-20.667 27 -27 43s-9.5 32 -9.5 48c0 46 17 82.833 51 110.5s79.667 42.5 137 44.5l23 1v26c0 32.667 -7.33301 58.5 -22 77.5s-33.667 28.5 -57 28.5c-30 0 -55.333 -14.333 -76 -43zM220.995 219l-22 -1.00391c-24.667 -1.33301 -45 -4.5 -61 -9.5
s-28.833 -11.667 -38.5 -20s-16.334 -18.166 -20.001 -29.499s-5.5 -23.666 -5.5 -36.999c0 -9.33301 2 -18.166 6 -26.499s9.33301 -16 16 -23s14.167 -12.5 22.5 -16.5s16.833 -6 25.5 -6c28.667 0 48.834 8.83301 60.501 26.5s17.5 44.834 17.5 81.501
c0 4 -0.166992 7.83301 -0.5 11.5s-0.5 7.5 -0.5 11.5v38zM281.995 278.996l150 5v21c0 32.667 -6.16699 58.5 -18.5 77.5s-29.5 28.5 -51.5 28.5c-24 0 -43.333 -11 -58 -33s-22 -49.333 -22 -82v-17z" />
    <glyph glyph-name="ccedilla" unicode="&#xe7;" 
d="M327 -109c0 16 -15.6641 23.999 -46.9971 23.999h-30l10 75c-29.333 2.66699 -56.5 10.5 -81.5 23.5s-46.5 30 -64.5 51s-32.167 45.667 -42.5 74s-15.5 59.166 -15.5 92.499c0 32.667 5.66699 63.334 17 92.001s27.166 53.667 47.499 75s44.666 38 72.999 50
s59.166 18 92.499 18c36 0 68.833 -7.5 98.5 -22.5s53.834 -35.833 72.501 -62.5l-51 -59c-3.33301 2 -5.16602 4.16699 -5.49902 6.5s-0.333008 5.5 0 9.5s-1.83398 9 -6.50098 15s-13 14 -25 24c-22.667 18.667 -53.667 28 -93 28c-19.333 0 -37.833 -4 -55.5 -12
s-33.167 -19.5 -46.5 -34.5s-24 -33 -32 -54s-12 -44.5 -12 -70.5s4 -50 12 -72s19 -41 33 -57s30.667 -28.5 50 -37.5s40.666 -13.5 63.999 -13.5c46 0 85.667 18.667 119 56l42 -49c-39.333 -42 -88 -65.667 -146 -71l-5 -37l17 -1c45.333 -3.33301 68 -21.666 68 -54.999
c0 -18.667 -9.5 -35.667 -28.5 -51s-48.167 -23 -87.5 -23s-76.333 12.333 -111 37l25 42c28.667 -24 61.667 -36 99 -36c17.333 0 29.333 2.5 36 7.5s10 10.833 10 17.5z" />
    <glyph glyph-name="egrave" unicode="&#xe8;" 
d="M259 468c24 0 47.334 -4.33301 70.001 -13s42.5 -21.834 59.5 -39.501s30.667 -40.167 41 -67.5s15.5 -59.666 15.5 -96.999c0 -5.33301 -0.166992 -10.833 -0.5 -16.5s-0.833008 -11.167 -1.5 -16.5h-325c1.33301 -32 6.83301 -58.833 16.5 -80.5
s21.834 -39.167 36.501 -52.5s31 -22.833 49 -28.5s36 -8.5 54 -8.5c47.333 0 86.666 17 117.999 51l40 -39c-38.667 -46.667 -92 -70 -160 -70c-33.333 0 -63.833 5.16699 -91.5 15.5s-51.167 25.5 -70.5 45.5s-34.333 44.833 -45 74.5s-16 63.5 -16 101.5
c0 38.667 5.5 73 16.5 103s26 55.167 45 75.5s41.167 35.833 66.5 46.5s52.666 16 81.999 16zM121.001 274l250.999 0.000976562c0 2.66699 0.166992 5.16699 0.5 7.5s0.5 5.16602 0.5 8.49902c0 16.667 -3.16699 32.5 -9.5 47.5s-14.833 28 -25.5 39
s-23.167 19.833 -37.5 26.5s-29.833 10 -46.5 10c-31.333 0 -59.666 -11.167 -84.999 -33.5s-41.333 -57.5 -48 -105.5zM243 699.001l88 -147l-50 -30l-101 135z" />
    <glyph glyph-name="eacute" unicode="&#xe9;" 
d="M259 468c24 0 47.334 -4.33301 70.001 -13s42.5 -21.834 59.5 -39.501s30.667 -40.167 41 -67.5s15.5 -59.666 15.5 -96.999c0 -5.33301 -0.166992 -10.833 -0.5 -16.5s-0.833008 -11.167 -1.5 -16.5h-325c1.33301 -32 6.83301 -58.833 16.5 -80.5
s21.834 -39.167 36.501 -52.5s31 -22.833 49 -28.5s36 -8.5 54 -8.5c47.333 0 86.666 17 117.999 51l40 -39c-38.667 -46.667 -92 -70 -160 -70c-33.333 0 -63.833 5.16699 -91.5 15.5s-51.167 25.5 -70.5 45.5s-34.333 44.833 -45 74.5s-16 63.5 -16 101.5
c0 38.667 5.5 73 16.5 103s26 55.167 45 75.5s41.167 35.833 66.5 46.5s52.666 16 81.999 16zM121.001 274l250.999 0.000976562c0 2.66699 0.166992 5.16699 0.5 7.5s0.5 5.16602 0.5 8.49902c0 16.667 -3.16699 32.5 -9.5 47.5s-14.833 28 -25.5 39
s-23.167 19.833 -37.5 26.5s-29.833 10 -46.5 10c-31.333 0 -59.666 -11.167 -84.999 -33.5s-41.333 -57.5 -48 -105.5zM292 699.001l63 -42l-101 -135l-50 30z" />
    <glyph glyph-name="ecircumflex" unicode="&#xea;" 
d="M259 468c24 0 47.334 -4.33301 70.001 -13s42.5 -21.834 59.5 -39.501s30.667 -40.167 41 -67.5s15.5 -59.666 15.5 -96.999c0 -5.33301 -0.166992 -10.833 -0.5 -16.5s-0.833008 -11.167 -1.5 -16.5h-325c1.33301 -32 6.83301 -58.833 16.5 -80.5
s21.834 -39.167 36.501 -52.5s31 -22.833 49 -28.5s36 -8.5 54 -8.5c47.333 0 86.666 17 117.999 51l40 -39c-38.667 -46.667 -92 -70 -160 -70c-33.333 0 -63.833 5.16699 -91.5 15.5s-51.167 25.5 -70.5 45.5s-34.333 44.833 -45 74.5s-16 63.5 -16 101.5
c0 38.667 5.5 73 16.5 103s26 55.167 45 75.5s41.167 35.833 66.5 46.5s52.666 16 81.999 16zM121.001 274l250.999 0.000976562c0 2.66699 0.166992 5.16699 0.5 7.5s0.5 5.16602 0.5 8.49902c0 16.667 -3.16699 32.5 -9.5 47.5s-14.833 28 -25.5 39
s-23.167 19.833 -37.5 26.5s-29.833 10 -46.5 10c-31.333 0 -59.666 -11.167 -84.999 -33.5s-41.333 -57.5 -48 -105.5zM134 545.001l111 140h22l110 -141l-46 -35l-78 103l-81 -102z" />
    <glyph glyph-name="edieresis" unicode="&#xeb;" 
d="M259 468c24 0 47.334 -4.33301 70.001 -13s42.5 -21.834 59.5 -39.501s30.667 -40.167 41 -67.5s15.5 -59.666 15.5 -96.999c0 -5.33301 -0.166992 -10.833 -0.5 -16.5s-0.833008 -11.167 -1.5 -16.5h-325c1.33301 -32 6.83301 -58.833 16.5 -80.5
s21.834 -39.167 36.501 -52.5s31 -22.833 49 -28.5s36 -8.5 54 -8.5c47.333 0 86.666 17 117.999 51l40 -39c-38.667 -46.667 -92 -70 -160 -70c-33.333 0 -63.833 5.16699 -91.5 15.5s-51.167 25.5 -70.5 45.5s-34.333 44.833 -45 74.5s-16 63.5 -16 101.5
c0 38.667 5.5 73 16.5 103s26 55.167 45 75.5s41.167 35.833 66.5 46.5s52.666 16 81.999 16zM121.001 274l250.999 0.000976562c0 2.66699 0.166992 5.16699 0.5 7.5s0.5 5.16602 0.5 8.49902c0 16.667 -3.16699 32.5 -9.5 47.5s-14.833 28 -25.5 39
s-23.167 19.833 -37.5 26.5s-29.833 10 -46.5 10c-31.333 0 -59.666 -11.167 -84.999 -33.5s-41.333 -57.5 -48 -105.5zM199 650.001c10 -10 15 -21.999 15 -35.999c0 -13.333 -5 -25 -15 -35s-21.667 -15 -35 -15c-14 0 -26 5 -36 15s-15 21.667 -15 35s5 25.166 15 35.499
s22 15.5 36 15.5c13.333 0 25 -5 35 -15zM377 650.002c10 -10 15 -22 15 -36c0 -13.333 -5 -25 -15 -35s-21.667 -15 -35 -15c-14 0 -25.833 4.83301 -35.5 14.5s-14.5 21.5 -14.5 35.5s4.83301 26 14.5 36s21.5 15 35.5 15c13.333 0 25 -5 35 -15z" />
    <glyph glyph-name="igrave" unicode="&#xec;" 
d="M106 457h183v-399h107v-58h-296v58h117v341h-111v58zM193 699l88 -147l-50 -30l-101 135z" />
    <glyph glyph-name="iacute" unicode="&#xed;" 
d="M106 457h183v-399h107v-58h-296v58h117v341h-111v58zM284 699l63 -42l-101 -135l-50 30z" />
    <glyph glyph-name="icircumflex" unicode="&#xee;" 
d="M106 457h183v-399h107v-58h-296v58h117v341h-111v58zM114 545l111 140h22l110 -141l-46 -35l-78 103l-81 -102z" />
    <glyph glyph-name="idieresis" unicode="&#xef;" 
d="M106 457h183v-399h107v-58h-296v58h117v341h-111v58zM190 650c10 -10 15 -21.999 15 -35.999c0 -13.333 -5 -25 -15 -35s-21.667 -15 -35 -15c-14 0 -26 5 -36 15s-15 21.667 -15 35s5 25.166 15 35.499s22 15.5 36 15.5c13.333 0 25 -5 35 -15zM368 650.001
c10 -10 15 -22 15 -36c0 -13.333 -5 -25 -15 -35s-21.667 -15 -35 -15c-14 0 -25.833 4.83301 -35.5 14.5s-14.5 21.5 -14.5 35.5s4.83301 26 14.5 36s21.5 15 35.5 15c13.333 0 25 -5 35 -15z" />
    <glyph glyph-name="eth" unicode="&#xf0;" 
d="M256 50c16.667 0 32.835 3.50098 48.502 10.501s29.667 18 42 33s22.166 33.833 29.499 56.5s11 50 11 82s-4 59.167 -12 81.5s-18.5 40.333 -31.5 54s-27.333 23.5 -43 29.5s-31.5 9 -47.5 9s-32.167 -3.66699 -48.5 -11s-31 -18.333 -44 -33
s-23.5 -32.834 -31.5 -54.501s-12 -46.834 -12 -75.501c0 -27.333 3.66699 -52.166 11 -74.499s17.166 -41.5 29.499 -57.5s27 -28.333 44 -37s35.167 -13 54.5 -13zM347.001 570.001c75.333 -85.333 113.003 -190.998 113.003 -316.998c0 -40 -4.5 -76.333 -13.5 -109
s-22 -60.5 -39 -83.5s-38.333 -40.833 -64 -53.5s-54.834 -19 -87.501 -19c-29.333 0 -57 5.83301 -83 17.5s-48.833 28 -68.5 49s-35.334 45.833 -47.001 74.5s-17.5 60 -17.5 94c0 33.333 5.66699 64.833 17 94.5s26.5 55.5 45.5 77.5s40.667 39.5 65 52.5
s49.166 19.5 74.499 19.5c52 0 94.333 -17.333 127 -52c-10.667 25.333 -23 49.5 -37 72.5s-30.333 44.5 -49 64.5l-128 -36l-18 48l104 28c-30 25.333 -64 46.666 -102 63.999l81 16c30 -16.667 59 -37.334 87 -62.001l108 29l17 -44z" />
    <glyph glyph-name="ntilde" unicode="&#xf1;" 
d="M68 0l-0.000976562 456.999h74v-81c17.333 28 39.5 50.333 66.5 67s54.5 25 82.5 25c20 0 38.667 -3.5 56 -10.5s32.333 -18.167 45 -33.5s22.5 -35 29.5 -59s10.5 -53.333 10.5 -88v-277h-71v275c0 48 -8.16699 81.667 -24.5 101s-36.166 29 -59.499 29
c-15.333 0 -31 -3.33301 -47 -10s-30.5 -16.167 -43.5 -28.5s-23.667 -27.166 -32 -44.499s-12.5 -37 -12.5 -59v-263h-74zM130.999 556.999l-44.0029 32.002c36 58 73.667 87 113 87c12 0 24.833 -3.83301 38.5 -11.5s25.834 -16.334 36.501 -26.001l29.5 -26
c9 -7.66699 15.833 -11.5 20.5 -11.5c8 0 14.833 1.33301 20.5 4s10.667 6.5 15 11.5s8.5 10.667 12.5 17s9 13.166 15 20.499l37 -40c-20 -24 -37.167 -41.833 -51.5 -53.5s-29.166 -17.5 -44.499 -17.5s-29.166 4 -41.499 12s-23.166 16.667 -32.499 26
s-18.666 18 -27.999 26s-18 12 -26 12c-14.667 0 -26.334 -4.5 -35.001 -13.5s-20.334 -25.167 -35.001 -48.5z" />
    <glyph glyph-name="ograve" unicode="&#xf2;" 
d="M254 467c28 0 54.499 -5.49902 79.499 -16.499s46.833 -26.833 65.5 -47.5s33.5 -45.834 44.5 -75.501s16.5 -62.834 16.5 -99.501c0 -37.333 -5.33301 -70.666 -16 -99.999s-25.334 -54.5 -44.001 -75.5s-40.667 -37 -66 -48s-52.333 -16.5 -81 -16.5
c-29.333 0 -56.833 6 -82.5 18s-48.167 28.5 -67.5 49.5s-34.666 46.167 -45.999 75.5s-17 61 -17 95s5.83301 66 17.5 96s27.334 55.5 47.001 76.5s42.5 37.667 68.5 50s53 18.5 81 18.5zM387.999 226.001c0 28.667 -3.83301 54.168 -11.5 76.501
s-17.834 41.166 -30.501 56.499s-27.167 27 -43.5 35s-33.5 12 -51.5 12s-35.167 -4 -51.5 -12s-30.666 -19.667 -42.999 -35s-22.166 -33.833 -29.499 -55.5s-11 -46.167 -11 -73.5c0 -26.667 3.66699 -51 11 -73s17.166 -41 29.499 -57s26.833 -28.333 43.5 -37
s34.334 -13 53.001 -13s36.167 3.83301 52.5 11.5s30.666 19 42.999 34s22 33.5 29 55.5s10.5 47 10.5 75zM242.999 699.002l88 -147l-50 -30l-101 135z" />
    <glyph glyph-name="oacute" unicode="&#xf3;" 
d="M254 467c28 0 54.499 -5.49902 79.499 -16.499s46.833 -26.833 65.5 -47.5s33.5 -45.834 44.5 -75.501s16.5 -62.834 16.5 -99.501c0 -37.333 -5.33301 -70.666 -16 -99.999s-25.334 -54.5 -44.001 -75.5s-40.667 -37 -66 -48s-52.333 -16.5 -81 -16.5
c-29.333 0 -56.833 6 -82.5 18s-48.167 28.5 -67.5 49.5s-34.666 46.167 -45.999 75.5s-17 61 -17 95s5.83301 66 17.5 96s27.334 55.5 47.001 76.5s42.5 37.667 68.5 50s53 18.5 81 18.5zM387.999 226.001c0 28.667 -3.83301 54.168 -11.5 76.501
s-17.834 41.166 -30.501 56.499s-27.167 27 -43.5 35s-33.5 12 -51.5 12s-35.167 -4 -51.5 -12s-30.666 -19.667 -42.999 -35s-22.166 -33.833 -29.499 -55.5s-11 -46.167 -11 -73.5c0 -26.667 3.66699 -51 11 -73s17.166 -41 29.499 -57s26.833 -28.333 43.5 -37
s34.334 -13 53.001 -13s36.167 3.83301 52.5 11.5s30.666 19 42.999 34s22 33.5 29 55.5s10.5 47 10.5 75zM291.999 699.002l63 -42l-101 -135l-50 30z" />
    <glyph glyph-name="ocircumflex" unicode="&#xf4;" 
d="M254 467c28 0 54.499 -5.49902 79.499 -16.499s46.833 -26.833 65.5 -47.5s33.5 -45.834 44.5 -75.501s16.5 -62.834 16.5 -99.501c0 -37.333 -5.33301 -70.666 -16 -99.999s-25.334 -54.5 -44.001 -75.5s-40.667 -37 -66 -48s-52.333 -16.5 -81 -16.5
c-29.333 0 -56.833 6 -82.5 18s-48.167 28.5 -67.5 49.5s-34.666 46.167 -45.999 75.5s-17 61 -17 95s5.83301 66 17.5 96s27.334 55.5 47.001 76.5s42.5 37.667 68.5 50s53 18.5 81 18.5zM387.999 226.001c0 28.667 -3.83301 54.168 -11.5 76.501
s-17.834 41.166 -30.501 56.499s-27.167 27 -43.5 35s-33.5 12 -51.5 12s-35.167 -4 -51.5 -12s-30.666 -19.667 -42.999 -35s-22.166 -33.833 -29.499 -55.5s-11 -46.167 -11 -73.5c0 -26.667 3.66699 -51 11 -73s17.166 -41 29.499 -57s26.833 -28.333 43.5 -37
s34.334 -13 53.001 -13s36.167 3.83301 52.5 11.5s30.666 19 42.999 34s22 33.5 29 55.5s10.5 47 10.5 75zM133.999 545.002l111 140h22l110 -141l-46 -35l-78 103l-81 -102z" />
    <glyph glyph-name="otilde" unicode="&#xf5;" 
d="M254 467c28 0 54.499 -5.49902 79.499 -16.499s46.833 -26.833 65.5 -47.5s33.5 -45.834 44.5 -75.501s16.5 -62.834 16.5 -99.501c0 -37.333 -5.33301 -70.666 -16 -99.999s-25.334 -54.5 -44.001 -75.5s-40.667 -37 -66 -48s-52.333 -16.5 -81 -16.5
c-29.333 0 -56.833 6 -82.5 18s-48.167 28.5 -67.5 49.5s-34.666 46.167 -45.999 75.5s-17 61 -17 95s5.83301 66 17.5 96s27.334 55.5 47.001 76.5s42.5 37.667 68.5 50s53 18.5 81 18.5zM387.999 226.001c0 28.667 -3.83301 54.168 -11.5 76.501
s-17.834 41.166 -30.501 56.499s-27.167 27 -43.5 35s-33.5 12 -51.5 12s-35.167 -4 -51.5 -12s-30.666 -19.667 -42.999 -35s-22.166 -33.833 -29.499 -55.5s-11 -46.167 -11 -73.5c0 -26.667 3.66699 -51 11 -73s17.166 -41 29.499 -57s26.833 -28.333 43.5 -37
s34.334 -13 53.001 -13s36.167 3.83301 52.5 11.5s30.666 19 42.999 34s22 33.5 29 55.5s10.5 47 10.5 75zM134.999 557.002l-44.0029 32.002c36 58 73.667 87 113 87c12 0 24.833 -3.83301 38.5 -11.5s25.834 -16.334 36.501 -26.001l29.5 -26
c9 -7.66699 15.833 -11.5 20.5 -11.5c8 0 14.833 1.33301 20.5 4s10.667 6.5 15 11.5s8.5 10.667 12.5 17s9 13.166 15 20.499l37 -40c-20 -24 -37.167 -41.833 -51.5 -53.5s-29.166 -17.5 -44.499 -17.5s-29.166 4 -41.499 12s-23.166 16.667 -32.499 26
s-18.666 18 -27.999 26s-18 12 -26 12c-14.667 0 -26.334 -4.5 -35.001 -13.5s-20.334 -25.167 -35.001 -48.5z" />
    <glyph glyph-name="odieresis" unicode="&#xf6;" 
d="M254 467c28 0 54.499 -5.49902 79.499 -16.499s46.833 -26.833 65.5 -47.5s33.5 -45.834 44.5 -75.501s16.5 -62.834 16.5 -99.501c0 -37.333 -5.33301 -70.666 -16 -99.999s-25.334 -54.5 -44.001 -75.5s-40.667 -37 -66 -48s-52.333 -16.5 -81 -16.5
c-29.333 0 -56.833 6 -82.5 18s-48.167 28.5 -67.5 49.5s-34.666 46.167 -45.999 75.5s-17 61 -17 95s5.83301 66 17.5 96s27.334 55.5 47.001 76.5s42.5 37.667 68.5 50s53 18.5 81 18.5zM387.999 226.001c0 28.667 -3.83301 54.168 -11.5 76.501
s-17.834 41.166 -30.501 56.499s-27.167 27 -43.5 35s-33.5 12 -51.5 12s-35.167 -4 -51.5 -12s-30.666 -19.667 -42.999 -35s-22.166 -33.833 -29.499 -55.5s-11 -46.167 -11 -73.5c0 -26.667 3.66699 -51 11 -73s17.166 -41 29.499 -57s26.833 -28.333 43.5 -37
s34.334 -13 53.001 -13s36.167 3.83301 52.5 11.5s30.666 19 42.999 34s22 33.5 29 55.5s10.5 47 10.5 75zM197.999 650.002c10 -10 15 -21.999 15 -35.999c0 -13.333 -5 -25 -15 -35s-21.667 -15 -35 -15c-14 0 -26 5 -36 15s-15 21.667 -15 35s5 25.166 15 35.499
s22 15.5 36 15.5c13.333 0 25 -5 35 -15zM375.999 650.003c10 -10 15 -22 15 -36c0 -13.333 -5 -25 -15 -35s-21.667 -15 -35 -15c-14 0 -25.833 4.83301 -35.5 14.5s-14.5 21.5 -14.5 35.5s4.83301 26 14.5 36s21.5 15 35.5 15c13.333 0 25 -5 35 -15z" />
    <glyph glyph-name="divide" unicode="&#xf7;" 
d="M71 348h360v-67h-360v67zM287 498c8.66699 -10 13.001 -20.667 13.001 -32c0 -12 -4.33301 -22.333 -13 -31s-19.334 -13 -32.001 -13c-12 0 -22.333 4.33301 -31 13s-13 19 -13 31c0 12.667 4.5 23.5 13.5 32.5s19.167 13.5 30.5 13.5c12 0 22.667 -4.66699 32 -14z
M287.001 190c8.66699 -10 13.001 -20.667 13.001 -32c0 -12 -4.33301 -22.333 -13 -31s-19 -13 -31 -13s-22.667 4.16699 -32 12.5s-14 18.833 -14 31.5c0 13.333 4.83301 24.333 14.5 33s20.167 13 31.5 13s21.666 -4.66699 30.999 -14z" />
    <glyph glyph-name="oslash" unicode="&#xf8;" 
d="M252 406c-18 0 -35.167 -4.16602 -51.5 -12.499s-30.833 -20 -43.5 -35s-22.667 -33 -30 -54s-11 -44.167 -11 -69.5c0 -50.667 11.333 -92.334 34 -125.001l154 283c-16.667 8.66699 -34 13 -52 13zM386 417.001c49.333 -45.333 74.001 -106.667 74.001 -184
c0 -38.667 -5.33301 -73.167 -16 -103.5s-25.334 -56 -44.001 -77s-40.5 -37 -65.5 -48s-51.5 -16.5 -79.5 -16.5c-33.333 0 -64.333 7.33301 -93 22l-40 -74l-52 27l44 81c-49.333 47.333 -74 106.333 -74 177c0 36 5.83301 69 17.5 99s27.334 55.833 47.001 77.5
s42.667 38.667 69 51s54.166 18.5 83.499 18.5c26 0 52 -5.66699 78 -17l37 69l53 -29zM351.001 354l-156.999 -287.001c19.333 -11.333 39.666 -17 60.999 -17c18 0 35 4 51 12s30.167 19.5 42.5 34.5s22 33.167 29 54.5s10.5 45.333 10.5 72
c0 54.667 -12.333 98.334 -37 131.001z" />
    <glyph glyph-name="ugrave" unicode="&#xf9;" 
d="M63 457l71.999 0.000976562v-255c0 -29.333 2.66699 -53.833 8 -73.5s12.833 -35.5 22.5 -47.5s20.667 -20.667 33 -26s25.833 -8 40.5 -8c16 1.33301 31.333 5.33301 46 12s27.834 16.167 39.501 28.5s20.834 28.166 27.501 47.499s10 42.666 10 69.999v252h73v-416
c0 -15.333 1.66699 -29 5 -41h-76c-0.666992 4.66699 -1.33398 9.83398 -2.00098 15.501s-0.666992 12.167 0 19.5l1 35c-14.667 -25.333 -34.5 -45.166 -59.5 -59.499s-52.5 -21.5 -82.5 -21.5c-23.333 0 -44.333 4.16699 -63 12.5s-35.5 21.166 -50.5 38.499
s-26.333 39.333 -34 66s-11.5 58.667 -11.5 96zM242.999 699.001l88 -147l-50 -30l-101 135z" />
    <glyph glyph-name="uacute" unicode="&#xfa;" 
d="M63 457l71.999 0.000976562v-255c0 -29.333 2.66699 -53.833 8 -73.5s12.833 -35.5 22.5 -47.5s20.667 -20.667 33 -26s25.833 -8 40.5 -8c16 1.33301 31.333 5.33301 46 12s27.834 16.167 39.501 28.5s20.834 28.166 27.501 47.499s10 42.666 10 69.999v252h73v-416
c0 -15.333 1.66699 -29 5 -41h-76c-0.666992 4.66699 -1.33398 9.83398 -2.00098 15.501s-0.666992 12.167 0 19.5l1 35c-14.667 -25.333 -34.5 -45.166 -59.5 -59.499s-52.5 -21.5 -82.5 -21.5c-23.333 0 -44.333 4.16699 -63 12.5s-35.5 21.166 -50.5 38.499
s-26.333 39.333 -34 66s-11.5 58.667 -11.5 96zM291.999 699.001l63 -42l-101 -135l-50 30z" />
    <glyph glyph-name="ucircumflex" unicode="&#xfb;" 
d="M63 457l71.999 0.000976562v-255c0 -29.333 2.66699 -53.833 8 -73.5s12.833 -35.5 22.5 -47.5s20.667 -20.667 33 -26s25.833 -8 40.5 -8c16 1.33301 31.333 5.33301 46 12s27.834 16.167 39.501 28.5s20.834 28.166 27.501 47.499s10 42.666 10 69.999v252h73v-416
c0 -15.333 1.66699 -29 5 -41h-76c-0.666992 4.66699 -1.33398 9.83398 -2.00098 15.501s-0.666992 12.167 0 19.5l1 35c-14.667 -25.333 -34.5 -45.166 -59.5 -59.499s-52.5 -21.5 -82.5 -21.5c-23.333 0 -44.333 4.16699 -63 12.5s-35.5 21.166 -50.5 38.499
s-26.333 39.333 -34 66s-11.5 58.667 -11.5 96zM133.999 545.001l111 140h22l110 -141l-46 -35l-78 103l-81 -102z" />
    <glyph glyph-name="udieresis" unicode="&#xfc;" 
d="M63 457l71.999 0.000976562v-255c0 -29.333 2.66699 -53.833 8 -73.5s12.833 -35.5 22.5 -47.5s20.667 -20.667 33 -26s25.833 -8 40.5 -8c16 1.33301 31.333 5.33301 46 12s27.834 16.167 39.501 28.5s20.834 28.166 27.501 47.499s10 42.666 10 69.999v252h73v-416
c0 -15.333 1.66699 -29 5 -41h-76c-0.666992 4.66699 -1.33398 9.83398 -2.00098 15.501s-0.666992 12.167 0 19.5l1 35c-14.667 -25.333 -34.5 -45.166 -59.5 -59.499s-52.5 -21.5 -82.5 -21.5c-23.333 0 -44.333 4.16699 -63 12.5s-35.5 21.166 -50.5 38.499
s-26.333 39.333 -34 66s-11.5 58.667 -11.5 96zM197.999 650.001c10 -10 15 -21.999 15 -35.999c0 -13.333 -5 -25 -15 -35s-21.667 -15 -35 -15c-14 0 -26 5 -36 15s-15 21.667 -15 35s5 25.166 15 35.499s22 15.5 36 15.5c13.333 0 25 -5 35 -15zM375.999 650.002
c10 -10 15 -22 15 -36c0 -13.333 -5 -25 -15 -35s-21.667 -15 -35 -15c-14 0 -25.833 4.83301 -35.5 14.5s-14.5 21.5 -14.5 35.5s4.83301 26 14.5 36s21.5 15 35.5 15c13.333 0 25 -5 35 -15z" />
    <glyph glyph-name="yacute" unicode="&#xfd;" 
d="M59 425l-12.999 32h89c0 -5.33301 -0.666992 -9.83301 -2 -13.5s-2 -7.16699 -2 -10.5c0 -2.66699 0.666992 -4.66699 2 -6l134 -336l87 245c8.66699 23.333 15.667 45.166 21 65.499s9.66602 38.833 12.999 55.5h75l-19.5 -59c-7 -22 -15.5 -46.333 -25.5 -73l-124 -327
l-19 -50c-16 -44.667 -36.5 -76.167 -61.5 -94.5s-53.833 -27.5 -86.5 -27.5c-43.333 0 -78.333 13 -105 39l38 64c2 -2 3.66699 -5.16699 5 -9.5s2.33301 -7.16602 3 -8.49902l4 -4.5c2.66699 -3 6.16699 -6 10.5 -9s9.83301 -5.83301 16.5 -8.5s14 -4 22 -4
c19.333 0 36.5 6 51.5 18s29.833 33.667 44.5 65l14 34zM292.001 699l63 -42l-101 -135l-50 30z" />
    <glyph glyph-name="thorn" unicode="&#xfe;" 
d="M60 665l80 -0.00292969c0 -4.66699 -1.16699 -10 -3.5 -16s-3.5 -11.667 -3.5 -17v-245c15.333 24.667 35.833 44.167 61.5 58.5s51.5 21.5 77.5 21.5c25.333 0 49.5 -4.83301 72.5 -14.5s43.333 -24.167 61 -43.5s31.667 -43.666 42 -72.999s15.5 -64 15.5 -104
s-5.5 -75.333 -16.5 -106s-25.5 -56.167 -43.5 -76.5s-38.5 -35.666 -61.5 -45.999s-46.5 -15.5 -70.5 -15.5c-28 0 -54 6.33301 -78 19s-43.667 30.334 -59 53.001v-227h-74v832zM133 189.997c1.33301 -49.333 12.665 -84.667 33.998 -106s47.666 -32 78.999 -32
c16.667 0 33.334 2.66699 50.001 8s31.834 14.5 45.501 27.5s24.834 30.167 33.501 51.5s13 48 13 80c0 58.667 -12.167 104.5 -36.5 137.5s-58.5 49.5 -102.5 49.5c-13.333 0 -27 -2.33301 -41 -7s-26.5 -12.667 -37.5 -24s-20 -26.5 -27 -45.5s-10.5 -42.5 -10.5 -70.5
v-69z" />
    <glyph glyph-name="ydieresis" unicode="&#xff;" 
d="M59 425l-12.999 32h89c0 -5.33301 -0.666992 -9.83301 -2 -13.5s-2 -7.16699 -2 -10.5c0 -2.66699 0.666992 -4.66699 2 -6l134 -336l87 245c8.66699 23.333 15.667 45.166 21 65.499s9.66602 38.833 12.999 55.5h75l-19.5 -59c-7 -22 -15.5 -46.333 -25.5 -73l-124 -327
l-19 -50c-16 -44.667 -36.5 -76.167 -61.5 -94.5s-53.833 -27.5 -86.5 -27.5c-43.333 0 -78.333 13 -105 39l38 64c2 -2 3.66699 -5.16699 5 -9.5s2.33301 -7.16602 3 -8.49902l4 -4.5c2.66699 -3 6.16699 -6 10.5 -9s9.83301 -5.83301 16.5 -8.5s14 -4 22 -4
c19.333 0 36.5 6 51.5 18s29.833 33.667 44.5 65l14 34zM198.001 650c10 -10 15 -21.999 15 -35.999c0 -13.333 -5 -25 -15 -35s-21.667 -15 -35 -15c-14 0 -26 5 -36 15s-15 21.667 -15 35s5 25.166 15 35.499s22 15.5 36 15.5c13.333 0 25 -5 35 -15zM376.001 650.001
c10 -10 15 -22 15 -36c0 -13.333 -5 -25 -15 -35s-21.667 -15 -35 -15c-14 0 -25.833 4.83301 -35.5 14.5s-14.5 21.5 -14.5 35.5s4.83301 26 14.5 36s21.5 15 35.5 15c13.333 0 25 -5 35 -15z" />
    <glyph glyph-name="Abreve" unicode="&#x102;" 
d="M15 0l220 634h8l240 -634h-72l-69 182h-198l-60 -182h-69zM326 236l-88 238l-80 -238h168zM128 784c12.667 -20 28.8311 -36.667 48.498 -50s40.834 -20 63.501 -20c43.333 0 83 23.333 119 70l28 -42c-17.333 -24 -38.833 -43.333 -64.5 -58s-52.5 -22 -80.5 -22
c-57.333 0 -107.666 25.667 -150.999 77z" />
    <glyph glyph-name="abreve" unicode="&#x103;" 
d="M91 403c40.667 42.667 95 64 163 64c56 0 100.167 -14.167 132.5 -42.5s48.5 -75.5 48.5 -141.5v-283h-68v50c-48.667 -40.667 -103.334 -61 -164.001 -61c-24 0 -45.5 3.66699 -64.5 11s-35.167 17 -48.5 29s-23.5 25.667 -30.5 41s-10.5 30.666 -10.5 45.999
c0 46 19.833 82.333 59.5 109s96.834 41.334 171.501 44.001h86v17c0 45.333 -9.5 77 -28.5 95s-48.5 27 -88.5 27c-49.333 0 -90.333 -17 -123 -51zM369 214l-17.001 -0.000976562c-9.33301 0 -18.166 0.166992 -26.499 0.5s-16.5 0.5 -24.5 0.5
c-36.667 0 -66.667 -2.5 -90 -7.5s-41.666 -11.833 -54.999 -20.5s-22.5 -18.5 -27.5 -29.5s-7.5 -22.833 -7.5 -35.5c0 -21.333 9.33301 -39.666 28 -54.999s41.667 -23 69 -23c20 0 38 3.16699 54 9.5s30 14 42 23s21.667 18.333 29 28s12.666 18.167 15.999 25.5
c6.66699 13.333 10 31.333 10 54v30zM145.999 645.999c12.667 -20 28.832 -36.667 48.499 -50s41.167 -20 64.5 -20c42.667 0 82.334 23.333 119.001 70l28 -42c-18 -24 -39.833 -43.333 -65.5 -58s-52.5 -22 -80.5 -22c-56.667 0 -106.667 25.667 -150 77z" />
    <glyph glyph-name="Aogonek" unicode="&#x104;" 
d="M326 236l-88 238l-80 -238h168zM15 -1l220.002 635.001h8l241 -634c-56 -50 -84 -84 -84 -102c0 -8 2.66699 -14.667 8 -20s12 -8 20 -8c19.333 0 38.666 7.66699 57.999 23v-46c-18.667 -15.333 -41 -23 -67 -23c-26.667 0 -46.834 5.83301 -60.501 17.5
s-20.5 26.167 -20.5 43.5c0 33.333 26.667 71.666 80 114.999h-7l-69 182h-198l-60 -183h-69z" />
    <glyph glyph-name="aogonek" unicode="&#x105;" 
d="M369 214l-17.0029 -0.000976562c-9.33301 0 -18.166 0.166992 -26.499 0.5s-16.5 0.5 -24.5 0.5c-36.667 0 -66.667 -2.5 -90 -7.5s-41.666 -11.833 -54.999 -20.5s-22.5 -18.5 -27.5 -29.5s-7.5 -22.833 -7.5 -35.5c0 -21.333 9.33301 -39.666 28 -54.999
s41.667 -23 69 -23c20 0 38 3.16699 54 9.5s30 14 42 23s21.833 18.5 29.5 28.5s12.834 18.333 15.501 25c6.66699 16.667 10 34.667 10 54v30zM90.9971 402.999c40.667 42.667 95.002 64.002 163.002 64.002c56 0 100.167 -14.167 132.5 -42.5s48.5 -75.5 48.5 -141.5
l-1 -283c-56 -50 -84 -84 -84 -102c0 -8 2.66699 -14.667 8 -20s12 -8 20 -8c19.333 0 38.666 7.66699 57.999 23v-46c-18.667 -15.333 -41 -23 -67 -23c-26.667 0 -46.834 5.83301 -60.501 17.5s-20.5 26.167 -20.5 43.5c0 33.333 26.667 71.666 80 114.999l-1 50
c-49.333 -40.667 -104 -61 -164 -61c-24 0 -45.5 3.66699 -64.5 11s-35.333 17 -49 29s-23.834 25.667 -30.501 41s-10 30.666 -10 45.999c0 45.333 19.833 81.5 59.5 108.5s96.834 41.833 171.501 44.5h86v17c0 45.333 -9.5 77 -28.5 95s-48.5 27 -88.5 27
c-49.333 0 -90.333 -17 -123 -51z" />
    <glyph glyph-name="Cacute" unicode="&#x106;" 
d="M398 482c0 8 -1.00195 14.001 -3.00195 18.001c-13.333 22 -30.666 39.5 -51.999 52.5s-44 19.5 -68 19.5c-22.667 0 -44 -5.83301 -64 -17.5s-37.667 -28.667 -53 -51s-27.333 -49.5 -36 -81.5s-13 -68.333 -13 -109c0 -39.333 4.33301 -75.166 13 -107.499
s20.834 -60 36.501 -83s34 -40.833 55 -53.5s43.5 -19 67.5 -19c24.667 0 48.5 6.83301 71.5 20.5s41.5 32.167 55.5 55.5l52 -34c-10 -16.667 -22 -31.334 -36 -44.001s-28.833 -23.334 -44.5 -32.001s-31.334 -15.167 -47.001 -19.5s-31.5 -6.5 -47.5 -6.5
c-36 0 -67.833 6.16699 -95.5 18.5s-53 31.5 -76 57.5s-40.833 59 -53.5 99s-19 87.667 -19 143c0 61.333 7.33301 112.5 22 153.5s34 73.833 58 98.5s49.5 42.167 76.5 52.5s53.167 15.5 78.5 15.5c20.667 0 40.834 -3 60.501 -9s38 -14.333 55 -25
s32.167 -23.5 45.5 -38.5s24 -31.833 32 -50.5l-67 -33c-2.66699 2 -4 5.33301 -4 10zM307.998 791.001l40 -70l-169 -61l-23 42z" />
    <glyph glyph-name="cacute" unicode="&#x107;" 
d="M457 381l-50.9971 -59c-3.33301 2 -4.83301 4.16699 -4.5 6.5s0 5.5 -1 9.5s-3.5 9 -7.5 15s-12 14 -24 24c-22.667 18.667 -53.667 28 -93 28c-19.333 0 -37.833 -4 -55.5 -12s-33.167 -19.5 -46.5 -34.5s-24 -33 -32 -54s-12 -44.5 -12 -70.5s4 -50 12 -72
s19 -41 33 -57s30.667 -28.5 50 -37.5s40.666 -13.5 63.999 -13.5c46 0 85.667 18.667 119 56l42 -49c-45.333 -48 -101 -72 -167 -72c-32.667 0 -62.834 6 -90.501 18s-51.667 28.667 -72 50s-36.166 46.5 -47.499 75.5s-17 60.833 -17 95.5c0 34 5.66699 65.667 17 95
s27.166 54.5 47.499 75.5s44.666 37.5 72.999 49.5s59.166 18 92.499 18c36 0 68.833 -7.5 98.5 -22.5s53.834 -35.833 72.501 -62.5zM292.003 699l63 -42l-101 -135l-50 30z" />
    <glyph glyph-name="Ccaron" unicode="&#x10c;" 
d="M398 482c0 8 -1.00195 14.001 -3.00195 18.001c-13.333 22 -30.666 39.5 -51.999 52.5s-44 19.5 -68 19.5c-22.667 0 -44 -5.83301 -64 -17.5s-37.667 -28.667 -53 -51s-27.333 -49.5 -36 -81.5s-13 -68.333 -13 -109c0 -39.333 4.33301 -75.166 13 -107.499
s20.834 -60 36.501 -83s34 -40.833 55 -53.5s43.5 -19 67.5 -19c24.667 0 48.5 6.83301 71.5 20.5s41.5 32.167 55.5 55.5l52 -34c-10 -16.667 -22 -31.334 -36 -44.001s-28.833 -23.334 -44.5 -32.001s-31.334 -15.167 -47.001 -19.5s-31.5 -6.5 -47.5 -6.5
c-36 0 -67.833 6.16699 -95.5 18.5s-53 31.5 -76 57.5s-40.833 59 -53.5 99s-19 87.667 -19 143c0 61.333 7.33301 112.5 22 153.5s34 73.833 58 98.5s49.5 42.167 76.5 52.5s53.167 15.5 78.5 15.5c20.667 0 40.834 -3 60.501 -9s38 -14.333 55 -25
s32.167 -23.5 45.5 -38.5s24 -31.833 32 -50.5l-67 -33c-2.66699 2 -4 5.33301 -4 10zM412.998 755.001l-131 -100h-22l-123 98l33 38l103 -71l112 68z" />
    <glyph glyph-name="ccaron" unicode="&#x10d;" 
d="M457 381l-50.9971 -59c-3.33301 2 -4.83301 4.16699 -4.5 6.5s0 5.5 -1 9.5s-3.5 9 -7.5 15s-12 14 -24 24c-22.667 18.667 -53.667 28 -93 28c-19.333 0 -37.833 -4 -55.5 -12s-33.167 -19.5 -46.5 -34.5s-24 -33 -32 -54s-12 -44.5 -12 -70.5s4 -50 12 -72
s19 -41 33 -57s30.667 -28.5 50 -37.5s40.666 -13.5 63.999 -13.5c46 0 85.667 18.667 119 56l42 -49c-45.333 -48 -101 -72 -167 -72c-32.667 0 -62.834 6 -90.501 18s-51.667 28.667 -72 50s-36.166 46.5 -47.499 75.5s-17 60.833 -17 95.5c0 34 5.66699 65.667 17 95
s27.166 54.5 47.499 75.5s44.666 37.5 72.999 49.5s59.166 18 92.499 18c36 0 68.833 -7.5 98.5 -22.5s53.834 -35.833 72.501 -62.5zM377.003 658l-111 -140h-22l-110 141l46 35l78 -103l81 102z" />
    <glyph glyph-name="Dcaron" unicode="&#x10e;" 
d="M54 623l144.998 0.000976562c53.333 0 94.833 -7.33301 124.5 -22s54.834 -35.667 75.501 -63s36 -60.333 46 -99s15 -82.334 15 -131.001c0 -48 -6 -91 -18 -129s-28.5 -70.5 -49.5 -97.5s-48.167 -47.5 -81.5 -61.5s-74.666 -21 -123.999 -21h-133v624z
M119.998 564.001l0.000976562 -510h64c71.333 0 123.5 21.5 156.5 64.5s49.5 104.833 49.5 185.5c-0.666992 81.333 -15.834 145 -45.501 191s-79.5 69 -149.5 69h-75zM371.999 755.001l-131 -100h-22l-123 98l33 38l103 -71l112 68z" />
    <glyph glyph-name="dcaron" unicode="&#x10f;" 
d="M309 390l-0.000976562 275.001h68v-623c0 -18 1.33301 -32 4 -42h-71c-2.66699 8 -4 19.333 -4 34v39c-14.667 -24.667 -33.667 -44.667 -57 -60s-49 -23 -77 -23c-24.667 0 -47.5 6.16699 -68.5 18.5s-39.167 29.166 -54.5 50.499s-27.333 46.833 -36 76.5
s-13 62.167 -13 97.5s4.83301 67.5 14.5 96.5s22.834 53.833 39.501 74.5s36 36.667 58 48s45 17 69 17c28 0 53.333 -7.16699 76 -21.5s40 -33.5 52 -57.5zM184.999 410.001c-16.667 0 -32 -4.33594 -46 -13.0029s-26.167 -20.667 -36.5 -36s-18.333 -33.333 -24 -54
s-8.5 -43 -8.5 -67s2.66699 -47.167 8 -69.5s13.166 -42.166 23.499 -59.499s22.833 -31.333 37.5 -42s31 -16 49 -16c11.333 0 23.666 2.66699 36.999 8s25.833 14.166 37.5 26.499s21.334 28.5 29.001 48.5s11.5 44.667 11.5 74c0 20.667 -0.166992 37.834 -0.5 51.501
s-1 25.167 -2 34.5s-2.66699 17.833 -5 25.5s-5.5 16.167 -9.5 25.5c-4 8.66699 -9.66699 16.834 -17 24.501s-15.666 14.334 -24.999 20.001s-19 10.167 -29 13.5s-20 5 -30 5zM508.999 604.998c0 -43.333 -28.333 -93.667 -85 -151l-28 24
c15.333 14 27.833 29.167 37.5 45.5s14.5 29.5 14.5 39.5c0 4.66699 -2.16699 9.33398 -6.5 14.001s-9 9.16699 -14 13.5s-9.66699 9.16602 -14 14.499s-6.5 11.666 -6.5 18.999c0 13.333 4.5 24.5 13.5 33.5s20.5 13.5 34.5 13.5s26.5 -6.16699 37.5 -18.5
s16.5 -28.166 16.5 -47.499z" />
    <glyph glyph-name="Dcroat" unicode="&#x110;" 
d="M79 623l138.998 0.000976562c45.333 0 83.5 -7.66699 114.5 -23s56.333 -36.833 76 -64.5s34.167 -61 43.5 -100s14 -82.167 14 -129.5c0 -30 -3.33301 -59.833 -10 -89.5s-16.167 -57.334 -28.5 -83.001s-27.666 -48.667 -45.999 -69s-39.166 -35.833 -62.499 -46.5
c-26 -12.667 -63.667 -19 -113 -19h-127v302h-49v58h49v264zM142.998 301.001v-244.001h60c64 0 112.667 21.833 146 65.5s50 104.834 50 183.501c0 80 -14.833 143 -44.5 189s-76.5 69 -140.5 69h-71v-205h105v-58h-105z" />
    <glyph glyph-name="dcroat" unicode="&#x111;" 
d="M151 376c-28.667 -26 -43.001 -70 -43.001 -132c0 -57.333 11.667 -103.5 35 -138.5s55 -52.5 95 -52.5c12.667 0 24 2 34 6s20 9.5 30 16.5s19 15.5 27 25.5s14 21.333 18 34c7.33301 24 11 56 11 96c0 25.333 -1 46.5 -3 63.5s-5.16699 31.5 -9.5 43.5
s-9.83301 21.833 -16.5 29.5s-15 14.5 -25 20.5c-12 7.33301 -23.167 12.833 -33.5 16.5s-20.166 5.5 -29.499 5.5c-19.333 0 -35.833 -2.66699 -49.5 -8s-27.167 -14 -40.5 -26zM431.999 544v-501.999c0 -16 1.66699 -30 5 -42h-72c-2.66699 8 -4 19.333 -4 34v39
c-14.667 -25.333 -34.667 -45.5 -60 -60.5s-51 -22.5 -77 -22.5c-25.333 0 -49.166 5 -71.499 15s-42 25.167 -59 45.5s-30.5 45.666 -40.5 75.999s-15 65.833 -15 106.5c0 42 5.66699 77.833 17 107.5s26.166 54 44.499 73s38.833 33 61.5 42s45.667 13.5 69 13.5
c32 0 59.5 -7.16699 82.5 -21.5s40.167 -33.5 51.5 -57.5v154h-76v53h76v68h77c0 -4 -1.5 -8.5 -4.5 -13.5s-4.5 -9.83301 -4.5 -14.5v-40h44v-53h-44z" />
    <glyph glyph-name="Eogonek" unicode="&#x118;" 
d="M59 624h382.002v-62h-316v-205h261v-64h-261v-231h313l-1 -62c-56 -50 -84 -84 -84 -102c0 -8 2.66699 -14.667 8 -20s11.666 -8 18.999 -8c20 0 39.333 7.66699 58 23v-46c-17.333 -15.333 -39.333 -23 -66 -23s-46.834 5.83301 -60.501 17.5s-20.5 26.167 -20.5 43.5
c0 34 26.333 72.333 79 115h-311v624z" />
    <glyph glyph-name="eogonek" unicode="&#x119;" 
d="M259 468c24 0 47.3398 -4.33105 70.0068 -12.998s42.5 -21.834 59.5 -39.501s30.667 -40.167 41 -67.5s15.5 -59.666 15.5 -96.999c0 -5.33301 -0.166992 -10.833 -0.5 -16.5s-0.833008 -11.167 -1.5 -16.5h-325c1.33301 -32 6.83301 -58.833 16.5 -80.5
s21.834 -39.167 36.501 -52.5s31 -22.833 49 -28.5s36 -8.5 54 -8.5c47.333 0 86.666 17 117.999 51l40 -39l-56 -68c-10.667 -12.667 -18.834 -23.334 -24.501 -32.001s-9.83398 -16 -12.501 -22s-4.16699 -11.333 -4.5 -16s-0.5 -9.33398 -0.5 -14.001
c0 -9.33301 3.16699 -17.333 9.5 -24s15.833 -10 28.5 -10c7.33301 0 15.166 1.33301 23.499 4s17.833 7.33398 28.5 14.001l-1 -49c-10 -6.66699 -20.333 -11.334 -31 -14.001s-21.334 -4 -32.001 -4c-24.667 0 -45.167 6.66699 -61.5 20s-24.5 31.333 -24.5 54
c0 31.333 18.667 64.666 56 99.999c-23.333 -6 -46.333 -9 -69 -9c-30.667 0 -58.834 5.33301 -84.501 16s-48 26.334 -67 47.001s-33.833 45.667 -44.5 75s-16 63 -16 101c0 37.333 5.33301 70.833 16 100.5s25.667 54.667 45 75s41.666 36 66.999 47
s52.666 16.5 81.999 16.5zM121.007 274.002l250.999 0.000976562c0 2.66699 0.166992 5.16699 0.5 7.5s0.5 5.16602 0.5 8.49902c0 16.667 -3.16699 32.5 -9.5 47.5s-14.833 28 -25.5 39s-23.167 19.833 -37.5 26.5s-29.833 10 -46.5 10
c-31.333 0 -59.666 -11.167 -84.999 -33.5s-41.333 -57.5 -48 -105.5z" />
    <glyph glyph-name="Ecaron" unicode="&#x11a;" 
d="M59 624h382v-62h-316v-205h261v-64h-261v-231h313v-62h-379v624zM397 755l-131 -100h-22l-123 98l33 38l103 -71l112 68z" />
    <glyph glyph-name="ecaron" unicode="&#x11b;" 
d="M259 468c24 0 47.334 -4.33301 70.001 -13s42.5 -21.834 59.5 -39.501s30.667 -40.167 41 -67.5s15.5 -59.666 15.5 -96.999c0 -5.33301 -0.166992 -10.833 -0.5 -16.5s-0.833008 -11.167 -1.5 -16.5h-325c1.33301 -32 6.83301 -58.833 16.5 -80.5
s21.834 -39.167 36.501 -52.5s31 -22.833 49 -28.5s36 -8.5 54 -8.5c47.333 0 86.666 17 117.999 51l40 -39c-38.667 -46.667 -92 -70 -160 -70c-33.333 0 -63.833 5.16699 -91.5 15.5s-51.167 25.5 -70.5 45.5s-34.333 44.833 -45 74.5s-16 63.5 -16 101.5
c0 38.667 5.5 73 16.5 103s26 55.167 45 75.5s41.167 35.833 66.5 46.5s52.666 16 81.999 16zM121.001 274l250.999 0.000976562c0 2.66699 0.166992 5.16699 0.5 7.5s0.5 5.16602 0.5 8.49902c0 16.667 -3.16699 32.5 -9.5 47.5s-14.833 28 -25.5 39
s-23.167 19.833 -37.5 26.5s-29.833 10 -46.5 10c-31.333 0 -59.666 -11.167 -84.999 -33.5s-41.333 -57.5 -48 -105.5zM377 658.001l-111 -140h-22l-110 141l46 35l78 -103l81 102z" />
    <glyph glyph-name="Gbreve" unicode="&#x11e;" 
d="M458 525l-49 -50.002c-4 2.66699 -8.33301 9 -13 19c-10 22 -25.5 39.833 -46.5 53.5s-45.5 20.5 -73.5 20.5c-19.333 0 -39.166 -4 -59.499 -12s-38.833 -21.667 -55.5 -41s-30.167 -44.833 -40.5 -76.5s-15.5 -71.5 -15.5 -119.5
c0 -43.333 4.33301 -81.666 13 -114.999s20.667 -61.166 36 -83.499s33.5 -39.333 54.5 -51s43.833 -17.5 68.5 -17.5c43.333 0 82.666 12.667 117.999 38v148h-113v61h178v-244c-59.333 -43.333 -120.333 -65 -183 -65c-37.333 0 -70.833 7.5 -100.5 22.5
s-55 36.167 -76 63.5s-37 60.333 -48 99s-16.5 81.667 -16.5 129c0 65.333 8.16699 120 24.5 164s37.5 77.5 63.5 100.5s52.5 38.833 79.5 47.5s51.5 13 73.5 13c38 0 73.333 -9.5 106 -28.5s57.667 -44.167 75 -75.5zM147 789.998c12.667 -20 28.8311 -36.667 48.498 -50
s40.834 -20 63.501 -20c43.333 0 83 23.333 119 70l28 -42c-17.333 -24 -38.833 -43.333 -64.5 -58s-52.5 -22 -80.5 -22c-57.333 0 -107.666 25.667 -150.999 77z" />
    <glyph glyph-name="gbreve" unicode="&#x11f;" 
d="M155 385c-10 -10 -17.334 -20.9971 -22.001 -32.9971s-7 -24.667 -7 -38s2.66699 -26.166 8 -38.499s12.5 -23 21.5 -32s19.667 -16.167 32 -21.5s25.166 -8 38.499 -8c14 0 27 2.66699 39 8s22.667 12.666 32 21.999s16.666 20 21.999 32s8 24.667 8 38
s-2.66699 26.166 -8 38.499s-12.666 23.166 -21.999 32.499s-20.166 16.666 -32.499 21.999s-25.166 8 -38.499 8c-27.333 0 -51 -10 -71 -30zM338.999 428.003c32 27.333 69.998 40.9951 113.998 40.9951h13l9 -59c-4.66699 0.666992 -9.16699 1.16699 -13.5 1.5
s-8.83301 0.5 -13.5 0.5c-29.333 0 -55.666 -7.33301 -78.999 -22c15.333 -23.333 23 -49 23 -77c0 -21.333 -4.33301 -41.5 -13 -60.5s-20.5 -35.667 -35.5 -50s-32.5 -25.666 -52.5 -33.999s-41.333 -12.5 -64 -12.5c-18.667 0 -38 3.66699 -58 11
c-21.333 -20.667 -32 -38 -32 -52c0 -11.333 6.5 -20.166 19.5 -26.499s30.833 -9.5 53.5 -9.5c12.667 0 25.5 0.5 38.5 1.5s25.167 1.5 36.5 1.5c30 0 55.833 -2.83301 77.5 -8.5s39.167 -13.667 52.5 -24s23.333 -22.5 30 -36.5s10 -29 10 -45
c0 -18 -4.33301 -35.5 -13 -52.5s-21.667 -32 -39 -45s-39.166 -23.333 -65.499 -31s-57.166 -11.5 -92.499 -11.5c-36.667 0 -68.167 2.83301 -94.5 8.5s-47.5 13.5 -63.5 23.5s-28.167 21.5 -36.5 34.5s-12.5 26.833 -12.5 41.5c0 36 25 69.667 75 101
c-24.667 12.667 -37 33.667 -37 63c0 28.667 17.333 57.334 52 86.001c-21.333 14 -38 32 -50 54s-18 45.333 -18 70c0 22.667 4.66699 43.834 14 63.501s21.833 36.834 37.5 51.501s33.667 26.167 54 34.5s41.166 12.5 62.499 12.5c44.667 0 81.667 -14.667 111 -44z
M160.997 23.998c-38 -21.333 -57.0029 -44.667 -57.0029 -70c0 -13.333 3.83301 -24.5 11.5 -33.5s18 -16.333 31 -22s28.333 -9.83398 46 -12.501s36.167 -4 55.5 -4c40.667 0 74.334 7.33301 101.001 22s40 34.334 40 59.001c-1.33301 18 -8.83301 32 -22.5 42
s-35.167 15 -64.5 15c-3.33301 0 -6.66602 -0.166992 -9.99902 -0.5s-6.66602 -0.5 -9.99902 -0.5c-25.333 0 -48 0.5 -68 1.5s-37.667 2.16699 -53 3.5zM145.994 645.997c12.667 -20 28.832 -36.667 48.499 -50s41.167 -20 64.5 -20c42.667 0 82.334 23.333 119.001 70
l28 -42c-18 -24 -39.833 -43.333 -65.5 -58s-52.5 -22 -80.5 -22c-56.667 0 -106.667 25.667 -150 77z" />
    <glyph glyph-name="Idotaccent" unicode="&#x130;" 
d="M88 623h309v-59h-123v-507h129v-58h-322v59h123v506h-116v59zM201 776c10 10 21.999 15 35.999 15s26.167 -5 36.5 -15s15.5 -22 15.5 -36s-5.16699 -26 -15.5 -36s-22.5 -15 -36.5 -15c-13.333 0 -25.166 5 -35.499 15s-15.5 22 -15.5 36s5 26 15 36z" />
    <glyph glyph-name="dotlessi" unicode="&#x131;" 
d="M106 457h183v-399h107v-58h-296v58h117v341h-111v58z" />
    <glyph glyph-name="kgreenlandic" unicode="&#x138;" 
d="M66 457l82 -0.000976562l2 -2c0 -2 -1.5 -5.16699 -4.5 -9.5s-5.16699 -9.16602 -6.5 -14.499v-184l229 212c15.333 -3.33301 33 -5 53 -5h26l-192 -181l224 -274l-93 -3l-187 233l-60 -56v-174h-73v458z" />
    <glyph glyph-name="Lacute" unicode="&#x139;" 
d="M66 623h82c0 -4.66699 -1.5 -10 -4.5 -16s-4.5 -12 -4.5 -18v-528h300v-61h-373v623zM308 791l40 -70l-169 -61l-23 42z" />
    <glyph glyph-name="lacute" unicode="&#x13a;" 
d="M85 665h202v-607h134v-58h-342v58h135v549h-129v58zM308 834l40 -70l-169 -61l-23 42z" />
    <glyph glyph-name="Lcaron" unicode="&#x13d;" 
d="M66 623h82c0 -4.66699 -1.5 -10 -4.5 -16s-4.5 -12 -4.5 -18v-528h300v-61h-373v623zM424 562c0 -44 -28.333 -94.334 -85 -151.001l-28 24c15.333 14 27.833 29.167 37.5 45.5s14.5 29.166 14.5 38.499c0 5.33301 -2.16699 10.333 -6.5 15s-9 9.33398 -14 14.001
s-9.66699 9.66699 -14 15s-6.5 11.333 -6.5 18c0 13.333 4.5 24.5 13.5 33.5s20.5 13.5 34.5 13.5s26.5 -6.16699 37.5 -18.5s16.5 -28.166 16.5 -47.499z" />
    <glyph glyph-name="lcaron" unicode="&#x13e;" 
d="M68 665h202v-607h134v-58h-342v58h135v549h-129v58zM473 605c0 -43.333 -28.333 -93.667 -85 -151l-28 24c15.333 14 27.833 29.167 37.5 45.5s14.5 29.5 14.5 39.5c0 4.66699 -2.16699 9.33398 -6.5 14.001s-9 9.16699 -14 13.5s-9.66699 9.16602 -14 14.499
s-6.5 11.666 -6.5 18.999c0 13.333 4.5 24.5 13.5 33.5s20.5 13.5 34.5 13.5s26.5 -6.16699 37.5 -18.5s16.5 -28.166 16.5 -47.499z" />
    <glyph glyph-name="Lslash" unicode="&#x141;" 
d="M73 623l81 0.000976562c1.33301 0 2 -0.666992 2 -2c0 -2.66699 -1.33301 -6.83398 -4 -12.501s-4.66699 -12.167 -6 -19.5v-261l166 54l14.5 5.5c4.33301 1.66699 7.83301 3.16699 10.5 4.5v-64l-191 -61v-207h300v-61h-373v244l-53 -17v61l53 18v318z" />
    <glyph glyph-name="lslash" unicode="&#x142;" 
d="M85 665l202.001 0.00195312v-295l64 23c4 1.33301 8.16699 3.16602 12.5 5.49902s9.16602 5.16602 14.499 8.49902v-73l-91 -31v-245h134v-58h-342v58h135v221l-79 -27v66l79 27v262h-129v58z" />
    <glyph glyph-name="Nacute" unicode="&#x143;" 
d="M50 0v623.001h68l262 -462v463h74c0 -4 -1.16699 -8.33301 -3.5 -13s-3.5 -9.33398 -3.5 -14.001v-597h-55l-275 490v-490h-67zM308 791.001l40 -70l-169 -61l-23 42z" />
    <glyph glyph-name="nacute" unicode="&#x144;" 
d="M68 0l-0.000976562 456.999h74v-81c17.333 28 39.5 50.333 66.5 67s54.5 25 82.5 25c20 0 38.667 -3.5 56 -10.5s32.333 -18.167 45 -33.5s22.5 -35 29.5 -59s10.5 -53.333 10.5 -88v-277h-71v275c0 48 -8.16699 81.667 -24.5 101s-36.166 29 -59.499 29
c-15.333 0 -31 -3.33301 -47 -10s-30.5 -16.167 -43.5 -28.5s-23.667 -27.166 -32 -44.499s-12.5 -37 -12.5 -59v-263h-74zM291.999 698.999l63 -42l-101 -135l-50 30z" />
    <glyph glyph-name="Ncaron" unicode="&#x147;" 
d="M50 0v623.001h68l262 -462v463h74c0 -4 -1.16699 -8.33301 -3.5 -13s-3.5 -9.33398 -3.5 -14.001v-597h-55l-275 490v-490h-67zM397 755.001l-131 -100h-22l-123 98l33 38l103 -71l112 68z" />
    <glyph glyph-name="ncaron" unicode="&#x148;" 
d="M68 0l-0.000976562 456.999h74v-81c17.333 28 39.5 50.333 66.5 67s54.5 25 82.5 25c20 0 38.667 -3.5 56 -10.5s32.333 -18.167 45 -33.5s22.5 -35 29.5 -59s10.5 -53.333 10.5 -88v-277h-71v275c0 48 -8.16699 81.667 -24.5 101s-36.166 29 -59.499 29
c-15.333 0 -31 -3.33301 -47 -10s-30.5 -16.167 -43.5 -28.5s-23.667 -27.166 -32 -44.499s-12.5 -37 -12.5 -59v-263h-74zM376.999 657.999l-111 -140h-22l-110 141l46 35l78 -103l81 102z" />
    <glyph glyph-name="Eng" unicode="&#x14a;" 
d="M300 52c52 0 78 39.333 78 118v252c0 55.333 -9.66699 94 -29 116s-44.333 33 -75 33c-18 0 -36 -3.83301 -54 -11.5s-34.167 -18.5 -48.5 -32.5s-25.833 -30.667 -34.5 -50s-13 -40.666 -13 -63.999v-413h-73v623h73v-81c18 28 41.333 50.333 70 67s59 25 91 25
c24.667 0 47 -4.16699 67 -12.5s37.167 -21 51.5 -38s25.5 -38.667 33.5 -65s12 -57.833 12 -94.5v-249c0 -62.667 -13.667 -109.334 -41 -140.001s-64.333 -46 -111 -46c-30.667 0 -59.667 8.33301 -87 25l35 62c2 -1.33301 4 -3.33301 6 -6c8 -12 24.333 -18 49 -18z" />
    <glyph glyph-name="eng" unicode="&#x14b;" 
d="M68 0l-0.000976562 457.002h74v-81c17.333 28 39.5 50.333 66.5 67s54.5 25 82.5 25c20 0 38.667 -3.5 56 -10.5s32.333 -18.167 45 -33.5s22.5 -35 29.5 -59s10.5 -53.333 10.5 -88v-221c0 -81.333 -16.167 -140.333 -48.5 -177s-72.833 -55 -121.5 -55
c-17.333 0 -34.166 2.83301 -50.499 8.5s-31.833 14.167 -46.5 25.5l34 67c2.66699 -0.666992 4.66699 -2.83398 6 -6.50098s3.83301 -7.33398 7.5 -11.001s10 -7.33398 19 -11.001s19.833 -5.5 32.5 -5.5c64.667 0 97 51.333 97 154v230c0 48 -8.16699 81.667 -24.5 101
s-36.166 29 -59.499 29c-15.333 0 -31 -3.33301 -47 -10s-30.833 -16.167 -44.5 -28.5s-24.334 -27.166 -32.001 -44.499s-11.5 -37 -11.5 -59v-263h-74z" />
    <glyph glyph-name="omacron" unicode="&#x14d;" 
d="M254 467c28 0 54.499 -5.49902 79.499 -16.499s46.833 -26.833 65.5 -47.5s33.5 -45.834 44.5 -75.501s16.5 -62.834 16.5 -99.501c0 -37.333 -5.33301 -70.666 -16 -99.999s-25.334 -54.5 -44.001 -75.5s-40.667 -37 -66 -48s-52.333 -16.5 -81 -16.5
c-29.333 0 -56.833 6 -82.5 18s-48.167 28.5 -67.5 49.5s-34.666 46.167 -45.999 75.5s-17 61 -17 95s5.83301 66 17.5 96s27.334 55.5 47.001 76.5s42.5 37.667 68.5 50s53 18.5 81 18.5zM387.999 226.001c0 28.667 -3.83301 54.168 -11.5 76.501
s-17.834 41.166 -30.501 56.499s-27.167 27 -43.5 35s-33.5 12 -51.5 12s-35.167 -4 -51.5 -12s-30.666 -19.667 -42.999 -35s-22.166 -33.833 -29.499 -55.5s-11 -46.167 -11 -73.5c0 -26.667 3.66699 -51 11 -73s17.166 -41 29.499 -57s26.833 -28.333 43.5 -37
s34.334 -13 53.001 -13s36.167 3.83301 52.5 11.5s30.666 19 42.999 34s22 33.5 29 55.5s10.5 47 10.5 75zM122.999 621.002h254v-56h-254v56z" />
    <glyph glyph-name="Ohungarumlaut" unicode="&#x150;" 
d="M254 -10c-34 0 -64.8271 7.83496 -92.4941 23.502s-51.334 37.667 -71.001 66s-34.834 62.333 -45.501 102s-16 83.5 -16 131.5s5.5 91.667 16.5 131s26.5 72.666 46.5 99.999s44 48.5 72 63.5s58.667 22.5 92 22.5c29.333 0 56.666 -6.33301 81.999 -19
s48.5 -31.834 69.5 -57.501s36.833 -58.5 47.5 -98.5s16 -87.667 16 -143c0 -60 -6.33301 -110.5 -19 -151.5s-29.334 -74.167 -50.001 -99.5s-43.834 -43.5 -69.501 -54.5s-51.834 -16.5 -78.501 -16.5zM150.006 115.002c31.333 -37.333 66 -56.0039 104 -56.0039
c18 0 35.667 3.83301 53 11.5s33.166 21.167 47.499 40.5s25.666 45.333 33.999 78s12.5 74.334 12.5 125.001c0 49.333 -4.66699 89.833 -14 121.5s-21.166 56.834 -35.499 75.501s-29.333 32.167 -45 40.5s-32.5 12.5 -50.5 12.5c-20.667 0.666992 -39.667 -3 -57 -11
s-33.666 -21 -48.999 -39s-27.833 -42.667 -37.5 -74s-14.5 -71.666 -14.5 -120.999c0 -46 4.83301 -86.667 14.5 -122s22.167 -62.666 37.5 -81.999zM411.006 809.998l46 -64l-145 -101l-32 41zM233.006 809.998l47 -64l-146 -101l-32 41z" />
    <glyph glyph-name="ohungarumlaut" unicode="&#x151;" 
d="M254 467c28 0 54.499 -5.49902 79.499 -16.499s46.833 -26.833 65.5 -47.5s33.5 -45.834 44.5 -75.501s16.5 -62.834 16.5 -99.501c0 -37.333 -5.33301 -70.666 -16 -99.999s-25.334 -54.5 -44.001 -75.5s-40.667 -37 -66 -48s-52.333 -16.5 -81 -16.5
c-29.333 0 -56.833 6 -82.5 18s-48.167 28.5 -67.5 49.5s-34.666 46.167 -45.999 75.5s-17 61 -17 95s5.83301 66 17.5 96s27.334 55.5 47.001 76.5s42.5 37.667 68.5 50s53 18.5 81 18.5zM387.999 226.001c0 28.667 -3.83301 54.168 -11.5 76.501
s-17.834 41.166 -30.501 56.499s-27.167 27 -43.5 35s-33.5 12 -51.5 12s-35.167 -4 -51.5 -12s-30.666 -19.667 -42.999 -35s-22.166 -33.833 -29.499 -55.5s-11 -46.167 -11 -73.5c0 -26.667 3.66699 -51 11 -73s17.166 -41 29.499 -57s26.833 -28.333 43.5 -37
s34.334 -13 53.001 -13s36.167 3.83301 52.5 11.5s30.666 19 42.999 34s22 33.5 29 55.5s10.5 47 10.5 75zM213.999 699.002l63 -42l-101 -135l-50 30zM368.999 699.002l63 -42l-101 -135l-50 30z" />
    <glyph glyph-name="OE" unicode="&#x152;" 
d="M253 595l-0.00195312 29h231v-62h-169v-205h143v-64h-143v-231h167v-62h-230v31c-11.333 -13.333 -23.666 -23 -36.999 -29s-27.666 -9 -42.999 -9c-50 0 -89.667 25.833 -119 77.5s-44 132.167 -44 241.5c0 106 14.333 185.833 43 239.5s69 80.5 121 80.5
c14 0 27.833 -2.83301 41.5 -8.5s26.5 -15.167 38.5 -28.5zM170.998 574c-13.333 0 -25.666 -4.16699 -36.999 -12.5s-21.833 -22.5 -31.5 -42.5s-17 -46.667 -22 -80s-7.5 -75.333 -7.5 -126c0 -82 9.16699 -145.667 27.5 -191s44.5 -68 78.5 -68
c17.333 0 32.666 7 45.999 21s22.333 32 27 54v356c-4 11.333 -8.5 22.333 -13.5 33s-10.833 20.167 -17.5 28.5s-14.167 15 -22.5 20s-17.5 7.5 -27.5 7.5z" />
    <glyph glyph-name="oe" unicode="&#x153;" 
d="M161 466c40 0 71.3301 -15.332 93.9971 -45.999c26 30.667 59.667 46 101 46c42 0 74.833 -15.333 98.5 -46s35.5 -76.334 35.5 -137.001v-62h-228c0.666992 -36 3.16699 -65.333 7.5 -88s11 -40 20 -52s19.333 -20.667 31 -26s25.834 -8 42.501 -8
c40.667 0 72.667 12.667 96 38l35 -43c-35.333 -36 -76 -54 -122 -54s-85.667 13.667 -119 41c-29.333 -26.667 -62.333 -40 -99 -40c-16.667 0 -33.667 3.5 -51 10.5s-33.166 19.333 -47.499 37s-26.166 42 -35.499 73s-14 70.5 -14 118.5c0 44 4.16699 81.167 12.5 111.5
s20 54.833 35 73.5s31.5 32.167 49.5 40.5s37.333 12.5 58 12.5zM262.997 278.001h168v9c0 48 -7.66699 80.667 -23 98s-37 26 -65 26c-24.667 0 -44.167 -10.667 -58.5 -32s-21.5 -52 -21.5 -92v-9zM160.997 406.001c-12 0 -23.502 -3.00098 -34.502 -9.00098
s-21.167 -15.667 -30.5 -29s-16.666 -30.5 -21.999 -51.5s-8 -46.833 -8 -77.5c0 -64 8.66699 -111.5 26 -142.5s41 -46.5 71 -46.5c13.333 0 25 3.5 35 10.5s15 16.5 15 28.5c0 2 -1 9.66699 -3 23c-4 23.333 -6.66699 45.666 -8 66.999s-2 41 -2 59
c0 38.667 1.5 67.834 4.5 87.501s4.5 31.834 4.5 36.501c0 12.667 -4.66699 23.167 -14 31.5s-20.666 12.5 -33.999 12.5z" />
    <glyph glyph-name="Racute" unicode="&#x154;" 
d="M56 623l184.001 -0.000976562c73.333 0 126.166 -16.333 158.499 -49s48.5 -75.667 48.5 -129c0 -18 -3 -35.833 -9 -53.5s-14.5 -34.167 -25.5 -49.5s-24.333 -28.666 -40 -39.999s-33.167 -19.333 -52.5 -24l144 -278h-78l-138 275h-121v-275h-71v623zM127.001 556.999
v-220.001h121c44.667 0 77 9.83301 97 29.5s30 45.834 30 78.501c0 16 -2.66699 30.667 -8 44s-12.833 25 -22.5 35s-22.5 18 -38.5 24s-35.333 9 -58 9h-121zM308.001 790.998l40 -70l-169 -61l-23 42z" />
    <glyph glyph-name="racute" unicode="&#x155;" 
d="M99 457l74.999 -0.00195312l-2 -88c14 32 36.167 56.5 66.5 73.5s62.833 25.5 97.5 25.5c49.333 0 90 -16.667 122 -50l-33 -69c-7.33301 10 -14 18.333 -20 25s-12.5 12.334 -19.5 17.001s-14.667 8.33398 -23 11.001s-18.5 4 -30.5 4c-22 0 -42.667 -5.16699 -62 -15.5
s-36.166 -24 -50.499 -41s-25.833 -36.5 -34.5 -58.5s-13 -45 -13 -69v-223h-73v458zM291.999 698.998l63 -42l-101 -135l-50 30z" />
    <glyph glyph-name="Rcaron" unicode="&#x158;" 
d="M56 623l184.001 -0.000976562c73.333 0 126.166 -16.333 158.499 -49s48.5 -75.667 48.5 -129c0 -18 -3 -35.833 -9 -53.5s-14.5 -34.167 -25.5 -49.5s-24.333 -28.666 -40 -39.999s-33.167 -19.333 -52.5 -24l144 -278h-78l-138 275h-121v-275h-71v623zM127.001 556.999
v-220.001h121c44.667 0 77 9.83301 97 29.5s30 45.834 30 78.501c0 16 -2.66699 30.667 -8 44s-12.833 25 -22.5 35s-22.5 18 -38.5 24s-35.333 9 -58 9h-121zM397.001 754.998l-131 -100h-22l-123 98l33 38l103 -71l112 68z" />
    <glyph glyph-name="rcaron" unicode="&#x159;" 
d="M99 457l74.999 -0.00195312l-2 -88c14 32 36.167 56.5 66.5 73.5s62.833 25.5 97.5 25.5c49.333 0 90 -16.667 122 -50l-33 -69c-7.33301 10 -14 18.333 -20 25s-12.5 12.334 -19.5 17.001s-14.667 8.33398 -23 11.001s-18.5 4 -30.5 4c-22 0 -42.667 -5.16699 -62 -15.5
s-36.166 -24 -50.499 -41s-25.833 -36.5 -34.5 -58.5s-13 -45 -13 -69v-223h-73v458zM376.999 657.998l-111 -140h-22l-110 141l46 35l78 -103l81 102z" />
    <glyph glyph-name="Sacute" unicode="&#x15a;" 
d="M435 549l-44.001 -59.9932c-3.33301 1.33301 -5.16602 4.16602 -5.49902 8.49902s-1.16602 7.5 -2.49902 9.5c-12.667 18.667 -29.834 33.667 -51.501 45s-48.5 17 -80.5 17c-30.667 0 -56.167 -9 -76.5 -27s-30.5 -39.333 -30.5 -64c0 -14.667 2.5 -27.334 7.5 -38.001
s12.667 -21 23 -31s25.5 -20.167 45.5 -30.5s46 -21.833 78 -34.5c30.667 -12.667 56 -25.167 76 -37.5s36 -25.5 48 -39.5s20.5 -28.833 25.5 -44.5s7.5 -33.167 7.5 -52.5c0 -21.333 -4 -42.833 -12 -64.5s-20.5 -41 -37.5 -58s-38.5 -30.833 -64.5 -41.5
s-57.333 -16 -94 -16c-80.667 0 -145.667 26.667 -195 80l41 72c3.33301 -2 5 -5.33301 5 -10s1 -8.33398 3 -11.001c15.333 -19.333 36 -35.5 62 -48.5s57.333 -19.5 94 -19.5c18.667 0 35.834 3.16699 51.501 9.5s29.167 14.666 40.5 24.999s20.333 22.666 27 36.999
s10 29.5 10 45.5c0 12.667 -2.16699 24.167 -6.5 34.5s-11.5 20 -21.5 29s-24.167 18 -42.5 27s-42.5 19.5 -72.5 31.5c-32.667 12.667 -59.834 25.5 -81.501 38.5s-39.167 26.167 -52.5 39.5s-22.833 27.666 -28.5 42.999s-8.5 32 -8.5 50c0 22.667 4.83301 44 14.5 64
s23 37.5 40 52.5s37.167 26.667 60.5 35s48.333 12.5 75 12.5c34 0 66 -6.83301 96 -20.5s55.667 -32.834 77 -57.501zM307.999 791.007l40 -70l-169 -61l-23 42z" />
    <glyph glyph-name="sacute" unicode="&#x15b;" 
d="M432 396l-42.0029 -63.001c-3.33301 0.666992 -5 3.33398 -5 8.00098s-0.666992 8 -2 10c-12 15.333 -29 29.5 -51 42.5s-47 19.5 -75 19.5c-12.667 0 -24.834 -1.5 -36.501 -4.5s-22 -7.16699 -31 -12.5s-16.167 -12.166 -21.5 -20.499s-8 -17.833 -8 -28.5
c0 -8 2 -15.167 6 -21.5s10.333 -12.5 19 -18.5s20.834 -12 36.501 -18s36.167 -12.667 61.5 -20c57.333 -15.333 97.833 -33.5 121.5 -54.5s35.5 -46.833 35.5 -77.5c0 -20 -4.33301 -39 -13 -57s-21.334 -33.667 -38.001 -47s-36.667 -23.833 -60 -31.5
s-49.666 -11.5 -78.999 -11.5c-76.667 0 -141 24 -193 72l41 72c2 -2 3.33301 -5.16699 4 -9.5s3 -9.5 7 -15.5s11.333 -12.833 22 -20.5s27 -16.167 49 -25.5c10 -4.66699 21.333 -8 34 -10s25.334 -3 38.001 -3c13.333 0 26.833 1.66699 40.5 5s26 8.16602 37 14.499
s19.833 14 26.5 23s10 19.167 10 30.5c0 17.333 -8 32 -24 44s-45.333 24.333 -88 37c-29.333 8.66699 -48.666 14.667 -57.999 18c-24 9.33301 -41.333 17.5 -52 24.5s-20.334 15.333 -29.001 25s-15.667 20.667 -21 33s-8 25.833 -8 40.5c0 16 4.33301 31.333 13 46
s20.834 27.667 36.501 39s34.334 20.5 56.001 27.5s45.167 10.5 70.5 10.5c70 0 126.667 -24 170 -72zM291.997 698.999l63 -42l-101 -135l-50 30z" />
    <glyph glyph-name="Scedilla" unicode="&#x15e;" 
d="M295 -109c0 16 -15.667 24.0029 -47 24.0029h-30l10 75c-72.667 4.66699 -131.334 31.334 -176.001 80.001l41 72c3.33301 -2 5 -5.33301 5 -10s1 -8.33398 3 -11.001c15.333 -19.333 36 -35.5 62 -48.5s57.333 -19.5 94 -19.5c18.667 0 35.834 3.16699 51.501 9.5
s29.167 14.666 40.5 24.999s20.333 22.666 27 36.999s10 29.5 10 45.5c0 14 -1.83301 25.833 -5.5 35.5s-10.834 18.834 -21.501 27.501s-25.167 17.667 -43.5 27s-42.5 20 -72.5 32c-32.667 12.667 -59.834 25.5 -81.501 38.5s-39.167 26.167 -52.5 39.5
s-22.833 27.666 -28.5 42.999s-8.5 32 -8.5 50c0 22.667 4.83301 44 14.5 64s23 37.5 40 52.5s37.167 26.667 60.5 35s48.333 12.5 75 12.5c34 0 66 -6.83301 96 -20.5s55.667 -32.834 77 -57.501l-44 -60c-3.33301 1.33301 -5.16602 4.16602 -5.49902 8.49902
s-1.16602 7.5 -2.49902 9.5c-12.667 18.667 -29.834 33.667 -51.501 45s-48.5 17 -80.5 17c-30.667 0 -56.167 -9 -76.5 -27s-30.5 -39.333 -30.5 -64c0 -14.667 2.33301 -27.5 7 -38.5s12.334 -21.333 23.001 -31s26 -19.667 46 -30s46 -21.833 78 -34.5
c30.667 -12.667 56 -25.167 76 -37.5s36 -25.5 48 -39.5s20.5 -28.833 25.5 -44.5s7.5 -33.167 7.5 -52.5c0 -20.667 -3.5 -41.167 -10.5 -61.5s-18 -38.833 -33 -55.5s-34 -30.667 -57 -42s-50.5 -18.333 -82.5 -21l-4 -37l16 -1c45.333 -3.33301 68 -21.666 68 -54.999
c0 -18.667 -9.5 -35.667 -28.5 -51s-48.167 -23 -87.5 -23s-76.333 12.333 -111 37l25 42c28.667 -24 61.667 -36 99 -36c17.333 0 29.333 2.5 36 7.5s10 10.833 10 17.5z" />
    <glyph glyph-name="scedilla" unicode="&#x15f;" 
d="M301 -109c0 16 -15.6709 23.998 -47.0039 23.998h-30l10 75c-70 2.66699 -129 26.667 -177 72l41 72c2 -2 3.33301 -5.16699 4 -9.5s3 -9.5 7 -15.5s11.333 -12.833 22 -20.5s27 -16.167 49 -25.5c10 -4.66699 21.333 -8 34 -10s25.334 -3 38.001 -3
c13.333 0 26.833 1.66699 40.5 5s26 8.16602 37 14.499s19.833 14 26.5 23s10 19.167 10 30.5c0 17.333 -8 32 -24 44s-45.333 24.333 -88 37c-29.333 8.66699 -48.666 14.667 -57.999 18c-24 9.33301 -41.333 17.5 -52 24.5s-20.334 15.333 -29.001 25
s-15.667 20.667 -21 33s-8 25.833 -8 40.5c0 16 4.33301 31.333 13 46s20.834 27.667 36.501 39s34.334 20.5 56.001 27.5s45.167 10.5 70.5 10.5c70 0 126.667 -24 170 -72l-42 -63c-3.33301 0.666992 -5 3.33398 -5 8.00098s-0.666992 8 -2 10
c-12 15.333 -29 29.5 -51 42.5s-47 19.5 -75 19.5c-12.667 0 -24.834 -1.5 -36.501 -4.5s-22 -7.16699 -31 -12.5s-16.167 -12.166 -21.5 -20.499s-8 -17.833 -8 -28.5c0 -8 2 -15.167 6 -21.5s10.333 -12.5 19 -18.5s20.834 -12 36.501 -18s36.167 -12.667 61.5 -20
c57.333 -15.333 97.833 -33.666 121.5 -54.999s35.5 -48.666 35.5 -81.999c0 -16.667 -3.66699 -33 -11 -49s-18 -30.333 -32 -43s-31 -23.334 -51 -32.001s-42.667 -14.334 -68 -17.001l-4 -38l16 -1c45.333 -3.33301 68 -21.666 68 -54.999
c0 -18.667 -9.5 -35.667 -28.5 -51s-48.167 -23 -87.5 -23s-76.333 12.333 -111 37l25 42c28.667 -24 62 -36 100 -36c16.667 0 28.334 2.5 35.001 7.5s10 10.833 10 17.5z" />
    <glyph glyph-name="Scaron" unicode="&#x160;" 
d="M435 549l-44.001 -59.9932c-3.33301 1.33301 -5.16602 4.16602 -5.49902 8.49902s-1.16602 7.5 -2.49902 9.5c-12.667 18.667 -29.834 33.667 -51.501 45s-48.5 17 -80.5 17c-30.667 0 -56.167 -9 -76.5 -27s-30.5 -39.333 -30.5 -64c0 -14.667 2.5 -27.334 7.5 -38.001
s12.667 -21 23 -31s25.5 -20.167 45.5 -30.5s46 -21.833 78 -34.5c30.667 -12.667 56 -25.167 76 -37.5s36 -25.5 48 -39.5s20.5 -28.833 25.5 -44.5s7.5 -33.167 7.5 -52.5c0 -21.333 -4 -42.833 -12 -64.5s-20.5 -41 -37.5 -58s-38.5 -30.833 -64.5 -41.5
s-57.333 -16 -94 -16c-80.667 0 -145.667 26.667 -195 80l41 72c3.33301 -2 5 -5.33301 5 -10s1 -8.33398 3 -11.001c15.333 -19.333 36 -35.5 62 -48.5s57.333 -19.5 94 -19.5c18.667 0 35.834 3.16699 51.501 9.5s29.167 14.666 40.5 24.999s20.333 22.666 27 36.999
s10 29.5 10 45.5c0 12.667 -2.16699 24.167 -6.5 34.5s-11.5 20 -21.5 29s-24.167 18 -42.5 27s-42.5 19.5 -72.5 31.5c-32.667 12.667 -59.834 25.5 -81.501 38.5s-39.167 26.167 -52.5 39.5s-22.833 27.666 -28.5 42.999s-8.5 32 -8.5 50c0 22.667 4.83301 44 14.5 64
s23 37.5 40 52.5s37.167 26.667 60.5 35s48.333 12.5 75 12.5c34 0 66 -6.83301 96 -20.5s55.667 -32.834 77 -57.501zM401.999 756.007l-131 -100h-22l-123 98l33 38l103 -71l112 68z" />
    <glyph glyph-name="scaron" unicode="&#x161;" 
d="M432 396l-42.0029 -63.001c-3.33301 0.666992 -5 3.33398 -5 8.00098s-0.666992 8 -2 10c-12 15.333 -29 29.5 -51 42.5s-47 19.5 -75 19.5c-12.667 0 -24.834 -1.5 -36.501 -4.5s-22 -7.16699 -31 -12.5s-16.167 -12.166 -21.5 -20.499s-8 -17.833 -8 -28.5
c0 -8 2 -15.167 6 -21.5s10.333 -12.5 19 -18.5s20.834 -12 36.501 -18s36.167 -12.667 61.5 -20c57.333 -15.333 97.833 -33.5 121.5 -54.5s35.5 -46.833 35.5 -77.5c0 -20 -4.33301 -39 -13 -57s-21.334 -33.667 -38.001 -47s-36.667 -23.833 -60 -31.5
s-49.666 -11.5 -78.999 -11.5c-76.667 0 -141 24 -193 72l41 72c2 -2 3.33301 -5.16699 4 -9.5s3 -9.5 7 -15.5s11.333 -12.833 22 -20.5s27 -16.167 49 -25.5c10 -4.66699 21.333 -8 34 -10s25.334 -3 38.001 -3c13.333 0 26.833 1.66699 40.5 5s26 8.16602 37 14.499
s19.833 14 26.5 23s10 19.167 10 30.5c0 17.333 -8 32 -24 44s-45.333 24.333 -88 37c-29.333 8.66699 -48.666 14.667 -57.999 18c-24 9.33301 -41.333 17.5 -52 24.5s-20.334 15.333 -29.001 25s-15.667 20.667 -21 33s-8 25.833 -8 40.5c0 16 4.33301 31.333 13 46
s20.834 27.667 36.501 39s34.334 20.5 56.001 27.5s45.167 10.5 70.5 10.5c70 0 126.667 -24 170 -72zM376.997 657.999l-111 -140h-22l-110 141l46 35l78 -103l81 102z" />
    <glyph glyph-name="Tcedilla" unicode="&#x162;" 
d="M289 -109c0 16 -15.667 23.999 -47 23.999h-30l11 84h-15v562h-177v63h432v-63h-184v-562h-12l-6 -46l17 -1c45.333 -3.33301 68 -21.666 68 -54.999c0 -18.667 -9.5 -35.667 -28.5 -51s-48.167 -23 -87.5 -23s-76.333 12.333 -111 37l25 42
c28.667 -24 61.667 -36 99 -36c17.333 0 29.333 2.5 36 7.5s10 10.833 10 17.5z" />
    <glyph glyph-name="tcedilla" unicode="&#x163;" 
d="M344 -109c0 16 -15.667 23.9971 -47 23.9971h-29l10 78c-21.333 2.66699 -39 7.83398 -53 15.501s-25.333 19.334 -34 35.001s-14.834 35.5 -18.501 59.5s-5.5 54 -5.5 90c0 28 0.833008 59.167 2.5 93.5s4.16699 71.5 7.5 111.5h-107v59h110l8 122l79 13
c0 -6 -0.833008 -11.333 -2.5 -16s-2.83398 -8.33398 -3.50098 -11.001l-12 -108h150v-59h-150c-6 -59.333 -9 -115 -9 -167c0 -32 0.666992 -59 2 -81s4.83301 -39.833 10.5 -53.5s13.834 -23.5 24.501 -29.5s25 -9 43 -9c30.667 0 64.667 13.667 102 41l22 -57
c-38.667 -27.333 -79.667 -43.666 -123 -48.999l-4 -40l16 -1c45.333 -3.33301 68 -21.666 68 -54.999c0 -18.667 -9.5 -35.667 -28.5 -51s-48.167 -23 -87.5 -23s-76.333 12.333 -111 37l25 42c28.667 -24 62 -36 100 -36c16.667 0 28.334 2.5 35.001 7.5
s10 10.833 10 17.5z" />
    <glyph glyph-name="Tcaron" unicode="&#x164;" 
d="M31 624h432v-63h-184v-561h-71v561h-177v63zM397 755l-131 -100h-22l-123 98l33 38l103 -71l112 68z" />
    <glyph glyph-name="tcaron" unicode="&#x165;" 
d="M163 579l79 13.002c0 -6 -0.833008 -11.333 -2.5 -16s-2.83398 -8.33398 -3.50098 -11.001l-12 -108h150v-59h-150c-6 -59.333 -9 -115 -9 -167c0 -32 0.666992 -59 2 -81s4.83301 -39.333 10.5 -52s13.834 -22.5 24.501 -29.5s25 -10.5 43 -10.5
c30.667 0 64.667 13.667 102 41l22 -57c-46 -34 -93.333 -51 -142 -51c-48 0 -83 14.5 -105 43.5s-32 76.167 -30 141.5c0 24 0.666992 54.667 2 92s4 80.666 8 129.999h-107v59h110zM483 640.002c0 -43.333 -28.333 -93.667 -85 -151l-28 24
c15.333 14 27.833 29.167 37.5 45.5s14.5 29.5 14.5 39.5c0 4.66699 -2.16699 9.33398 -6.5 14.001s-9 9.16699 -14 13.5s-9.66699 9.16602 -14 14.499s-6.5 11.666 -6.5 18.999c0 13.333 4.5 24.5 13.5 33.5s20.5 13.5 34.5 13.5s26.5 -6.16699 37.5 -18.5
s16.5 -28.166 16.5 -47.499z" />
    <glyph glyph-name="Uring" unicode="&#x16e;" 
d="M50 623l79.0049 0.000976562c0.666992 0 1 -0.666992 1 -2c0 -2.66699 -1.5 -6.5 -4.5 -11.5s-5.16699 -11.167 -6.5 -18.5v-377c0 -34.667 3.33301 -61.5 10 -80.5s16 -34.667 28 -47s26.167 -21.5 42.5 -27.5s33.833 -9.66699 52.5 -11
c18.667 1.33301 36.167 4.66602 52.5 9.99902s30.666 14.5 42.999 27.5s22 29.167 29 48.5s10.5 47 10.5 83v406h67v-405c0 -40.667 -4.5 -75 -13.5 -103s-22.833 -51.333 -41.5 -70s-40.334 -32.667 -65.001 -42s-52.334 -14 -83.001 -14c-30 0 -57.333 4.66699 -82 14
s-45.834 23 -63.501 41s-31.334 40 -41.001 66s-14.5 61 -14.5 105v408zM317.005 769.001c18 -18 27.001 -39.001 27.001 -63.001c0 -23.333 -8.83301 -43.666 -26.5 -60.999s-39.167 -26 -64.5 -26c-12.667 0 -24.5 2.33301 -35.5 7s-20.667 11 -29 19s-15 17.333 -20 28
s-7.5 22 -7.5 34s2.5 23.333 7.5 34s11.667 20 20 28s18.166 14.333 29.499 19s23 7 35 7c24 0 45.333 -8.66699 64 -26zM254.006 753c-11.333 0 -21.166 -4.33301 -29.499 -13s-12.5 -19.667 -12.5 -33c0 -12.667 4.16699 -23.334 12.5 -32.001s18.166 -13 29.499 -13
s21 4.33301 29 13s12 19.334 12 32.001c0 13.333 -4 24.333 -12 33s-17.667 13 -29 13z" />
    <glyph glyph-name="uring" unicode="&#x16f;" 
d="M63 457l71.999 0.000976562v-255c0 -29.333 2.66699 -53.833 8 -73.5s12.833 -35.5 22.5 -47.5s20.667 -20.667 33 -26s25.833 -8 40.5 -8c16 1.33301 31.333 5.33301 46 12s27.834 16.167 39.501 28.5s20.834 28.166 27.501 47.499s10 42.666 10 69.999v252h73v-416
c0 -15.333 1.66699 -29 5 -41h-76c-0.666992 4.66699 -1.33398 9.83398 -2.00098 15.501s-0.666992 12.167 0 19.5l1 35c-14.667 -25.333 -34.5 -45.166 -59.5 -59.499s-52.5 -21.5 -82.5 -21.5c-23.333 0 -44.333 4.16699 -63 12.5s-35.5 21.166 -50.5 38.499
s-26.333 39.333 -34 66s-11.5 58.667 -11.5 96zM320.999 667.001c18 -18 26.998 -38.667 26.998 -62c0 -12 -2.5 -23.333 -7.5 -34s-11.667 -20 -20 -28s-18.166 -14.333 -29.499 -19s-23 -7 -35 -7s-23.5 2.33301 -34.5 7s-20.667 11 -29 19s-15 17.333 -20 28
s-7.5 22 -7.5 34s2.5 23.333 7.5 34s11.667 20 20 28s18 14.333 29 19s22.5 7 34.5 7c24.667 0 46.334 -8.66699 65.001 -26zM256.997 652.001c-11.333 0 -21 -4.5 -29 -13.5s-12 -19.833 -12 -32.5s4 -23.5 12 -32.5s17.667 -13.5 29 -13.5s21.166 4.5 29.499 13.5
s12.5 19.833 12.5 32.5s-4.16699 23.5 -12.5 32.5s-18.166 13.5 -29.499 13.5z" />
    <glyph glyph-name="Uhungarumlaut" unicode="&#x170;" 
d="M50 623l79.0049 0.000976562c0.666992 0 1 -0.666992 1 -2c0 -2.66699 -1.5 -6.5 -4.5 -11.5s-5.16699 -11.167 -6.5 -18.5v-377c0 -34.667 3.33301 -61.5 10 -80.5s16 -34.667 28 -47s26.167 -21.5 42.5 -27.5s33.833 -9.66699 52.5 -11
c18.667 1.33301 36.167 4.66602 52.5 9.99902s30.666 14.5 42.999 27.5s22 29.167 29 48.5s10.5 47 10.5 83v406h67v-405c0 -40.667 -4.5 -75 -13.5 -103s-22.833 -51.333 -41.5 -70s-40.334 -32.667 -65.001 -42s-52.334 -14 -83.001 -14c-30 0 -57.333 4.66699 -82 14
s-45.834 23 -63.501 41s-31.334 40 -41.001 66s-14.5 61 -14.5 105v408zM411.005 810.001l46 -64l-145 -101l-32 41zM233.005 810.001l47 -64l-146 -101l-32 41z" />
    <glyph glyph-name="uhungarumlaut" unicode="&#x171;" 
d="M63 457l71.999 0.000976562v-255c0 -29.333 2.66699 -53.833 8 -73.5s12.833 -35.5 22.5 -47.5s20.667 -20.667 33 -26s25.833 -8 40.5 -8c16 1.33301 31.333 5.33301 46 12s27.834 16.167 39.501 28.5s20.834 28.166 27.501 47.499s10 42.666 10 69.999v252h73v-416
c0 -15.333 1.66699 -29 5 -41h-76c-0.666992 4.66699 -1.33398 9.83398 -2.00098 15.501s-0.666992 12.167 0 19.5l1 35c-14.667 -25.333 -34.5 -45.166 -59.5 -59.499s-52.5 -21.5 -82.5 -21.5c-23.333 0 -44.333 4.16699 -63 12.5s-35.5 21.166 -50.5 38.499
s-26.333 39.333 -34 66s-11.5 58.667 -11.5 96zM213.999 699.001l63 -42l-101 -135l-50 30zM368.999 699.001l63 -42l-101 -135l-50 30z" />
    <glyph glyph-name="Ydieresis" unicode="&#x178;" 
d="M28 623h80l153 -302l138 302h74l-177 -377v-246h-76v246zM194 774c10 -10 15 -21.999 15 -35.999c0 -13.333 -5 -25 -15 -35s-22 -15 -36 -15c-13.333 0 -25 5 -35 15s-15 21.667 -15 35s5 25.166 15 35.499s21.667 15.5 35 15.5c14 0 26 -5 36 -15zM372 774.001
c10 -10 15 -22 15 -36c0 -13.333 -5 -25 -15 -35s-22 -15 -36 -15c-13.333 0 -24.833 4.83301 -34.5 14.5s-14.5 21.5 -14.5 35.5s4.83301 26 14.5 36s21.167 15 34.5 15c14 0 26 -5 36 -15z" />
    <glyph glyph-name="Zacute" unicode="&#x179;" 
d="M62 623h384.998v-49l-309 -512h294c4.66699 0 9.83398 1 15.501 3s10.834 3 15.501 3v-68h-413v49l314 511h-302v63zM307.998 791l40 -70l-169 -61l-23 42z" />
    <glyph glyph-name="zacute" unicode="&#x17a;" 
d="M71 457h354.998v-49l-278 -346h271c4.66699 0 9.83398 1 15.501 3s10.834 3 15.501 3v-68h-400v49l283 345h-262v63zM291.998 699l63 -42l-101 -135l-50 30z" />
    <glyph glyph-name="Zdotaccent" unicode="&#x17b;" 
d="M62 623h384.998v-49l-309 -512h294c4.66699 0 9.83398 1 15.501 3s10.834 3 15.501 3v-68h-413v49l314 511h-302v63zM215.998 769c10 10 21.999 15 35.999 15s26.167 -5 36.5 -15s15.5 -22 15.5 -36s-5.16699 -26 -15.5 -36s-22.5 -15 -36.5 -15
c-13.333 0 -25.166 5 -35.499 15s-15.5 22 -15.5 36s5 26 15 36z" />
    <glyph glyph-name="zdot" unicode="&#x17c;" 
d="M71 457h354.998v-49l-278 -346h271c4.66699 0 9.83398 1 15.501 3s10.834 3 15.501 3v-68h-400v49l283 345h-262v63zM217.998 641c10 10 22 15 36 15s26.167 -5.16699 36.5 -15.5s15.5 -22.5 15.5 -36.5s-5.16699 -26 -15.5 -36s-22.5 -15 -36.5 -15s-26 5 -36 15
s-15 22 -15 36c0 14.667 5 27 15 37z" />
    <glyph glyph-name="florin" unicode="&#x192;" 
d="M480 620l-32.9951 -66.001c-5.33301 0 -8.33301 3.33301 -9 10c-2.66699 15.333 -11 27.833 -25 37.5s-28.667 14.5 -44 14.5c-12.667 0 -23.834 -2.16699 -33.501 -6.5s-18.167 -12 -25.5 -23s-13.5 -26.333 -18.5 -46s-8.5 -44.834 -10.5 -75.501l-6 -82h123v-57h-128
l-24 -302c-3.33301 -36.667 -9.33301 -67.667 -18 -93s-19.334 -45.833 -32.001 -61.5s-27.167 -27 -43.5 -34s-33.833 -10.5 -52.5 -10.5c-32.667 0 -60 11.667 -82 35l41 64c2 -0.666992 4.16699 -2.66699 6.5 -6l8 -11c3 -4 7.5 -7.5 13.5 -10.5s13.333 -4.5 22 -4.5
c18.667 0 34.167 11.333 46.5 34s20.166 56.334 23.499 101.001l22 299h-121v57h125l7 92c5.33301 68.667 21.666 118.834 48.999 150.501s63 47.5 107 47.5c45.333 0 82.666 -17.667 111.999 -53z" />
    <glyph glyph-name="dotlessj" unicode="&#x237;" 
d="M126 457l243 -0.00195312v-435c0 -34.667 -4.66699 -64.167 -14 -88.5s-22.166 -44.166 -38.499 -59.499s-35.5 -26.833 -57.5 -34.5s-45.667 -12.167 -71 -13.5c-58.667 0 -105.334 21.333 -140.001 64l47 62c3.33301 -3.33301 5.16602 -6.66602 5.49902 -9.99902
s1.5 -7 3.5 -11s6 -8.5 12 -13.5s16 -11.167 30 -18.5c14.667 -7.33301 30.334 -11 47.001 -11c30 0 54.667 10.167 74 30.5s29 53.5 29 99.5v380h-170v59z" />
    <glyph glyph-name="afii57929" unicode="&#x2bc;" 
d="M309 605c0 -43.333 -28.333 -93.667 -85 -151l-28 24c15.333 14 27.833 29.167 37.5 45.5s14.5 29.5 14.5 39.5c0 4.66699 -2.16699 9.33398 -6.5 14.001s-9 9.16699 -14 13.5s-9.66699 9.16602 -14 14.499s-6.5 11.666 -6.5 18.999c0 13.333 4.5 24.5 13.5 33.5
s20.5 13.5 34.5 13.5s26.5 -6.16699 37.5 -18.5s16.5 -28.166 16.5 -47.499z" />
    <glyph glyph-name="circumflex" unicode="&#x2c6;" 
d="M134 545l111 140h22l110 -141l-46 -35l-78 103l-81 -102z" />
    <glyph glyph-name="caron" unicode="&#x2c7;" 
d="M377 658l-111 -140h-22l-110 141l46 35l78 -103l81 102z" />
    <glyph glyph-name="uni02C9" unicode="&#x2c9;" 
d="M123 621h254v-56h-254v56z" />
    <glyph glyph-name="uni02CB" unicode="&#x2cb;" 
d="M243 699l88 -147l-50 -30l-101 135z" />
    <glyph glyph-name="breve" unicode="&#x2d8;" 
d="M137 646c12.667 -20 28.832 -36.667 48.499 -50s41.167 -20 64.5 -20c42.667 0 82.334 23.333 119.001 70l28 -42c-18 -24 -39.833 -43.333 -65.5 -58s-52.5 -22 -80.5 -22c-56.667 0 -106.667 25.667 -150 77z" />
    <glyph glyph-name="dotaccent" unicode="&#x2d9;" 
d="M218 641c10 10 22 15 36 15s26.167 -5.16699 36.5 -15.5s15.5 -22.5 15.5 -36.5s-5.16699 -26 -15.5 -36s-22.5 -15 -36.5 -15s-26 5 -36 15s-15 22 -15 36c0 14.667 5 27 15 37z" />
    <glyph glyph-name="ring" unicode="&#x2da;" 
d="M321 667c18 -18 26.998 -38.667 26.998 -62c0 -12 -2.5 -23.333 -7.5 -34s-11.667 -20 -20 -28s-18.166 -14.333 -29.499 -19s-23 -7 -35 -7s-23.5 2.33301 -34.5 7s-20.667 11 -29 19s-15 17.333 -20 28s-7.5 22 -7.5 34s2.5 23.333 7.5 34s11.667 20 20 28
s18 14.333 29 19s22.5 7 34.5 7c24.667 0 46.334 -8.66699 65.001 -26zM256.998 652c-11.333 0 -21 -4.5 -29 -13.5s-12 -19.833 -12 -32.5s4 -23.5 12 -32.5s17.667 -13.5 29 -13.5s21.166 4.5 29.499 13.5s12.5 19.833 12.5 32.5s-4.16699 23.5 -12.5 32.5
s-18.166 13.5 -29.499 13.5z" />
    <glyph glyph-name="ogonek" unicode="&#x2db;" 
d="M356 0l66.002 0.000976562c-56 -50 -84 -84 -84 -102c0 -8 2.66699 -14.667 8 -20s12 -8 20 -8c19.333 0 38.666 7.66699 57.999 23v-46c-18.667 -15.333 -41 -23 -67 -23c-26.667 0 -46.834 5.83301 -60.501 17.5s-20.5 26.167 -20.5 43.5
c0 33.333 26.667 71.666 80 114.999z" />
    <glyph glyph-name="tilde" unicode="&#x2dc;" 
d="M135 557l-44.0029 32.002c36 58 73.667 87 113 87c12 0 24.833 -3.83301 38.5 -11.5s25.834 -16.334 36.501 -26.001l29.5 -26c9 -7.66699 15.833 -11.5 20.5 -11.5c8 0 14.833 1.33301 20.5 4s10.667 6.5 15 11.5s8.5 10.667 12.5 17s9 13.166 15 20.499l37 -40
c-20 -24 -37.167 -41.833 -51.5 -53.5s-29.166 -17.5 -44.499 -17.5s-29.166 4 -41.499 12s-23.166 16.667 -32.499 26s-18.666 18 -27.999 26s-18 12 -26 12c-14.667 0 -26.334 -4.5 -35.001 -13.5s-20.334 -25.167 -35.001 -48.5z" />
    <glyph glyph-name="hungarumlaut" unicode="&#x2dd;" 
d="M214 699l63 -42l-101 -135l-50 30zM369 699l63 -42l-101 -135l-50 30z" />
    <glyph glyph-name="quoteleft" unicode="&#x2018;" 
d="M182 450c0 54 35.335 116.668 106.002 188.001l35 -31c-18.667 -16.667 -34.167 -35.167 -46.5 -55.5s-18.5 -36.833 -18.5 -49.5c0 -6.66699 2.66699 -12.834 8 -18.501s11.166 -11.167 17.499 -16.5s12.166 -11.5 17.499 -18.5s8 -14.833 8 -23.5
c0 -16 -5.5 -29.667 -16.5 -41s-25.167 -17 -42.5 -17s-33 7.66699 -47 23s-21 35.333 -21 60z" />
    <glyph glyph-name="quoteright" unicode="&#x2019;" 
d="M306 555c0 -52.667 -35.667 -115.334 -107 -188.001l-34 30c18.667 17.333 34.167 36 46.5 56s18.5 36.333 18.5 49c0 6.66699 -2.66699 13 -8 19s-11.333 11.667 -18 17s-12.5 11.333 -17.5 18s-7.5 14.334 -7.5 23.001c0 16.667 5.5 30.667 16.5 42s25.167 17 42.5 17
s33 -7.66699 47 -23s21 -35.333 21 -60z" />
    <glyph glyph-name="quotesinglbase" unicode="&#x201a;" 
d="M306 20c0 -52.667 -35.6689 -115.334 -107.002 -188.001l-34 30c18.667 17.333 34.167 36 46.5 56s18.5 36.333 18.5 49c0 6.66699 -2.66699 12.834 -8 18.501s-11.166 11.167 -17.499 16.5s-12.166 11.5 -17.499 18.5s-8 14.833 -8 23.5c0 16.667 5.5 30.667 16.5 42
s25.167 17 42.5 17s33 -7.66699 47 -23s21 -35.333 21 -60z" />
    <glyph glyph-name="quotedblleft" unicode="&#x201c;" 
d="M286 450c0 54 35.332 116.667 105.999 188l34 -31c-18.667 -16.667 -34.167 -35.167 -46.5 -55.5s-18.5 -36.833 -18.5 -49.5c0 -6.66699 2.66699 -12.667 8 -18s11.5 -10.833 18.5 -16.5s13 -12 18 -19s7.5 -14.833 7.5 -23.5c0 -16 -5.66699 -29.667 -17 -41
s-25.666 -17 -42.999 -17s-32.833 7.66699 -46.5 23s-20.5 35.333 -20.5 60zM78.999 450c0 54 35.332 116.667 105.999 188l34 -31c-18.667 -16.667 -34.167 -35.167 -46.5 -55.5s-18.5 -36.833 -18.5 -49.5c0 -6.66699 2.66699 -12.667 8 -18s11.5 -10.833 18.5 -16.5
s13 -12 18 -19s7.5 -14.833 7.5 -23.5c0 -16 -5.66699 -29.667 -17 -41s-25.666 -17 -42.999 -17s-32.833 7.66699 -46.5 23s-20.5 35.333 -20.5 60z" />
    <glyph glyph-name="quotedblright" unicode="&#x201d;" 
d="M202 555c0 -54 -35.333 -116.667 -106 -188l-35 30c19.333 17.333 35 36 47 56s18 36.333 18 49c0 6.66699 -2.83301 13 -8.5 19s-11.5 11.833 -17.5 17.5s-11.667 11.667 -17 18s-8 13.833 -8 22.5c0 16.667 5.5 30.667 16.5 42s25.167 17 42.5 17
c18 0 33.833 -7.66699 47.5 -23s20.5 -35.333 20.5 -60zM409 555c0 -54 -35.333 -116.667 -106 -188l-35 30c19.333 17.333 35 36 47 56s18 36.333 18 49c0 6.66699 -2.5 13 -7.5 19s-10.833 11.833 -17.5 17.5s-12.667 11.667 -18 18s-8 13.833 -8 22.5
c0 16.667 5.5 30.667 16.5 42s25.167 17 42.5 17c18 0 33.833 -7.66699 47.5 -23s20.5 -35.333 20.5 -60z" />
    <glyph glyph-name="quotedblbase" unicode="&#x201e;" 
d="M409 20c0 -54 -35.335 -116.668 -106.002 -188.001l-35 30c19.333 17.333 35 36 47 56s18 36.333 18 49c0 6.66699 -2.66699 12.834 -8 18.501s-11.166 11.167 -17.499 16.5s-12.166 11.5 -17.499 18.5s-8 14.833 -8 23.5c0 16.667 5.5 30.667 16.5 42s25.167 17 42.5 17
c18 0 33.833 -7.66699 47.5 -23s20.5 -35.333 20.5 -60zM201.998 19.999c0 -54 -35.335 -116.668 -106.002 -188.001l-35 30c19.333 17.333 35 36 47 56s18 36.333 18 49c0 6.66699 -2.66699 12.834 -8 18.501s-11.166 11.5 -17.499 17.5s-12.166 12.167 -17.499 18.5
s-8 13.833 -8 22.5c0 16.667 5.5 30.667 16.5 42s25.167 17 42.5 17c18 0 33.833 -7.66699 47.5 -23s20.5 -35.333 20.5 -60z" />
    <glyph glyph-name="dagger" unicode="&#x2020;" 
d="M217 652h67v-195h166v-60h-166v-548h-67v548h-168v60h168v195z" />
    <glyph glyph-name="daggerdbl" unicode="&#x2021;" 
d="M217 652h67v-195h166v-60h-166v-276h166v-60h-166v-212h-67v212h-168v60h168v276h-168v60h168v195z" />
    <glyph glyph-name="bullet" unicode="&#x2022;" 
d="M316 355c16.667 -16.667 25 -36.332 25 -58.999s-8.33301 -42.167 -25 -58.5s-36.667 -24.5 -60 -24.5s-43.333 8.16699 -60 24.5s-25 35.833 -25 58.5c0 23.333 8.5 43.166 25.5 59.499s36.833 24.5 59.5 24.5c22 0 42 -8.33301 60 -25z" />
    <glyph glyph-name="ellipsis" unicode="&#x2026;" 
d="M453 87c11.333 -12.667 17 -26.334 17 -41.001c0 -15.333 -5.66699 -28.666 -17 -39.999s-25.333 -17 -42 -17s-30.667 5.5 -42 16.5s-17 24.5 -17 40.5s6 29.667 18 41s25.667 17 41 17s29.333 -5.66699 42 -17zM108 87c11.333 -12.667 17 -26.333 17 -41
c0 -15.333 -5.66699 -28.666 -17 -39.999s-25.333 -17 -42 -17c-17.333 0 -31.5 5.66699 -42.5 17s-16.5 24.666 -16.5 39.999s5.83301 28.833 17.5 40.5s25.5 17.5 41.5 17.5c15.333 0 29.333 -5.66699 42 -17zM280 87.001c12 -12 18.001 -25.668 18.001 -41.001
s-5.83301 -28.666 -17.5 -39.999s-25.834 -17 -42.501 -17s-30.667 5.5 -42 16.5s-17 24.5 -17 40.5s6 29.667 18 41s25.667 17 41 17s29.333 -5.66699 42 -17z" />
    <glyph glyph-name="guilsinglleft" unicode="&#x2039;" 
d="M145 253l152 147l39 -41l-121 -118l128 -140l-40 -40l-158 169v23z" />
    <glyph glyph-name="guilsinglright" unicode="&#x203a;" 
d="M343 253v-23l-158 -169l-40 40l128 140l-121 118l39 41z" />
    <glyph glyph-name="fraction" unicode="&#x2044;" 
d="M76 -16l313 681l48 -27l-314 -680z" />
    <glyph glyph-name="uni2074" unicode="&#x2074;" 
d="M302 641h39v-245h63v-47h-63v-97h-57v98h-182v35zM285 544l-118 -148h118v148z" />
    <glyph glyph-name="Euro" unicode="&#x20ac;" 
d="M464 574l-25 -67.999c-2 1.33301 -4.16699 5.5 -6.5 12.5s-7.83301 14.167 -16.5 21.5s-20.167 14.333 -34.5 21s-33.166 10 -56.499 10c-37.333 0 -71.5 -12.667 -102.5 -38s-52.167 -65 -63.5 -119h247l-22 -58h-234c-1.33301 -11.333 -2 -21.666 -2 -30.999v-25v-24
h206l-23 -58h-177c9.33301 -55.333 29.666 -97.333 60.999 -126s68.666 -43 111.999 -43c40.667 0 76.334 13.667 107.001 41l29 -50c-39.333 -34 -86 -51 -140 -51c-29.333 0 -57 4.83301 -83 14.5s-49.167 24.167 -69.5 43.5s-37.5 43.166 -51.5 71.499
s-23.333 61.5 -28 99.5h-58l13 58h40c0 3.33301 -0.166992 6.83301 -0.5 10.5s-0.5 7.5 -0.5 11.5c0 19.333 1 38.666 3 57.999h-55l13 58h51c8 38.667 20.167 71.667 36.5 99s34.833 49.5 55.5 66.5s43.167 29.333 67.5 37s48.5 11.5 72.5 11.5
c54.667 0 99.667 -18 135 -54z" />
    <glyph glyph-name="trademark" unicode="&#x2122;" 
d="M239 635v-40h-90v-275h-45v275h-86v40h221zM303 635l72 -145l75 145h33v-315h-42v215l-60 -108l-16 1l-55 107v-215h-42v315h35z" />
    <glyph glyph-name="uparrow" unicode="&#x2191;" 
d="M59 404l187 236h22l173 -238l-50 -33l-106 143v-546h-67v547l-116 -144z" />
    <glyph glyph-name="downarrow" unicode="&#x2193;" 
d="M441 203l-187 -237h-22l-173 239l50 33l106 -144v546h66v-546l117 144z" />
    <glyph glyph-name="minus" unicode="&#x2212;" 
d="M45 343h411v-61h-411v61z" />
    <glyph glyph-name="visiblespace" unicode="&#x2423;" 
d="M48 70h47v-91h309v91h48v-136h-404v136z" />
    <glyph glyph-name="Apostrophe" unicode="&#xf40a;" 
d="M309 562c0 -44 -28.333 -94.334 -85 -151.001l-28 24c15.333 14 27.833 29.167 37.5 45.5s14.5 29.166 14.5 38.499c0 5.33301 -2.16699 10.333 -6.5 15s-9 9.33398 -14 14.001s-9.66699 9.66699 -14 15s-6.5 11.333 -6.5 18c0 13.333 4.5 24.5 13.5 33.5
s20.5 13.5 34.5 13.5s26.5 -6.16699 37.5 -18.5s16.5 -28.166 16.5 -47.499z" />
    <glyph glyph-name="NULL" horiz-adv-x="0" 
 />
    <glyph glyph-name="nonmarkingreturn" horiz-adv-x="333" 
 />
    <glyph glyph-name="dotaccent.cap" 
d="M201 776c10 10 21.999 15 35.999 15s26.167 -5 36.5 -15s15.5 -22 15.5 -36s-5.16699 -26 -15.5 -36s-22.5 -15 -36.5 -15c-13.333 0 -25.166 5 -35.499 15s-15.5 22 -15.5 36s5 26 15 36z" />
    <glyph glyph-name="breve.cap" 
d="M128 784c12.667 -20 28.8311 -36.667 48.498 -50s40.834 -20 63.501 -20c43.333 0 83 23.333 119 70l28 -42c-17.333 -24 -38.833 -43.333 -64.5 -58s-52.5 -22 -80.5 -22c-57.333 0 -107.666 25.667 -150.999 77z" />
    <glyph glyph-name="tilde.cap" 
d="M131 683l-45 32.001c36.667 58 74.334 87 113.001 87c12 0 24.5 -3.83301 37.5 -11.5s25.333 -16.334 37 -26.001l31 -26c9 -7.66699 15.833 -11.5 20.5 -11.5c15.333 0 26.833 5.16699 34.5 15.5l27.5 37.5l38 -40c-20 -24 -37.333 -41.833 -52 -53.5
s-29.667 -17.5 -45 -17.5s-29 4 -41 12s-23.167 16.667 -33.5 26l-28.5 26c-8.66699 8 -17 12 -25 12c-14.667 0 -26.334 -4.5 -35.001 -13.5s-20 -25.167 -34 -48.5z" />
    <glyph glyph-name="dieresis.cap" 
d="M187 774c10 -10 15 -21.999 15 -35.999c0 -13.333 -5 -25 -15 -35s-22 -15 -36 -15c-13.333 0 -25 5 -35 15s-15 21.667 -15 35s5 25.166 15 35.499s21.667 15.5 35 15.5c14 0 26 -5 36 -15zM365 774.001c10 -10 15 -22 15 -36c0 -13.333 -5 -25 -15 -35s-22 -15 -36 -15
c-13.333 0 -24.833 4.83301 -34.5 14.5s-14.5 21.5 -14.5 35.5s4.83301 26 14.5 36s21.167 15 34.5 15c14 0 26 -5 36 -15z" />
    <glyph glyph-name="circumflex.cap" 
d="M114 692l131 99h22l123 -98l-33 -38l-103 71l-112 -68z" />
    <glyph glyph-name="caron.cap" 
d="M378 755l-131 -100h-22l-123 98l33 38l103 -71l112 68z" />
    <glyph glyph-name="grave.cap" 
d="M207 791l153 -89l-23 -42l-170 61z" />
    <glyph glyph-name="acute.cap" 
d="M325 791l40 -70l-169 -61l-23 42z" />
    <glyph glyph-name="ring.cap" 
d="M317 769c18 -18 27.001 -39.001 27.001 -63.001c0 -23.333 -8.83301 -43.666 -26.5 -60.999s-39.167 -26 -64.5 -26c-12.667 0 -24.5 2.33301 -35.5 7s-20.667 11 -29 19s-15 17.333 -20 28s-7.5 22 -7.5 34s2.5 23.333 7.5 34s11.667 20 20 28s18.166 14.333 29.499 19
s23 7 35 7c24 0 45.333 -8.66699 64 -26zM254.001 752.999c-11.333 0 -21.166 -4.33301 -29.499 -13s-12.5 -19.667 -12.5 -33c0 -12.667 4.16699 -23.334 12.5 -32.001s18.166 -13 29.499 -13s21 4.33301 29 13s12 19.334 12 32.001c0 13.333 -4 24.333 -12 33
s-17.667 13 -29 13z" />
    <glyph glyph-name="r.serif" 
d="M65 457h137l-3 -88c14.667 30 35.5 53.833 62.5 71.5s56.833 26.5 89.5 26.5c46 0 85.333 -16.333 118 -49l-34 -69l-10 12c-19.333 29.333 -45.666 44 -78.999 44c-19.333 0 -37.833 -5.5 -55.5 -16.5s-33.334 -25 -47.001 -42s-24.5 -35 -32.5 -54
s-12 -39.833 -12 -62.5v-176h96v-55h-232v55h65v345h-63v58z" />
    <glyph glyph-name="hungarumlaut.cap" 
d="M411 810l46 -64l-145 -101l-32 41zM233 810l47 -64l-146 -101l-32 41z" />
    <glyph glyph-name="zero.noslash" 
d="M248 627c27.333 0 52.6719 -7.66699 76.0049 -23s43.5 -37 60.5 -65s30.167 -61.5 39.5 -100.5s14 -81.833 14 -128.5c0 -47.333 -4.83301 -90.666 -14.5 -129.999s-23 -73.166 -40 -101.499s-36.833 -50.333 -59.5 -66s-47.334 -23.5 -74.001 -23.5
s-51.334 7 -74.001 21s-42.334 34.167 -59.001 60.5s-29.834 58.666 -39.501 96.999s-14.5 81.833 -14.5 130.5c0 48 4.5 92 13.5 132s21.833 74.667 38.5 104s36.167 52.166 58.5 68.499s47.166 24.5 74.499 24.5zM363.006 401
c-19.333 110 -56.668 164.999 -112.001 164.999c-21.333 0 -39.666 -7.33301 -54.999 -22s-28 -33.834 -38 -57.501s-17.333 -50.667 -22 -81s-7 -61.166 -7 -92.499c0 -35.333 2.66699 -68.666 8 -99.999s13 -58.833 23 -82.5s22.333 -42.5 37 -56.5s31.667 -21 51 -21
c38 0 68.333 21 91 63s34 102 34 180c0 34.667 -3.33301 69.667 -10 105z" />
  </font>
</defs>
</svg>
